<svg width="24" height="27" viewBox="0 0 24 27" fill="none" xmlns="http://www.w3.org/2000/svg">
<path d="M9.14481 25.0022C13.7308 20.3913 17.318 16.7054 21.3082 12.7488C22.6255 11.3577 23.4598 9.99618 23.8111 8.66429C24.4259 6.15089 23.4807 3.97439 21.8351 2.27121C20.2543 0.672945 18.5637 -0.0817954 16.7634 0.00701215C14.963 0.0958197 13.1847 1.01335 11.4282 2.7596L0.230865 14.125L2.07514 15.9453L13.2725 4.62422C14.4214 3.51976 15.7887 2.4785 17.3562 2.62637C19.7444 2.96536 21.8535 5.92073 21.3082 7.99834C20.6167 9.84163 19.6635 10.6823 18.3442 12.0162C14.3309 16.0635 11.2017 19.1933 7.3006 23.1375C5.83451 24.4919 4.88636 24.8587 3.52428 23.5814C2.8217 22.8711 2.51433 22.1755 2.60214 21.4948C2.69959 20.7005 3.14431 20.1512 3.65598 19.6302L13.8872 9.28579C14.3546 8.81239 15.4191 7.90373 15.8632 8.30909C16.2039 9.10831 15.3264 9.87115 14.8972 10.3069L5.50023 19.8078L7.30056 21.6724L16.7414 12.1716C18.3675 10.4759 19.5358 8.40377 17.7074 6.48888C15.6854 4.73415 13.5552 5.90561 12.0429 7.42121L1.8117 17.7655C0.757862 18.831 0.157716 19.9854 0.0113736 21.2285C-0.10408 22.9712 0.673051 24.3701 1.72389 25.4461C2.71163 26.4393 3.77873 26.9895 5.10507 27C6.6997 26.9354 8.26763 25.8735 9.14481 25.0022Z" fill="black"/>
</svg>
