<svg width="21" height="22" viewBox="0 0 21 22" fill="inherit" xmlns="http://www.w3.org/2000/svg">
<path d="M10.5 0.5C4.70103 0.5 0 5.20103 0 11C0 16.799 4.70103 21.5 10.5 21.5C16.299 21.5 21 16.799 21 11C21 5.20103 16.299 0.5 10.5 0.5ZM10.5 2.78149C15.039 2.78149 18.7172 6.46218 18.7172 11C18.7172 15.5378 15.039 19.2172 10.5 19.2172C5.96103 19.2172 2.28277 15.5378 2.28277 11C2.28279 6.46218 5.96103 2.78149 10.5 2.78149ZM14.5234 6.01404L8.43768 12.101L6.4638 10.1271L4.52709 12.0626L6.50097 14.0364L8.45049 15.986L10.3859 14.0493L16.4729 7.96356L14.5234 6.01404Z" />
</svg>
