<svg width="36" height="36" viewBox="0 0 36 36" fill="none" xmlns="http://www.w3.org/2000/svg">
<path d="M18 0C8.0588 0 0 8.0588 0 18C0 27.9412 8.0588 36 18 36C27.9412 36 36 27.9412 36 18C36 8.0588 27.9412 0 18 0Z" fill="#40B3E0"/>
<path d="M26.7585 10.354L23.5434 26.5637C23.5434 26.5637 23.0938 27.6879 21.8573 27.1483L14.4382 21.4603L11.7405 20.1564L7.19914 18.6276C7.19914 18.6276 6.50221 18.3804 6.43471 17.8408C6.36721 17.3012 7.22164 17.009 7.22164 17.009L25.2745 9.92711C25.2745 9.92711 26.7584 9.27517 26.7584 10.3543" fill="white"/>
<path d="M13.8681 26.3816C13.8681 26.3816 13.6516 26.3613 13.3816 25.5069C13.112 24.6526 11.7405 20.1563 11.7405 20.1563L22.6443 13.2319C22.6443 13.2319 23.2738 12.8497 23.2513 13.2319C23.2513 13.2319 23.3637 13.2994 23.0263 13.6141C22.6893 13.929 14.4609 21.3254 14.4609 21.3254" fill="#D2E5F1"/>
<path d="M17.283 23.6413L14.3485 26.3168C14.3485 26.3168 14.119 26.4909 13.8682 26.3818L14.4301 21.4121" fill="#B5CFE4"/>
</svg>
