<svg width="36" height="36" viewBox="0 0 36 36" fill="none" xmlns="http://www.w3.org/2000/svg">
<path d="M18 36C27.9411 36 36 27.9411 36 18C36 8.05887 27.9411 0 18 0C8.05887 0 0 8.05887 0 18C0 27.9411 8.05887 36 18 36Z" fill="#6BC45A"/>
<path d="M29.25 17.7105C29.25 23.7638 24.3053 28.6702 18.2048 28.6702C16.2683 28.6702 14.4487 28.1753 12.8655 27.3068L6.75 29.25L8.7435 23.3693C7.73775 21.717 7.15875 19.7805 7.15875 17.7105C7.15875 11.6573 12.1035 6.75 18.2048 6.75C24.3053 6.75 29.25 11.6573 29.25 17.7105ZM18.2048 8.49525C13.0838 8.49525 8.91825 12.6293 8.91825 17.7098C8.91825 19.7258 9.57525 21.5933 10.6867 23.112L9.5265 26.5335L13.095 25.3995C14.5612 26.3625 16.3177 26.9235 18.204 26.9235C23.3242 26.9235 27.4905 22.7902 27.4905 17.709C27.4912 12.6292 23.325 8.49525 18.2048 8.49525ZM23.7817 20.2343C23.7135 20.1225 23.5335 20.055 23.2628 19.9208C22.992 19.7865 21.66 19.1362 21.4125 19.047C21.1642 18.9578 20.9835 18.9128 20.8027 19.1813C20.6227 19.4505 20.1038 20.055 19.9455 20.2343C19.7872 20.4135 19.6298 20.436 19.359 20.3018C19.089 20.1675 18.216 19.884 17.1818 18.9683C16.377 18.2565 15.8332 17.3775 15.6757 17.1083C15.5175 16.8398 15.6593 16.6942 15.7943 16.5607C15.9165 16.44 16.065 16.2465 16.2008 16.0905C16.3365 15.933 16.3815 15.8213 16.4715 15.642C16.5623 15.4628 16.5165 15.306 16.449 15.171C16.3815 15.0368 15.8393 13.7145 15.6143 13.1768C15.3885 12.639 15.1635 12.729 15.0052 12.729C14.847 12.729 14.667 12.7065 14.4863 12.7065C14.3055 12.7065 14.0122 12.774 13.764 13.0425C13.5157 13.3117 12.8168 13.9613 12.8168 15.2828C12.8168 16.605 13.7865 17.8823 13.9222 18.0615C14.0573 18.24 15.795 21.0413 18.5468 22.1175C21.3 23.193 21.3 22.8345 21.7965 22.7887C22.2923 22.7445 23.3978 22.1392 23.6243 21.5115C23.8493 20.8845 23.8492 20.346 23.7817 20.2343Z" fill="white"/>
</svg>
