<svg width="24" height="22" viewBox="0 0 24 22" xmlns="http://www.w3.org/2000/svg">
<path d="M11.0755 1.63276C11.3955 0.788756 12.6065 0.788756 12.9275 1.63276L14.9975 7.36676C15.0698 7.55354 15.1969 7.71404 15.3622 7.82705C15.5276 7.94006 15.7233 8.00028 15.9235 7.99976H21.0105C21.9505 7.99976 22.3605 9.16976 21.6215 9.74276L18.0015 12.9998C17.8394 13.1244 17.7209 13.2972 17.663 13.4934C17.6052 13.6896 17.611 13.8991 17.6795 14.0918L19.0015 19.6948C19.3235 20.5948 18.2815 21.3678 17.4935 20.8138L12.5765 17.6938C12.4082 17.5754 12.2074 17.5119 12.0015 17.5119C11.7957 17.5119 11.5949 17.5754 11.4265 17.6938L6.50954 20.8138C5.72254 21.3678 4.67954 20.5938 5.00154 19.6948L6.32354 14.0918C6.39212 13.8991 6.3979 13.6896 6.34005 13.4934C6.2822 13.2972 6.1637 13.1244 6.00154 12.9998L2.38154 9.74276C1.64154 9.16976 2.05354 7.99976 2.99154 7.99976H8.07854C8.27883 8.00042 8.47461 7.94026 8.63996 7.82723C8.80531 7.7142 8.93245 7.55362 9.00454 7.36676L11.0745 1.63276H11.0755Z" stroke-linecap="round" stroke-linejoin="round"/>
</svg>
