<svg width="98" height="81" fill="none" xmlns="http://www.w3.org/2000/svg"><path d="M96.086 32.54H1.914v30.624h94.172V32.54z" fill="#F25A78"/><path d="M1.914 63.164v11.484a3.827 3.827 0 003.828 3.829h86.516a3.827 3.827 0 003.828-3.829V63.164H1.914zm90.344-45.937H70.055L63.457 4.03a3.83 3.83 0 00-3.424-2.117H37.967a3.83 3.83 0 00-3.424 2.117l-6.598 13.196h-6.89v-3.829a3.827 3.827 0 00-3.828-3.828h-3.829a3.827 3.827 0 00-3.828 3.828v3.829H5.742a3.827 3.827 0 00-3.828 3.828v11.484h94.172V21.055a3.827 3.827 0 00-3.828-3.828z" fill="#CEF"/><path d="M71.969 47.852C71.969 60.51 61.706 70.82 49 70.82c-12.708 0-22.969-10.312-22.969-22.968 0-12.66 10.263-22.97 22.969-22.97 12.708 0 22.969 10.313 22.969 22.97z" fill="#57555C"/><path d="M49 32.54c8.443 0 15.313 6.869 15.313 15.312S57.443 63.164 49 63.164c-8.443 0-15.313-6.87-15.313-15.312 0-8.443 6.87-15.313 15.313-15.313z" fill="#fff"/><path d="M76.945 26.797a1.915 1.915 0 10-.001-3.83 1.915 1.915 0 00.001 3.83z" fill="#000"/><path d="M92.258 15.313h-21.02l-6.07-12.138A5.712 5.712 0 0060.034 0H37.967a5.71 5.71 0 00-5.136 3.175l-6.069 12.137H22.97v-1.914a5.749 5.749 0 00-5.742-5.742h-3.829a5.749 5.749 0 00-5.742 5.742v1.915H5.742A5.749 5.749 0 000 21.055v53.593a5.749 5.749 0 005.742 5.743h86.516A5.749 5.749 0 0098 74.648V21.055a5.749 5.749 0 00-5.742-5.742zm-88.43 19.12h24.204a24.892 24.892 0 00-3.915 13.418 24.83 24.83 0 003.914 13.398H3.828V34.434zm24.117 13.418c0-11.715 9.53-21.055 21.055-21.055 11.51 0 21.055 9.325 21.055 21.055 0 11.716-9.532 21.054-21.055 21.054-11.534 0-21.055-9.348-21.055-21.054zm45.938 0a24.82 24.82 0 00-3.915-13.399h24.204V61.25H69.968a24.827 24.827 0 003.915-13.398zM36.255 4.887a1.904 1.904 0 011.712-1.059h22.066c.73 0 1.385.406 1.712 1.059l5.213 10.425H31.042l5.213-10.425zm-24.77 8.511c0-1.055.858-1.914 1.913-1.914h3.829c1.055 0 1.914.859 1.914 1.914v1.915h-7.657v-1.915zm-5.743 5.743h86.516c1.055 0 1.914.858 1.914 1.914v9.57H66.949A24.899 24.899 0 0049 22.969a24.9 24.9 0 00-17.95 7.656H3.829v-9.57c0-1.056.859-1.914 1.914-1.914zm86.516 57.422H5.742a1.916 1.916 0 01-1.914-1.915v-9.57h27.223A24.9 24.9 0 0049 72.734a24.898 24.898 0 0017.95-7.656h27.222v9.57a1.916 1.916 0 01-1.914 1.915z" fill="#000"/><path d="M54.742 7.656H43.258a1.914 1.914 0 100 3.828h11.484a1.914 1.914 0 000-3.828zM49 65.078c9.499 0 17.227-7.728 17.227-17.226 0-9.5-7.728-17.227-17.227-17.227s-17.227 7.728-17.227 17.227c0 9.498 7.728 17.226 17.227 17.226zm0-30.625c7.388 0 13.398 6.01 13.398 13.399 0 7.388-6.01 13.398-13.398 13.398s-13.398-6.01-13.398-13.398S41.612 34.453 49 34.453z" fill="#000"/><path d="M41.344 49.766a1.914 1.914 0 001.914-1.914A5.749 5.749 0 0149 42.109a1.914 1.914 0 000-3.828c-5.277 0-9.57 4.294-9.57 9.57 0 1.058.857 1.915 1.914 1.915zm43.258-22.969h3.828a1.914 1.914 0 000-3.828h-3.828a1.914 1.914 0 000 3.828z" fill="#000"/></svg>