<svg width="97" height="96" fill="none" xmlns="http://www.w3.org/2000/svg"><path d="M88.845 29.44a16.914 16.914 0 01-6.282 1.216c-9.392 0-17.032-7.64-17.032-17.031 0-2.22.44-4.336 1.216-6.281A44.087 44.087 0 0048.5 3.406c-24.455 0-44.281 19.826-44.281 44.282a44.144 44.144 0 003.4 17.03h20.444V51.095h13.625V71.53H48.5v13.815c0 1.578.373 3.157 1.08 4.57l1 2c23.489-1.087 42.201-20.47 42.201-44.228a44.112 44.112 0 00-3.936-18.248z" fill="#FA6450"/><path d="M81.839 30.62c-8.812-.373-15.897-7.46-16.27-16.27A37.217 37.217 0 0048.5 10.22c-20.66 0-37.469 16.808-37.469 37.468 0 6.132 1.49 11.917 4.112 17.032h12.92V51.094h13.625V71.53H48.5v13.625c20.66 0 37.469-16.808 37.469-37.469a37.224 37.224 0 00-4.13-17.066z" fill="#F0F0F0"/><path d="M65.531 48.54H47.648V27.25h1.704v19.586h16.18v1.703z" fill="#505050"/><path d="M48.5 51.094a3.405 3.405 0 01-3.406-3.407 3.405 3.405 0 013.406-3.406 3.405 3.405 0 013.406 3.407 3.405 3.405 0 01-3.406 3.406z" fill="#FA6450"/><path d="M82.563 27.25c7.524 0 13.624-6.1 13.624-13.625S90.088 0 82.564 0c-7.525 0-13.626 6.1-13.626 13.625s6.1 13.625 13.626 13.625z" fill="#3CC8B4"/><path d="M72.344 13.625c0-6.947 5.203-12.668 11.922-13.507A13.704 13.704 0 0082.562 0c-7.524 0-13.624 6.1-13.624 13.625 0 7.524 6.1 13.625 13.624 13.625.578 0 1.145-.048 1.704-.117-6.72-.84-11.922-6.561-11.922-13.508z" fill="#1EAA96"/><path d="M91.078 10.219L80.86 20.438l-6.812-6.813 3.406-3.406 3.406 3.406 6.813-6.813 3.406 3.407z" fill="#F0F0F0"/><path d="M47.648 13.625h1.704v3.406h-1.704v-3.406zm31.508 33.211h3.406v1.703h-3.406v-1.703zm-64.718 0h3.406v1.703h-3.407v-1.703zm55.12 23.094l1.205-1.205 2.408 2.409-1.204 1.204-2.409-2.409zM23.805 24.189l1.205-1.205 2.408 2.409-1.204 1.204-2.409-2.409zm14.476 50.749V54.5H31.47v20.438h-6.813v6.812h20.438v-6.813H38.28z" fill="#505050"/><path d="M24.656 74.938h3.407v6.812h-3.407v-6.813z" fill="#3C3C3C"/><path d="M46.533 91.44a13.616 13.616 0 01-1.44-6.095V81.75H24.657v3.595c0 2.116-.492 4.202-1.439 6.094l-1.967 3.936H48.5l-1.967-3.936z" fill="#FAB400"/><path d="M28.063 85.345V81.75h-3.407v3.595c0 2.116-.492 4.202-1.439 6.094l-1.967 3.936h3.406l1.967-3.936a13.616 13.616 0 001.44-6.094z" fill="#DC9600"/><path d="M30.617 85.156h1.703v10.219h-1.703V85.156zm6.813 0h1.703v10.219H37.43V85.156z" fill="#505050"/><path d="M31.469 54.5h3.406v20.438h-3.406V54.5z" fill="#3C3C3C"/><path d="M21.25 85.345V74.938H4.219l2.93 17.591a3.408 3.408 0 003.361 2.846h6.93l2.73-5.459a10.262 10.262 0 001.08-4.57z" fill="#FA6450"/><path d="M10.556 92.53L7.625 74.936H4.219l2.93 17.592a3.408 3.408 0 003.361 2.846h3.406a3.408 3.408 0 01-3.36-2.846zm40.007-.648c.446-.024.899-.022 1.343-.056-.485-.038-.964-.092-1.444-.145l.1.201zM14.438 64.719a44.11 44.11 0 01-3.407-17.031c0-23.31 18.013-42.398 40.875-44.139a45.061 45.061 0 00-3.406-.143c-24.455 0-44.281 19.826-44.281 44.282a44.144 44.144 0 003.4 17.03h6.819z" fill="#DC4632"/><path d="M24.656 71.531h3.407v-3.406H4.218a3.405 3.405 0 100 6.813H21.25V71.53h3.406z" fill="#BE2814"/></svg>