<svg width="88" height="88" fill="none" xmlns="http://www.w3.org/2000/svg"><g clip-path="url(#clip0_541_901)"><path d="M4.93 83.604a9.151 9.151 0 010-12.94l21.237-21.237 12.94 12.94-21.236 21.237a9.15 9.15 0 01-12.941 0z" fill="#FF6977"/><path d="M63.045 34.089L36.936 60.196l-8.597-8.597L54.447 25.49l8.598 8.598z" fill="#EFF3F3"/><path d="M40.645 14.404l-3.714-3.714 4.43-4.43c6.05-6.05 15.86-6.05 21.91 0l13.8 13.8-1.357 2.49 2.755 2.755 3.042-.804 3.983 3.982a2.687 2.687 0 010 3.8l-8.305 8.305a2.687 2.687 0 01-3.8 0l-3.982-3.983.804-3.042-2.755-2.755-4.412 3.28-8.598-8.597c2-2 2-5.24 0-7.24L50.6 14.404a7.04 7.04 0 00-9.955 0z" fill="#8690A6"/><path d="M83.598 83.598a9.15 9.15 0 000-12.941L60.95 48.01 48.01 60.951l22.646 22.647a9.15 9.15 0 0012.94 0z" fill="#FFCB7C"/><path d="M41.874 50.91l9.037-9.035a2.761 2.761 0 013.904 0l6.136 6.135-12.94 12.941-6.137-6.135a2.761 2.761 0 010-3.905z" fill="#fff"/><path d="M49.628 43.157l-6.47 6.47L11.127 17.6l6.471-6.47 32.029 32.028z" fill="#EFF3F3"/><path d="M1.719 6.302L6.302 1.72l8.38 4.604 2.916 4.805-6.47 6.47-4.805-2.917-4.603-8.38z" fill="#8690A6"/><path d="M62.168 46.796h-.002l-4.699-4.7 6.704-6.704 3.12-2.32 1.006 1.007-.552 2.086a1.72 1.72 0 00.446 1.655l3.984 3.983a4.374 4.374 0 003.114 1.29 4.376 4.376 0 003.116-1.29l8.305-8.305A4.375 4.375 0 0088 30.382a4.373 4.373 0 00-1.29-3.114l-3.983-3.983a1.719 1.719 0 00-1.655-.447l-2.086.552-1.147-1.147.742-1.36c.365-.67.245-1.5-.294-2.038L64.485 5.043c-6.71-6.71-17.629-6.71-24.339 0l-4.43 4.431a1.718 1.718 0 000 2.43l3.713 3.715a1.722 1.722 0 002.431 0 5.287 5.287 0 013.763-1.559c1.42 0 2.757.554 3.762 1.559l3.846 3.846a3.404 3.404 0 010 4.81L43.204 34.301 18.96 10.058l-2.81-4.626a1.717 1.717 0 00-.64-.615L7.13.213a1.718 1.718 0 00-2.044.29L.504 5.088c-.54.54-.66 1.373-.291 2.043l4.604 8.38c.145.263.357.484.615.64l4.627 2.81 24.244 24.244-5.964 5.964-.957-.956a1.718 1.718 0 00-2.43 0L3.715 69.448c-4.238 4.238-4.238 11.134 0 15.372a10.836 10.836 0 007.686 3.178 10.84 10.84 0 007.686-3.178l21.237-21.237a1.718 1.718 0 000-2.43l-.956-.957 2.728-2.728 12.17 12.17a1.72 1.72 0 002.431-2.43l-6.256-6.257 10.51-10.51 21.432 21.431a7.383 7.383 0 012.177 5.255 7.383 7.383 0 01-2.177 5.256c-2.897 2.897-7.613 2.897-10.51 0l-4.238-4.237a1.718 1.718 0 10-2.43 2.43l4.237 4.237a10.836 10.836 0 007.686 3.178c2.784 0 5.567-1.06 7.686-3.178a10.798 10.798 0 003.183-7.685c0-2.903-1.13-5.633-3.184-7.686L62.168 46.796zM43.09 53.6a1.043 1.043 0 010-1.474l1.282-1.283 6.47-6.47 1.284-1.283c.197-.197.458-.306.737-.306.278 0 .54.109.736.306l4.921 4.92-10.51 10.51-4.92-4.92zM13.559 17.598l4.04-4.04 29.598 29.6-4.04 4.04-29.598-29.6zm38.257-4.41c-3-2.998-7.65-3.364-11.051-1.095L39.36 10.69l3.216-3.215c5.37-5.37 14.108-5.37 19.478 0l12.893 12.892-.742 1.36a1.718 1.718 0 00.293 2.038l2.755 2.755a1.718 1.718 0 001.655.446l2.087-.552 3.283 3.285a.961.961 0 01.284.684c0 .258-.101.5-.284.684l-8.305 8.305a.959.959 0 01-.684.284.959.959 0 01-.684-.284L71.32 36.09l.552-2.087a1.72 1.72 0 00-.446-1.655l-2.755-2.754a1.718 1.718 0 00-2.24-.165l-3.222 2.395-6.487-6.487c1.54-2.62 1.186-6.054-1.061-8.3l-3.846-3.847zm2.63 14.733l3.084 3.084 3.084 3.083-5.737 5.737a4.457 4.457 0 00-2.014-.478 4.452 4.452 0 00-3.168 1.312l-.067.067-3.994-3.992 8.813-8.813zM3.847 6.605l2.76-2.759 6.845 3.762 1.978 3.26-4.563 4.561-3.258-1.978-3.762-6.846zm12.81 75.784c-2.897 2.898-7.613 2.898-10.51 0-2.898-2.897-2.898-7.612 0-10.51l20.02-20.021.955.955.002.001 8.598 8.598.956.956-20.021 20.021zM30.769 51.6l5.964-5.964 3.993 3.993-.068.068a4.488 4.488 0 00-.833 5.18l-2.89 2.89-6.166-6.167z" fill="#000"/><path d="M60.951 72.173a1.73 1.73 0 00-1.215.503 1.721 1.721 0 001.215 2.934 1.723 1.723 0 001.719-1.718c0-.453-.184-.894-.504-1.216a1.731 1.731 0 00-1.215-.503z" fill="#000"/></g><defs><clipPath id="clip0_541_901"><path fill="#fff" d="M0 0h88v88H0z"/></clipPath></defs></svg>