<svg width="90" height="90" fill="none" xmlns="http://www.w3.org/2000/svg"><g clip-path="url(#clip0_541_870)"><path d="M62.626 37.227l1.516-4.85s2.667-.74 4.074 2.129c1.407 2.869-2.274 8.763-5.45 9.259-.88-2.245-.14-6.538-.14-6.538zm-35.448 0l-1.516-4.85s-2.667-.74-4.074 2.129c-1.407 2.869 2.274 8.763 5.45 9.259.88-2.245.14-6.538.14-6.538zm7.091 15.519h21.463v26.397H34.269V52.746z" fill="#FAD5B1"/><path d="M34.269 52.746v3.632s4.205 9.599 12.686 9.599c4.07 0 6.915-1.6 8.776-3.262v-9.97H34.27z" fill="#E2B691"/><path d="M64.058 37.24c.007-.203.01-.406.01-.608 0-12.594 3.675-26.802-18.68-27.01-.103-.003-.5-.006-.5-.006l-.501.005c-22.356.21-18.68 14.417-18.68 27.01 0 .203.003.406.01.608.006.203-.023 9.372 1.361 11.716 1.385 2.343 9.585 13.05 17.36 13.05.007-.007.905-.007.912 0 7.775 0 15.976-10.707 17.36-13.05 1.384-2.344 1.362-11.715 1.362-11.715h-.014z" fill="#FAD5B1"/><path d="M23.403 32.614c1.33-.319 2.89 1.782 3.332 3.197.796-1.531-.27-6.643 1.86-8.348-.212-2.982.057-10.224 5.673-11.928 3.06 2.343 13.924 4.26 22.87 0 2.981 1.704 5.111 8.734 4.26 13.632.639 2.13 1.718 3.703 1.498 6.644l.38.468s-.012-4.327 2.424-3.902c.866-2.904.596-7.044 1.022-8.18.427-1.136.823-7.526-1.292-8.662C63.315 14.4 60.19 8.01 58.912 7.3c-1.277-.71-4.97 1.136-6.816 0S45.28 3.75 39.6 6.164c-5.111-.142-8.662-.478-10.934 3.453-2.271 3.93-3.853 6.203-5.263 8.19-1.41 1.988 0 14.807 0 14.807z" fill="#240703"/><path d="M63.716 32.947a.592.592 0 00-.664-.506l-2.122.288a1.766 1.766 0 00-.392-.425c-.302-.227-1.668-.967-6.544-.967-3.81 0-6.028.505-6.93 1.583-1.993-.779-3.615-.45-4.447-.16-.984-.968-3.163-1.424-6.777-1.424-4.875 0-6.24.74-6.544.967a1.787 1.787 0 00-.396.433l-2.178-.295a.59.59 0 00-.159 1.17l1.873.253a6.99 6.99 0 00-.138.743c-.237 1.81.02 4.32.86 5.39.656.835 2.239 1.223 4.98 1.223 1.41 0 3.097-.104 5.013-.308 1.462-.156 2.628-1.055 3.372-2.599.72-1.497.898-3.37.656-4.498.684-.205 1.919-.392 3.438.196-.184 1.14.013 2.89.694 4.303.744 1.543 1.91 2.442 3.372 2.598 1.915.204 3.602.308 5.013.308 2.74 0 4.323-.388 4.98-1.223.84-1.07 1.097-3.581.86-5.39a6.964 6.964 0 00-.14-.751l1.814-.246a.589.589 0 00.506-.663zm-22.563 4.81c-.516 1.023-1.242 1.591-2.158 1.689-1.864.199-3.498.3-4.856.3-3.142 0-3.733-.55-3.82-.66-.444-.565-.784-2.56-.557-4.286.119-.91.343-1.258.42-1.316.553-.414 3.367-.671 5.659-.671 4.763 0 5.676.853 5.842 1.113.217.372.242 2.301-.53 3.83zm18.362 1.329c-.086.11-.677.66-3.82.66-1.358 0-2.992-.102-4.855-.3-.916-.098-1.642-.666-2.159-1.69-.771-1.528-.747-3.459-.53-3.83.166-.261 1.08-1.114 5.843-1.114 2.29 0 5.106.257 5.66.672.076.056.3.405.42 1.315.225 1.726-.115 3.722-.559 4.287z" fill="#0A0A0A"/><path d="M26.088 23.175c0 .844-.678 1.528-1.514 1.528h-2.22a1.521 1.521 0 01-1.513-1.528v-4.737a1.52 1.52 0 011.513-1.528h2.22c.836 0 1.514.684 1.514 1.528v4.737zm43.041 0c0 .844-.678 1.528-1.514 1.528h-2.22a1.521 1.521 0 01-1.514-1.528v-4.737c0-.844.678-1.528 1.514-1.528h2.22c.836 0 1.514.684 1.514 1.528v4.737z" fill="#FCAF50"/><path d="M44.895 1.324h-.034c-7.67 0-23.135 4.177-22.933 23.023 4.945-.102 40.955-.102 45.9 0C68.03 5.501 52.564 1.324 44.895 1.324z" fill="#FDCB59"/><path d="M46.896 16.91a2.028 2.028 0 01-2.018 2.038 2.028 2.028 0 01-2.018-2.038V2.037C42.86.912 43.764 0 44.878 0c1.115 0 2.018.912 2.018 2.037V16.91zm9.789-4.074a2.028 2.028 0 01-2.018 2.037 2.028 2.028 0 01-2.018-2.037V3.769c0-1.125.904-2.037 2.018-2.037 1.115 0 2.018.912 2.018 2.037v9.067zm-19.477 0a2.028 2.028 0 01-2.018 2.037 2.028 2.028 0 01-2.018-2.037V3.769c0-1.125.904-2.037 2.018-2.037 1.115 0 2.018.912 2.018 2.037v9.067z" fill="#FCAD4F"/><path d="M69.482 22.921c-4.29-.764-17.786-1.044-24.604-1.044-6.817 0-20.315.28-24.604 1.044-.706.153-.946.764-.688 2.16.151 1.07.234 1.711 1.244 1.61 1.009-.103 18.377-1.121 24.048-1.121 5.67 0 23.04 1.018 24.049 1.12 1.009.102 1.092-.539 1.243-1.608.258-1.397.018-2.008-.688-2.16z" fill="#FCAE4F"/><path d="M78.123 80.431c-.4-9.951-8.057-12.25-12.656-12.73-1.262-.132-4.98-.126-7.54-.105l.002-.006c-1.487.013-2.586.031-2.586.031-.194 3.332-4.21 3.309-10.4 3.428-6.19-.12-10.624-.849-10.624-3.428 0 0-.996-.017-2.365-.03l.003.007c-2.464-.023-6.141-.03-7.424.103-4.599.48-12.257 2.778-12.656 12.73-.344 2.482 0 6.027 0 6.027s11.193 3.426 32.346 3.54c.158.003 1.396.003 1.554 0 21.154-.114 32.346-3.54 32.346-3.54s.344-3.545 0-6.027z" fill="#262626"/><path d="M44.944 71.05l6.595 5.178 6.477-8.84.423.604-6.9 9.234L45 71.642l-.056-.593zm-.042-.103l-6.51 5.28-6.476-8.838-.423.603 6.9 9.234L45 71.642l-.098-.695z" fill="#0C0C0C"/><path d="M44.944 71.05l-10.661-7.184-2.531 3.709 6.596 8.957 6.596-5.483zm0 0l10.802-7.184 2.39 3.709-6.597 8.957-6.595-5.483z" fill="#262626"/><path d="M70.26 68.823c-1.686-.656-3.382-.975-4.79-1.122-1.062-.11-3.862-.124-6.25-.113 0 0-2.581 12.647-14.247 21.057a5.721 5.721 0 01-.005.02l-.011-.008-.012.008-.005-.02c-11.665-8.41-14.247-21.056-14.247-21.057-2.317-.012-5.08 0-6.158.113-1.424.149-3.142.473-4.847 1.144 1.695 3.661 3.967 12.516 2.942 19.713 5.309.734 12.535 1.391 21.596 1.44.158.003 1.396.003 1.553 0 9.023-.049 16.227-.7 21.53-1.43-1.03-7.214 1.254-16.095 2.95-19.745z" fill="#F05C38"/><path d="M24.508 67.692c-.387.041-.797.096-1.22.166.511 1.932 3.715 13.871 6.74 21.512 1.915.164 3.972.305 6.18.41-4.404-7.936-8.858-22.186-8.86-22.193-1.21.014-2.266.046-2.84.105zm40.935.001c-.609-.064-1.787-.095-3.131-.108l-.001.002s-4.461 14.27-8.867 22.207c2.203-.102 4.261-.238 6.177-.398 3.051-7.7 6.288-19.79 6.762-21.582a20.24 20.24 0 00-.94-.121z" fill="#FDCB59"/></g><defs><clipPath id="clip0_541_870"><path fill="#fff" d="M0 0h90v90H0z"/></clipPath></defs></svg>