<svg width="95" height="95" fill="none" xmlns="http://www.w3.org/2000/svg"><path d="M13.207 87.596H9.54a8.149 8.149 0 01-8.15-8.149V9.541a8.15 8.15 0 018.15-8.15h3.666v86.205z" fill="#964F09"/><path d="M61.661 87.596H13.207V1.392H61.66a3.663 3.663 0 013.663 3.662v78.88a3.663 3.663 0 01-3.663 3.662z" fill="#E68D35"/><path d="M61.661 1.392H54.24a3.663 3.663 0 013.662 3.662v78.88a3.663 3.663 0 01-3.662 3.662h7.421a3.663 3.663 0 003.663-3.663V5.054a3.663 3.663 0 00-3.663-3.662z" fill="#D47619"/><path d="M65.327 82.55H9.976A3.675 3.675 0 016.3 78.875v-3.914a3.675 3.675 0 013.676-3.675h55.351V82.55z" fill="#fff"/><path d="M20.672 87.633l-7.465 5.975V77.04h7.465v10.593z" fill="#73A4FF"/><path d="M24.7 13.631h29.132v19.32H24.7V13.63z" fill="#fff"/><path d="M82.26 93.609H48.329a3.005 3.005 0 01-3.005-3.005v-.002a3.005 3.005 0 013.005-3.005H82.26a3.005 3.005 0 013.005 3.005v.001a3.005 3.005 0 01-3.005 3.006z" fill="#73A4FF"/><path d="M82.261 87.596h-7.422a3.005 3.005 0 013.005 3.005v.002a3.005 3.005 0 01-3.005 3.005h7.422a3.005 3.005 0 003.005-3.005v-.001a3.005 3.005 0 00-3.005-3.006z" fill="#5C95FF"/><path d="M77.648 87.605H52.94v-.001a6.304 6.304 0 016.304-6.304h12.099a6.304 6.304 0 016.304 6.304v.001z" fill="#FFD52B"/><path d="M71.344 81.3h-7.422a6.304 6.304 0 016.304 6.303v.002h7.422v-.002a6.304 6.304 0 00-6.304-6.304z" fill="#FCCA00"/><path d="M68.326 81.21h-6.063V42.007a3.031 3.031 0 116.063 0v39.201z" fill="#73A4FF"/><path d="M75.459 55.282H55.13v-.002c0-5.517 4.472-9.989 9.989-9.989h.351c5.517 0 9.989 4.473 9.989 9.989v.002z" fill="#FFD52B"/><path d="M65.47 45.291h-.352a9.96 9.96 0 00-3.535.646c3.772 1.428 6.454 5.072 6.454 9.343v.002h7.422v-.002c0-5.517-4.472-9.989-9.989-9.989z" fill="#FCCA00"/><path d="M51.96 75.024H40.011a3.032 3.032 0 010-6.066h11.947a3.032 3.032 0 010 6.066z" fill="#FFD52B"/><path d="M51.96 68.959h-7.422a3.032 3.032 0 010 6.065h7.422a3.032 3.032 0 000-6.066z" fill="#FCCA00"/><path d="M90.577 75.024H78.629a3.032 3.032 0 010-6.066h11.948a3.032 3.032 0 010 6.066z" fill="#FFD52B"/><path d="M90.577 68.959h-7.422a3.032 3.032 0 010 6.065h7.422a3.032 3.032 0 000-6.066z" fill="#FCCA00"/><path d="M89.813 54.069H40.775a1.392 1.392 0 000 2.783h49.038a1.392 1.392 0 000-2.783z" fill="#FFD52B"/><path d="M53.832 34.343c.768 0 1.392-.623 1.392-1.392v-19.32c0-.768-.623-1.391-1.392-1.391H24.699c-.768 0-1.392.623-1.392 1.391v19.32c0 .769.624 1.392 1.392 1.392h29.133zm-27.741-19.32h26.35v16.536H26.09V15.023z" fill="#060606"/><path d="M90.92 67.581l-4.266-10.73h3.16a1.392 1.392 0 000-2.782h-13.03c-.451-4.247-3.249-7.802-7.068-9.344v-2.717a4.43 4.43 0 00-3.001-4.188V5.054A5.06 5.06 0 0061.66 0H9.54C4.28 0 0 4.28 0 9.54v6.788a1.392 1.392 0 102.783 0V9.54A6.765 6.765 0 019.54 2.783h2.275v67.112h-1.84a5.073 5.073 0 00-5.066 5.067v3.913a5.073 5.073 0 005.067 5.067h1.84v2.263H9.54a6.765 6.765 0 01-6.757-6.758V23.38a1.392 1.392 0 00-2.783 0v56.068c0 5.261 4.28 9.54 9.54 9.54h2.275v4.621c0 1.14 1.356 1.812 2.261 1.087l7.13-5.707H44.24C43.12 91.815 45.276 95 48.328 95h23.477a1.392 1.392 0 000-2.783H48.328c-2.019 0-2.111-3.23 0-3.23H82.26c2.019 0 2.111 3.23 0 3.23h-3.04a1.392 1.392 0 000 2.783h3.04c5.657 0 5.667-8.795 0-8.795h-3.35c-.66-3.578-3.8-6.297-7.566-6.297h-1.627V56.852h12.835l-4.265 10.73a4.429 4.429 0 00-4.08 4.41 4.429 4.429 0 004.422 4.424h11.948A4.429 4.429 0 0095 71.99a4.429 4.429 0 00-4.08-4.41zm-30.05 2.314h-5.018a4.429 4.429 0 00-3.551-2.314l-4.266-10.73H60.87v13.044zm-20.86.455h11.95a1.643 1.643 0 010 3.282H40.012a1.642 1.642 0 010-3.282zm2.66-2.783l3.315-8.34 3.315 8.34h-6.63zM73.954 53.89h-17.32c.666-4.082 4.217-7.208 8.485-7.208 4.285-.071 8.135 2.913 8.836 7.208zm-7.02-9.893a13.44 13.44 0 00-3.28 0v-1.99c0-.903.735-1.639 1.64-1.639.904 0 1.64.736 1.64 1.64v1.989zM14.597 2.783H61.66a2.274 2.274 0 012.272 2.271V37.8a4.43 4.43 0 00-3.062 4.208v2.717c-3.818 1.542-6.615 5.096-7.067 9.344H40.775a1.392 1.392 0 000 2.783h3.16l-4.265 10.73a4.43 4.43 0 00-3.552 2.313h-21.52V2.783zm0 75.65h4.682v8.532l-4.682 3.747v-12.28zm7.466 7.772v-2.263h30.414a7.638 7.638 0 00-.799 2.263H22.064zm53.99 0H54.535a4.921 4.921 0 014.71-3.514h12.098a4.921 4.921 0 014.71 3.514zm-16.809-6.297c-1.548 0-2.99.46-4.198 1.25H22.064V77.04c0-.768-.623-1.391-1.392-1.391h-7.465c-.769 0-1.392.623-1.392 1.391v4.119h-1.84a2.286 2.286 0 01-2.283-2.284v-3.913a2.286 2.286 0 012.284-2.284h25.666a4.43 4.43 0 004.37 3.738h11.947a4.43 4.43 0 004.37-3.738h4.542v7.23h-1.626zm7.69-.09h-3.28V56.851h3.28v22.965zm20.984-12.251h-6.631l3.315-8.34 3.316 8.34zm2.658 6.066H78.629a1.642 1.642 0 010-3.283h11.948a1.643 1.643 0 010 3.283z" fill="#060606"/></svg>