<svg width="28" height="24" fill="none" xmlns="http://www.w3.org/2000/svg"><g clip-path="url(#clip0_15_159)"><path d="M10.348 22.925c-.2.739-.63 1.074-1.361 1.074-2.38.003-4.759 0-7.139 0-.496 0-.932-.162-1.324-.446-.324-.234-.457-.559-.46-.95-.02-2.143-.058-4.287-.064-6.43-.003-1.258.037-2.517.068-3.776.025-1.005.893-1.822 1.916-1.82 2.537.001 5.076 0 7.614.011.22 0 .37-.06.49-.233.632-.914 1.266-1.825 1.897-2.738.235-.34.44-.706.707-1.018.742-.865.829-1.848.662-2.912a21.215 21.215 0 01-.198-2.063c-.025-.403.174-.727.498-.991 1.021-.836 2.466-.848 3.649 0 1.336.957 2.006 2.296 2.233 3.864.198 1.368-.002 2.708-.362 4.032-.023.088-.047.176-.069.265-.003.017 0 .036 0 .09h.293l6.047-.003c1.28-.001 2.317.785 2.52 1.942.146.818-.175 1.504-.726 2.098-.133.144-.16.255-.113.45.257 1.038-.034 1.967-.658 2.808-.139.187-.2.34-.17.586.13 1.057-.138 2.021-.797 2.881a.6.6 0 00-.12.413c.307 1.87-1.038 3.024-2.598 3.156-1.01.087-2.032.05-3.049.053-2.65.005-5.3-.002-7.95.004-.503.001-.982-.06-1.436-.347zm15.05-6.167h-.348c-1.4.002-2.8.003-4.2.002-.168 0-.34.011-.503-.018-.236-.044-.38-.194-.366-.443.013-.244.157-.383.404-.41.102-.012.205-.009.308-.009 1.55.001 3.098.003 4.648-.002.1 0 .24-.027.297-.094.523-.627.795-1.33.635-2.155-.043-.22-.147-.29-.378-.287-1.474.01-2.95.005-4.425.004-.47 0-.7-.15-.69-.45.008-.289.226-.425.687-.425 1.568-.002 3.136 0 4.704-.005.109 0 .239-.001.322-.055.641-.42.796-1.467.308-2.054-.363-.435-.845-.601-1.41-.6-2.155.005-4.311.003-6.467.004-.865 0-.962-.117-.75-.928.324-1.23.617-2.463.526-3.748-.087-1.198-.456-2.29-1.293-3.192-.577-.622-1.26-1.062-2.17-1.006-.835.052-1.26.5-1.19 1.298.058.662.16 1.321.25 1.98.13.965-.083 1.845-.667 2.64-.276.377-.543.764-.802 1.154-.758 1.149-1.464 2.332-2.404 3.357a.464.464 0 00-.096.297c-.006 3.33-.006 6.66-.003 9.991 0 .085.013.2.068.252.306.288.65.533 1.1.533 3.602.003 7.204.004 10.807 0 .542-.002 1.054-.131 1.508-.435.625-.419.9-1.262.61-1.889H20.87c-.466 0-.933.006-1.4-.006-.254-.007-.434-.188-.431-.415.002-.241.136-.392.38-.438.09-.017.184-.017.277-.017 1.587-.001 3.173.001 4.76-.006.118 0 .284-.031.345-.11.53-.674.715-1.44.597-2.315zm-15.99-5.3h-.375c-2.333-.001-4.665-.004-6.998-.006-.595 0-1.07.438-1.072 1.018-.007 3.31-.008 6.62-.007 9.93.002.42.076.516.488.65.137.046.29.065.438.068.457.01.914.004 1.37.005H8.99c.344 0 .433-.089.434-.42V11.786c0-.098-.01-.196-.016-.327z" fill="#fff"/></g><defs><clipPath id="clip0_15_159"><path fill="#fff" d="M0 0h28v24H0z"/></clipPath></defs></svg>