<svg width="73" height="89" fill="none" xmlns="http://www.w3.org/2000/svg"><path d="M1.452 88.033l2.42-17.609c.306-2.42 1.847-9.38 5.203-11.841A19.269 19.269 0 0112.3 56.8l1.202-.516v13.092l-.532.193c-1.774.654-3.51 1.557-3.51 4.84V86.3c0 .223.182.403.404.403h52.577a.41.41 0 00.403-.403V74.393c0-3.227-1.661-4.082-3.517-4.76l-.532-.192V56.316l1.145.532c1.1.483 2.153 1.066 3.146 1.743 4.034 2.936 5.195 11.752 5.211 11.841l2.42 17.61-69.266-.009z" fill="#08627C"/><path d="M69.807 88.033H2.372L4.686 70.53c.3-2.371 1.775-9.018 4.88-11.293a18.836 18.836 0 013.13-1.718v11.293c-1.782.653-4.033 1.718-4.033 5.582v11.89c0 .668.542 1.21 1.21 1.21h52.57a1.21 1.21 0 001.21-1.21v-11.89c0-3.864-2.268-4.84-4.034-5.517V57.583a18.925 18.925 0 013.009 1.661c3.097 2.267 4.573 8.922 4.88 11.293l2.299 17.496z" fill="#08627C"/><path d="M10.277 86.04V74.555c0-4.46 3.541-5.001 3.686-5.017a.404.404 0 00.355-.404V56.14l.516-.202a81.42 81.42 0 014.163-1.476l1.056-.347V69.57c0 .223.18.403.403.403h31.46c.222 0 .403-.18.403-.403V54.146l5.727 2.009v12.978a.412.412 0 00.347.404c.153 0 3.702.556 3.702 5.017v11.487H10.277zm47.341-11.639v-.556h-4.92v.556h4.92zm-37.968 0v-.556h-4.961v.556h4.96z" fill="#F66701"/><path d="M58.231 70.336a1.219 1.219 0 01-1.048-1.202V56.712l-4.154-1.428V69.57a1.21 1.21 0 01-1.21 1.21h-31.46a1.21 1.21 0 01-1.21-1.21V55.228c-1.379.451-2.79.943-4.121 1.46v12.446a1.21 1.21 0 01-1.049 1.202c-.299.04-2.993.564-2.993 4.218v10.68h50.246v-10.68c0-3.774-2.88-4.202-3-4.218zm-37.807 4.84h-6.542v-2.138h6.542v2.138zm37.969 0h-6.534v-2.138h6.534v2.138z" fill="#F66701"/><path d="M20.828 69.166V53.84l.572-.178a143.299 143.299 0 015.356-1.524l.508-.137 8.559 10.865c.074.099.19.155.314.154a.37.37 0 00.307-.146l8.518-10.841.597.161c1.065.29 3.057.807 5.364 1.525l.573.17v15.277H20.827z" fill="#08627C"/><path d="M50.609 54.493v13.866h-29.04V54.47c2.308-.71 4.292-1.242 5.324-1.517l8.3 10.414c.227.29.576.46.944.46.371.002.72-.172.944-.468l8.139-10.406c1.05.282 3.074.831 5.389 1.541z" fill="#08627C"/><path d="M27.82 51.444v-3.371l1.146.524a12.922 12.922 0 005.429 1.194h3.485c1.84 0 3.661-.39 5.34-1.146l1.137-.508v3.315L36.13 61.94l-8.31-10.495z" fill="#E6A964"/><path d="M43.55 49.379v1.79l-7.46 9.487-7.503-9.494v-1.83a13.8 13.8 0 005.768 1.265h3.484a13.868 13.868 0 005.712-1.218z" fill="#E6A964"/><path d="M53.029 33.246a2.073 2.073 0 01-2.074-2.072v-3.292a2.069 2.069 0 114.139 0v3.292a2.074 2.074 0 01-2.065 2.072z" fill="#FCC082"/><path d="M54.303 27.882v3.291a1.263 1.263 0 01-2.525 0v-3.291a1.263 1.263 0 012.525 0z" fill="#FCC082"/><path d="M37.04 1.594l.872.072a16.46 16.46 0 014.525 1l.517.202v6.913l-.13.202a6.752 6.752 0 01-4.84 2.888l-.92.128-.023-11.405z" fill="#D2590B"/><path d="M42.147 3.424v6.123a5.914 5.914 0 01-4.3 2.525v-9.6c1.471.113 2.92.433 4.3.952zm-6.865 9.446a6.728 6.728 0 01-4.84-2.887l-.128-.202V2.473l.572-.169a18.135 18.135 0 014.51-.694h.806V13l-.92-.13z" fill="#D2590B"/><path d="M35.428 2.417v9.679A5.946 5.946 0 0131.12 9.57V3.118c1.4-.416 2.848-.652 4.308-.701z" fill="#D2590B"/><path d="M19.239 33.246a2.073 2.073 0 01-2.073-2.072v-3.292a2.068 2.068 0 114.138 0v3.292a2.074 2.074 0 01-2.065 2.072z" fill="#FCC082"/><path d="M20.497 27.882v3.291a1.263 1.263 0 01-2.525 0v-3.291a1.262 1.262 0 012.525 0z" fill="#FCC082"/><path d="M21.513 26.06l-.234-.243a2.846 2.846 0 00-2.04-.855c-.179 0-.357.016-.533.049l-.436.08-.298-.323a2.013 2.013 0 01-.435-1.387v-1.476a2.686 2.686 0 01.515-1.662.983.983 0 01.742-.282h.468c.223 0 .404-.18.404-.404 0-.475.097-11.769 8.687-16.221l1.178-.613v7.13c0 .068.014.132.04.194.307.597 2.154 3.71 7.09 3.71 5.252 0 7.019-3.573 7.091-3.726a.479.479 0 000-.178V3.16l1.242.806c7.26 4.646 7.623 14.52 7.64 15.6a.404.404 0 00.395.412h.467a.96.96 0 01.807.33 2.82 2.82 0 01.476 1.662v1.428a1.97 1.97 0 01-.492 1.452l-.299.299-.42-.073a2.855 2.855 0 00-2.565.806l-.233.243-29.257-.065z" fill="#F66701"/><path d="M53.956 21.937v1.444c.036.314-.054.63-.25.88a3.516 3.516 0 00-.661-.065 3.677 3.677 0 00-2.622 1.057H21.852a3.652 3.652 0 00-3.291-1.033 1.274 1.274 0 01-.242-.88v-1.435a1.89 1.89 0 01.282-1.09s.049-.048.17-.048h.467a1.21 1.21 0 001.21-1.21c0-.564.162-11.293 8.252-15.503v5.808c0 .18.039.36.113.524.089.17 2.057 4.187 7.825 4.187 5.767 0 7.735-4.034 7.816-4.187a1.28 1.28 0 00.113-.525V4.634c7.09 4.534 7.26 14.391 7.26 14.932a1.21 1.21 0 001.202 1.201h.46c.12 0 .152 0 .168.049.213.334.317.725.3 1.121z" fill="#F66701"/><path d="M34.395 48.984c-6.78-.005-12.276-5.498-12.285-12.277v-8.825l-.137-.92.928-.096h27.425l-.137.92v8.872c.018 6.79-5.471 12.308-12.26 12.326h-3.534z" fill="#FCC082"/><path d="M49.374 27.672a1.23 1.23 0 000 .17v8.865c-.009 6.34-5.153 11.475-11.494 11.47h-3.485c-6.333-.009-11.464-5.137-11.478-11.47v-8.825a1 1 0 000-.17l26.457-.04z" fill="#FCC082"/><path d="M69.895 70.424c-.056-.395-1.282-9.599-5.864-12.906a25.086 25.086 0 00-4.904-2.54 1.17 1.17 0 00-.33-.178l-1.017-.355a71.619 71.619 0 00-4.639-1.613l-.92-.404a1.082 1.082 0 00-.282-.056c-2.556-.807-4.799-1.404-6-1.726v-2.67a13.865 13.865 0 005.807-11.293v-2.057c.405.152.834.231 1.266.234a3.686 3.686 0 003.679-3.686v-3.291a3.656 3.656 0 00-.92-2.42 3.698 3.698 0 00.573-2.09V21.97a4.123 4.123 0 00-.895-2.84 2.533 2.533 0 00-1.234-.702c-.291-3.331-1.864-13.124-10.31-16.939h-.072A18.257 18.257 0 0036.872.004h-.702a19.246 19.246 0 00-6.695 1.05h-.049c-9.34 3.436-11.034 13.873-11.333 17.334a2.59 2.59 0 00-1.234.702 4.138 4.138 0 00-.936 2.847v1.444c-.02.738.18 1.465.573 2.09a3.654 3.654 0 00-.92 2.42v3.29a3.686 3.686 0 003.686 3.687c.43-.004.856-.083 1.259-.234v2.073a13.866 13.866 0 005.71 11.196v2.743a117.392 117.392 0 00-12.76 4.097h-.065a26.59 26.59 0 00-5.243 2.678c-4.581 3.34-5.8 12.544-5.856 12.907L0 87.984h2.42l2.315-17.343c.299-2.371 1.775-9.018 4.88-11.293.974-.645 2.005-1.2 3.082-1.653v10.486c-1.783.653-4.034 2.484-4.034 6.348v11.89c0 .668.542 1.21 1.21 1.21h52.57a1.21 1.21 0 001.21-1.21V74.554c0-3.864-2.268-5.695-4.034-6.348V57.72a18.925 18.925 0 013.009 1.661c3.097 2.267 4.573 8.922 4.88 11.293l2.315 17.343h2.42l-2.348-17.593zM54.303 27.882v3.291a1.263 1.263 0 01-2.525 0v-3.29a1.263 1.263 0 012.525 0zM37.848 2.472c1.47.113 2.918.433 4.299.953v6.122a5.914 5.914 0 01-4.3 2.525v-9.6zm-6.728.606a17.224 17.224 0 014.308-.661v9.68A5.946 5.946 0 0131.12 9.57V3.078zM20.497 31.174a1.263 1.263 0 01-2.525 0v-3.292a1.262 1.262 0 012.525 0v3.291zm-1.258-6.978c-.228 0-.455.022-.678.064a1.274 1.274 0 01-.242-.879v-1.476c-.019-.383.08-.763.282-1.09 0 0 .049-.048.17-.048h.467a1.21 1.21 0 001.21-1.21c0-.564.162-11.292 8.252-15.503v5.808c0 .18.039.36.113.524.089.17 2.057 4.187 7.825 4.187 5.767 0 7.735-4.034 7.816-4.187a1.28 1.28 0 00.113-.524V4.635c7.09 4.533 7.26 14.39 7.26 14.93a1.21 1.21 0 001.202 1.202h.46c.12 0 .152 0 .168.049.207.336.306.728.283 1.121v1.444a1.2 1.2 0 01-.25.88 3.68 3.68 0 00-3.267.992H21.852a3.648 3.648 0 00-2.613-1.057zm3.678 12.511v-8.825a.995.995 0 000-.169h26.457a1.223 1.223 0 000 .17v8.824c-.008 6.34-5.153 11.475-11.494 11.47h-3.485c-6.333-.008-11.465-5.138-11.478-11.47zM43.55 49.379v1.79l-7.462 9.487-7.502-9.494v-1.831a13.8 13.8 0 005.768 1.266h3.484a13.87 13.87 0 005.712-1.218zm-21.917 5.09c2.307-.71 4.292-1.242 5.324-1.517l8.236 10.414a1.195 1.195 0 001.887-.008l8.14-10.406c1.04.283 3.065.807 5.42 1.541V68.36H21.602l.032-13.89zm39.598 20.085v10.68H11.083v-10.68c0-3.654 2.694-4.178 2.993-4.218a1.21 1.21 0 001.04-1.203V56.712a82.438 82.438 0 014.123-1.46v14.317c0 .668.542 1.21 1.21 1.21h31.458a1.21 1.21 0 001.21-1.21V55.284l4.066 1.428v12.421c.002.607.45 1.119 1.048 1.203.121.016 3.001.443 3.001 4.218z" fill="#000"/><path d="M13.882 73.038h6.542v2.17h-6.542v-2.17zm37.977 0h6.534v2.17h-6.534v-2.17z" fill="#000"/></svg>