<svg width="110" height="110" fill="none" xmlns="http://www.w3.org/2000/svg"><g clip-path="url(#clip0_480_791)"><path fill-rule="evenodd" clip-rule="evenodd" d="M75.12 32.731l-4.501 4.804 4.014 5.948c2.973.037 6.33-3.02 6.33-6.027v-2.344a2.388 2.388 0 00-2.376-2.381H75.12zm-47.155 0l2.815 4.548-2.328 6.204c-2.972.037-6.328-3.02-6.328-6.027v-2.344a2.388 2.388 0 012.382-2.381h3.459z" fill="#DE9376"/><path fill-rule="evenodd" clip-rule="evenodd" d="M96.002 108.316c5.726 0 6.232.584 4.149-6.29l-8.766-28.91c-2.035-6.288-7.261-6.988-13.122-8.772L63.23 59.776l-23.373.007-15.01 4.56c-5.86 1.785-11.086 2.485-13.121 8.774L2.96 102.026c-2.083 6.874-1.577 6.29 4.148 6.29h88.895z" fill="#55B8E6"/><path fill-rule="evenodd" clip-rule="evenodd" d="M53.587 63.929l3.685 9.049c.079.194.231.425.45.663 1.159 1.284 4.057 2.776 6.336-.201l8.193-10.923-9.022-2.74c-1.815 1.29-3.77 2.356-5.804 3.117-1.365.505-2.62.853-3.838 1.035z" fill="#507FCF"/><path fill-rule="evenodd" clip-rule="evenodd" d="M72.251 62.517L64.058 73.44c-2.279 2.977-5.177 1.486-6.336.2v9.712h18.592v-19.6l-4.063-1.235z" fill="#F59556"/><path fill-rule="evenodd" clip-rule="evenodd" d="M57.722 83.352h18.592v12.841H57.723v-12.84z" fill="#AAF589"/><path fill-rule="evenodd" clip-rule="evenodd" d="M26.771 63.76v19.592H45.37v-9.711c-1.163 1.284-4.063 2.776-6.341-.201L30.84 62.523l-4.07 1.236z" fill="#F59556"/><path fill-rule="evenodd" clip-rule="evenodd" d="M26.771 83.352H45.37v12.841h-18.6v-12.84z" fill="#AAF589"/><path fill-rule="evenodd" clip-rule="evenodd" d="M30.84 62.523l8.188 10.917c2.278 2.978 5.178 1.486 6.34.201.214-.237.373-.469.451-.663l3.68-9.048c-1.212-.183-2.455-.524-3.813-1.023-2.04-.761-4.002-1.826-5.83-3.124l-9.015 2.74z" fill="#507FCF"/><path fill-rule="evenodd" clip-rule="evenodd" d="M26.771 96.193v12.147c6.323.012 12.732.025 18.598.031V96.193H26.77zm30.951 0v12.178c5.86-.006 12.27-.019 18.592-.031V96.193H57.723z" fill="#F59556"/><path fill-rule="evenodd" clip-rule="evenodd" d="M28.05 40.178c0 6.697 4.947 14.74 11.806 19.605a.879.879 0 01.097.067c.007.006.013.012.019.012a26.488 26.488 0 005.092 2.8c.208.086.415.165.622.245 1.358.499 2.6.84 3.814 1.022a13.09 13.09 0 004.087 0c1.218-.182 2.473-.53 3.837-1.035 2.035-.761 3.99-1.827 5.806-3.118 6.858-4.858 11.805-12.907 11.805-19.598l.079-7.447-23.709-3.976-23.44 3.976.085 7.447z" fill="#FFD9B0"/><path fill-rule="evenodd" clip-rule="evenodd" d="M42.64 4.9c-8.18 3.195-14.174 10.788-15.106 19.88l23.873 3.975 23.708-3.976c-.926-9.066-6.89-16.634-15.033-19.85.036.214.054.433.054.664v6.869c0 2.18-1.785 3.97-3.972 3.97h-9.612a3.983 3.983 0 01-3.972-3.97V5.593c0-.237.019-.469.062-.694z" fill="#FFCC73"/><path fill-rule="evenodd" clip-rule="evenodd" d="M42.58 5.594v6.868c0 2.18 1.784 3.97 3.971 3.97h9.612a3.983 3.983 0 003.972-3.97V5.594c0-.232-.018-.451-.054-.664a3.984 3.984 0 00-3.918-3.306h-9.612a3.981 3.981 0 00-3.972 3.97z" fill="#F59556"/><path fill-rule="evenodd" clip-rule="evenodd" d="M28.05 40.178c0 6.697 4.947 14.74 11.806 19.605l.097.067c.007.006.013.012.019.012a26.493 26.493 0 005.092 2.8h.006c.207.086.409.165.616.244 1.358.5 2.6.84 3.814 1.023a13.09 13.09 0 004.087 0 16.58 16.58 0 001.985-.426 24.216 24.216 0 01-1.827-.597c-.207-.08-.414-.158-.622-.244a26.496 26.496 0 01-5.092-2.8l-.018-.012-.098-.067C41.056 54.918 36.11 46.875 36.11 40.178l-.086-7.447h-8.06l.087 7.447z" fill="#EBAB92"/><path fill-rule="evenodd" clip-rule="evenodd" d="M42.64 4.9c-8.18 3.195-14.174 10.788-15.106 19.88h6.189A23.997 23.997 0 0142.58 8.522V5.593c0-.237.019-.469.062-.694z" fill="#F59556"/><path fill-rule="evenodd" clip-rule="evenodd" d="M42.58 8.523v3.939c0 2.18 1.784 3.97 3.971 3.97h5.64a3.983 3.983 0 01-3.971-3.97V5.594a3.982 3.982 0 013.972-3.97h-5.64a3.981 3.981 0 00-3.973 3.97v2.929z" fill="#D65036"/><path fill-rule="evenodd" clip-rule="evenodd" d="M24.846 64.343c-5.86 1.785-11.086 2.484-13.121 8.774l-8.766 28.909c-2.083 6.874-1.577 6.29 4.148 6.29h.323c.178-.877.512-2.028.969-3.544l8.766-28.915c1.316-4.067 3.972-5.796 7.268-6.996a37.688 37.688 0 012.338-.755V63.76l-1.925.584z" fill="#507FCF"/><path fill-rule="evenodd" clip-rule="evenodd" d="M26.771 63.76v4.346c1.128-.334 2.31-.652 3.515-1.017l3.24-.986-2.686-3.58-4.069 1.236z" fill="#D65036"/><path fill-rule="evenodd" clip-rule="evenodd" d="M42.396 61.379c-.006-.007-.012-.007-.018-.013a26.49 26.49 0 01-2.358-1.467l-.005-.007a28.083 28.083 0 002.381 1.487zm2.57 1.242a25.267 25.267 0 01-2.551-1.236c-.006 0-.013 0-.019-.006a27.12 27.12 0 002.57 1.242zm-5.11-2.838l-9.015 2.74 2.686 3.58 11.44-3.482a20.724 20.724 0 01-.53-.225 25.219 25.219 0 01-2.022-1.011c-.006 0-.013 0-.019-.006a28.255 28.255 0 01-2.381-1.486c-.013-.012-.03-.018-.043-.03-.006 0-.012-.007-.019-.013a.891.891 0 00-.097-.067z" fill="#6052C4"/><path fill-rule="evenodd" clip-rule="evenodd" d="M27.533 24.78a2.713 2.713 0 00-2.704 2.703v2.544a2.71 2.71 0 002.704 2.704h47.746a2.71 2.71 0 002.704-2.704v-2.544a2.713 2.713 0 00-2.704-2.704H27.533z" fill="#F59556"/><path fill-rule="evenodd" clip-rule="evenodd" d="M24.829 27.483v2.544a2.71 2.71 0 002.704 2.704h6.176a2.714 2.714 0 01-2.686-2.704v-2.544a2.714 2.714 0 012.705-2.704h-6.195a2.713 2.713 0 00-2.704 2.704z" fill="#D65036"/><path d="M51.65 76.476h-.092a1.624 1.624 0 010-3.248h.092a1.623 1.623 0 010 3.248zm-.092 16.646h-.097a1.624 1.624 0 110-3.248h.097a1.624 1.624 0 010 3.248z" fill="#000"/><path d="M25.148 83.352v23.362c-6.324-.012-12.632-.022-18.04-.022-.452 0-.872.003-1.26.006-.892.009-1.881.017-2.386-.054.058-.862.692-2.958 1.051-4.148l8.761-28.893c1.528-4.688 5.045-5.693 9.91-7.083.637-.182 1.296-.372 1.963-.573v17.405zm54.19-45.896c0 .911-.532 1.981-1.423 2.86-.398.393-.84.723-1.296.977.025-.369.039-.734.039-1.099l.062-5.84h1.866c.408 0 .752.348.752.758v2.344zM46.551 3.247h9.612c1.206 0 2.201.914 2.333 2.085.001.01.003.02.003.032.008.075.012.151.012.23v6.868a2.35 2.35 0 01-2.348 2.345h-9.612a2.35 2.35 0 01-2.349-2.345V5.593c0-.07.005-.139.011-.208.004-.043.012-.092.018-.139a2.35 2.35 0 012.32-1.999zm-5.596 4.202v5.013a5.6 5.6 0 005.596 5.593h9.612a5.6 5.6 0 005.595-5.593V7.487a22.227 22.227 0 0111.486 15.668h-43.84A22.225 22.225 0 0140.954 7.45zM25.17 40.317c-.891-.88-1.423-1.95-1.423-2.861v-2.344c0-.41.347-.758.759-.758h1.86l.061 5.824c0 .369.015.741.04 1.117a6.067 6.067 0 01-1.297-.978zm4.905 3.137a1.618 1.618 0 00-.125-.6 14.186 14.186 0 01-.276-2.694l-.062-5.804 18.57.01h.002a1.623 1.623 0 000-3.246l-20.207-.013h-.445c-.595 0-1.08-.484-1.08-1.08v-2.545c0-.585.495-1.08 1.08-1.08H75.28c.586 0 1.081.495 1.081 1.08v2.545c0 .596-.485 1.08-1.08 1.08H55.626a1.623 1.623 0 000 3.247h17.846l-.062 5.824c0 .868-.096 1.76-.27 2.663a1.63 1.63 0 00-.132.622v.003c-1.686 7.244-8.508 15.06-16.146 17.906-1.213.453-2.318.765-3.38.938a1.603 1.603 0 00-.225.032 11.766 11.766 0 01-3.416.001 1.672 1.672 0 00-.23-.033c-1.055-.172-2.15-.479-3.355-.926-7.656-2.844-14.493-10.666-16.181-17.93zm13.67 63.293c-4.658-.006-9.608-.016-14.454-.025l-.896-.002v-8.904h15.35v8.931zm0-12.178h-15.35v-9.593h15.35v9.593zm0-12.841h-15.35V64.962l1.829-.556 7.515 10.02c1.183 1.546 2.72 2.37 4.386 2.37a5.133 5.133 0 001.621-.26v5.192h-.001zm.577-9.38c-.143.265-1.003 1.103-2.03 1.193-.265.025-1.069.095-1.965-1.076l-6.798-9.063 6.052-1.84c.05.034.103.066.155.099 1.715 1.133 3.526 2.075 5.39 2.767a24.19 24.19 0 002.139.685l-2.943 7.236zM56.1 83.353v23.399l-4.54.002-4.566-.002V74.19c.137-.203.25-.405.331-.602l3.218-7.912c.335.023.669.038 1.002.038.335 0 .67-.016 1.006-.039l3.219 7.916c.08.195.194.398.33.6v9.16zm2.67-11.003l-2.942-7.237a24.17 24.17 0 002.17-.697c1.91-.711 3.762-1.684 5.513-2.856l6.051 1.837-6.793 9.058c-.903 1.181-1.705 1.11-1.968 1.088-1.027-.09-1.888-.928-2.031-1.193zm15.92 34.37l-.866.002c-4.855.009-9.813.019-14.479.025v-8.931H74.69v8.904zm0-12.151H59.346v-9.593h15.345v9.593zm0-12.841H59.346v-5.192c.305.097.617.172.936.214.23.031.457.047.683.047 1.665 0 3.203-.827 4.392-2.383l7.511-10.015 1.823.554v16.775zm27.011 19.821l-4.976-16.214a1.623 1.623 0 10-3.105.953l4.977 16.214c.364 1.187 1.007 3.278 1.065 4.139-.508.073-1.512.065-2.417.057-.383-.003-.795-.006-1.238-.006-5.417 0-11.736.011-18.07.022V65.938c.679.205 1.35.398 1.997.584 4.864 1.39 8.378 2.394 9.9 7.08l1.884 6.22a1.625 1.625 0 003.108-.94l-1.889-6.236a.393.393 0 00-.009-.029c-2.052-6.344-6.933-7.74-12.1-9.218-.681-.195-1.385-.395-2.088-.61l-12.067-3.663c4.47-3.904 7.91-9.064 9.305-14.16 1.492-.311 2.999-1.135 4.218-2.339 1.518-1.499 2.388-3.384 2.388-5.171v-2.344a4.01 4.01 0 00-3.144-3.911 4.3 4.3 0 00.166-1.174v-2.545a4.336 4.336 0 00-3.043-4.132 25.542 25.542 0 00-4.97-11.677A25.617 25.617 0 0061.44 3.736 5.604 5.604 0 0056.163 0h-9.612a5.605 5.605 0 00-5.265 3.7 25.592 25.592 0 00-10.206 7.94 25.572 25.572 0 00-5.008 11.774 4.33 4.33 0 00-2.867 4.068v2.545c0 .432.065.848.183 1.241a4.011 4.011 0 00-2.888 3.844v2.344c0 1.787.87 3.672 2.387 5.171 1.222 1.205 2.73 2.029 4.222 2.34 1.398 5.1 4.839 10.26 9.31 14.163l-12.045 3.66c-.701.213-1.403.413-2.081.608-5.17 1.476-10.053 2.872-12.112 9.217l-.01.03-8.766 28.911c-1.158 3.832-1.669 5.737-.621 7.134.967 1.291 2.608 1.277 5.091 1.255.38-.003.79-.006 1.232-.006 5.774 0 12.574.012 19.325.025.11.023.223.036.34.036h18.597c.024 0 .048-.003.072-.004 2.124.002 4.178.004 6.117.004 1.932 0 3.977-.002 6.094-.004.023.001.047.004.071.004h18.59c.118 0 .23-.013.34-.036 6.762-.013 13.573-.025 19.355-.025.434 0 .837.003 1.211.006 2.502.021 4.155.035 5.125-1.266 1.05-1.409.532-3.308-.642-7.13z" fill="#000"/></g><defs><clipPath id="clip0_480_791"><path fill="#fff" d="M0 0h110v110H0z"/></clipPath></defs></svg>