<svg width="110" height="110" fill="none" xmlns="http://www.w3.org/2000/svg"><path d="M59.861 6.875c-.911 0-1.786.362-2.43 1.007L44.688 20.625v13.75h41.25a6.875 6.875 0 006.874-6.875h3.438V6.875H59.861z" fill="#F0915A"/><path d="M75.625 82.5h-41.25a3.437 3.437 0 01-3.438-3.437v-31.51a3.437 3.437 0 013.438-3.438h41.25a3.437 3.437 0 013.438 3.437v31.51a3.437 3.437 0 01-3.438 3.438z" fill="#CD3232"/><path d="M61.875 82.5h-27.5a3.437 3.437 0 01-3.438-3.437v-31.51a3.437 3.437 0 013.438-3.438h27.5a3.437 3.437 0 013.438 3.437v31.51a3.437 3.437 0 01-3.438 3.438z" fill="#FF4646"/><path d="M77.344 37.813H32.656c-.949 0-1.718-.77-1.718-1.72V15.47c0-.95.77-1.719 1.718-1.719h44.688c.949 0 1.719.77 1.719 1.719v20.625c0 .949-.77 1.718-1.72 1.718z" fill="#78AF41"/><path d="M72.188 17.188H37.812a3.437 3.437 0 01-3.437 3.437v10.313a3.437 3.437 0 013.438 3.437h34.374a3.437 3.437 0 013.438-3.438V20.626a3.437 3.437 0 01-3.438-3.438z" fill="#466932"/><path d="M55 32.656a6.875 6.875 0 100-13.75 6.875 6.875 0 000 13.75z" fill="#78AF41"/><path d="M49.844 82.5H35.209a10.313 10.313 0 00-7.292 3.02l-3.855 3.855 8.594 8.594 4.15-4.15a3.437 3.437 0 012.43-1.007h10.608a5.156 5.156 0 000-10.312z" fill="#FAB991"/><path d="M74.618 80.07a3.437 3.437 0 00-4.861 0L57.014 92.812H39.236a3.44 3.44 0 00-2.43 1.006l-4.15 4.15 5.157 5.156 3.437-3.437h16.476a5.122 5.122 0 003.646-1.51L74.618 84.93a3.437 3.437 0 000-4.862z" fill="#F0915A"/><path d="M49.844 90.52h-1.146c-.95 0-1.719-.769-1.719-1.718V86.51c0-.949.77-1.719 1.719-1.719h1.146a2.865 2.865 0 010 5.73z" fill="#F0915A"/><path d="M23.56 88.871l9.096 9.098-8.593 8.593H3.438l17.69-17.69a1.719 1.719 0 012.431 0z" fill="#463C4B"/><path d="M32.656 97.969l5.66 5.659a1.72 1.72 0 010 2.431l-.504.503h-13.75l8.594-8.593z" fill="#32283C"/><path d="M59.653 21.84l.19.19a7.734 7.734 0 0010.939 0l3.124-3.124H82.5c5.695 0 10.313-4.617 10.313-10.312V6.875H73.61c-.911 0-1.786.362-2.43 1.007L59.652 19.41a1.72 1.72 0 000 2.43z" fill="#FAB991"/><path d="M60.156 18.906l.148.148a3.438 3.438 0 004.86 0l.973-.973a.86.86 0 000-1.215l-1.97-1.97-4.01 4.01z" fill="#F0915A"/><path d="M99.688 30.938h6.874v-27.5h-6.874a3.437 3.437 0 00-3.438 3.437V27.5a3.437 3.437 0 003.438 3.438z" fill="#463C4B"/><path d="M101.406 17.188h5.156v13.75h-6.874V18.905c0-.949.769-1.718 1.718-1.718z" fill="#32283C"/><path d="M51.563 49.844h-6.876c-.949 0-1.718-.77-1.718-1.719v-4.01H53.28v4.01c0 .95-.77 1.719-1.718 1.719z" fill="#FAA037"/><path d="M59.297 77.344H54.14a.86.86 0 01-.86-.86v-3.437a.86.86 0 01.86-.86h5.156a.86.86 0 01.86.86v3.437a.86.86 0 01-.86.86z" fill="#CD3232"/></svg>