<svg width="110" height="110" fill="none" xmlns="http://www.w3.org/2000/svg"><path d="M64.21 88.109H16.94V76.286l5.022-8.217-5.022-8.216V5.939h47.27v53.914l-5.022 8.216 5.022 8.217v11.823z" fill="#63BCE7"/><path d="M28.265 68.07l-5.023-8.217V5.939H16.94v53.914l5.022 8.216-5.022 8.217v11.823h6.302V76.286l5.023-8.217z" fill="#6377E7"/><path d="M36.151 21.915c1.54 1.46 2.313 3.515 2.313 6.167 0 2.653-.772 4.708-2.313 6.167-1.543 1.459-3.525 2.188-5.943 2.188-2.488 0-4.5-.729-6.043-2.188-1.54-1.46-2.312-3.514-2.312-6.167 0-2.652.772-4.708 2.312-6.167 1.544-1.458 3.555-2.188 6.043-2.188 2.418 0 4.4.73 5.943 2.188zm16.601 1.204L35.686 54.462a1.958 1.958 0 01-1.72 1.021H30.22c-1.485 0-2.43-1.589-1.72-2.893l17.063-31.344a1.958 1.958 0 011.72-1.022h3.749c1.486 0 2.43 1.59 1.72 2.895zm-24.533 7.375c.464.58 1.092.87 1.89.87.827 0 1.492-.29 1.988-.87.497-.58.747-1.384.747-2.412 0-1.027-.25-1.831-.747-2.412-.496-.58-1.161-.87-1.988-.87-.798 0-1.426.29-1.89.87-.466.58-.698 1.384-.698 2.412s.231 1.832.698 2.412zM57.063 41.41c1.525 1.46 2.286 3.514 2.286 6.166 0 2.653-.761 4.717-2.286 6.192-1.526 1.476-3.514 2.213-5.97 2.213-2.418 0-4.4-.737-5.94-2.213-1.544-1.475-2.315-3.54-2.315-6.192s.771-4.707 2.315-6.166c1.54-1.46 3.522-2.189 5.94-2.189 2.456 0 4.444.73 5.97 2.189zm-7.907 8.628c.463.581 1.11.87 1.937.87.797 0 1.433-.29 1.915-.87.482-.58.72-1.4.72-2.462 0-1.027-.238-1.83-.72-2.411-.482-.58-1.118-.871-1.915-.871-.827 0-1.474.291-1.937.871-.467.58-.698 1.384-.698 2.411 0 1.061.231 1.882.698 2.462z" fill="#F46275"/><path d="M64.208 21.027V41.29l-3.989-4.68a4.65 4.65 0 00-6.535-.52 4.65 4.65 0 00-.52 6.535l9.073 10.646S59.528 64.7 66.667 71.23H86.85l-1.79-24.551c-.214-2.268-1.612-4.186-3.034-5.772l-17.817-19.88z" fill="#F8AF23"/><path d="M85.06 46.679c-.215-2.268-1.613-4.186-3.034-5.772l-17.818-19.88v7.032l11.516 12.848c1.421 1.587 2.82 3.505 3.034 5.772l1.79 24.552h6.301L85.06 46.679z" fill="#F8D323"/><path d="M57.742 71.23H93.06v14.567H57.74V71.231z" fill="#707070"/><path d="M86.758 71.23h6.302v14.567h-6.302V71.231z" fill="#9E9E9E"/><path d="M59.834 85.797h31.133V99.01H59.834V85.797z" fill="#CECECE"/><path d="M84.665 85.797h6.302V99.01h-6.302V85.797z" fill="#E2E2E2"/><path d="M33.703 67.425h-4.581a.644.644 0 100 1.289h4.581a.645.645 0 000-1.29zm9.163 0h-4.582a.644.644 0 100 1.289h4.582a.645.645 0 000-1.29zm9.162 0h-4.581a.644.644 0 100 1.289h4.581a.645.645 0 000-1.29zM48.654 44.76c-.558.694-.84 1.64-.84 2.816 0 1.208.281 2.172.839 2.864.588.738 1.41 1.113 2.44 1.113.993 0 1.804-.372 2.41-1.103.578-.694.87-1.661.87-2.874 0-1.178-.292-2.128-.87-2.823-.608-.732-1.419-1.104-2.41-1.104-1.03 0-1.85.375-2.439 1.112zm4.43 2.816c0 .904-.192 1.593-.572 2.05-.36.435-.812.637-1.42.637-.636 0-1.09-.2-1.432-.628l-.002-.002c-.369-.458-.556-1.15-.556-2.057 0-.874.188-1.55.558-2.01.338-.423.806-.628 1.433-.628.606 0 1.057.203 1.42.638.379.457.571 1.13.571 2zM36.595 34.717c1.667-1.58 2.513-3.812 2.513-6.635 0-2.822-.846-5.055-2.513-6.634l-.001-.001c-1.66-1.569-3.81-2.364-6.386-2.364-2.643 0-4.825.795-6.486 2.365-1.668 1.58-2.514 3.812-2.514 6.634 0 2.823.846 5.055 2.515 6.635 1.659 1.569 3.841 2.365 6.485 2.365 2.578 0 4.726-.796 6.387-2.365zm-14.098-6.635c0-2.454.71-4.372 2.11-5.699 1.434-1.354 3.265-2.012 5.6-2.012 2.269 0 4.068.658 5.5 2.012 1.402 1.327 2.112 3.245 2.112 5.699 0 2.455-.71 4.372-2.11 5.699-1.432 1.353-3.232 2.012-5.501 2.012-2.336 0-4.168-.659-5.6-2.012-1.4-1.327-2.11-3.244-2.11-5.699z" fill="#3F3679"/><path d="M32.587 30.913c.598-.698.9-1.65.9-2.83 0-1.18-.302-2.132-.9-2.833-.624-.726-1.457-1.095-2.479-1.095-.997 0-1.802.374-2.391 1.111-.558.694-.841 1.641-.841 2.816 0 1.175.282 2.122.84 2.816.59.737 1.394 1.111 2.392 1.111 1.023 0 1.857-.369 2.479-1.096zm-.98-.838c-.37.434-.861.645-1.498.645-.604 0-1.044-.2-1.386-.628l-.002-.002c-.368-.458-.555-1.133-.555-2.008 0-.873.187-1.549.557-2.01.343-.428.783-.628 1.386-.628.637 0 1.127.211 1.498.644.393.46.592 1.13.592 1.994 0 .865-.2 1.535-.591 1.993zm21.711-6.648a2.579 2.579 0 00-.049-2.574 2.58 2.58 0 00-2.237-1.273h-3.75a2.6 2.6 0 00-2.285 1.358L27.934 52.281a2.579 2.579 0 00.049 2.574 2.58 2.58 0 002.237 1.273h3.746a2.6 2.6 0 002.286-1.358l17.066-31.343zm-1.132-.616L35.12 54.154c-.23.422-.672.685-1.154.685H30.22a1.3 1.3 0 01-1.128-.642 1.301 1.301 0 01-.025-1.3L46.13 21.556c.23-.423.672-.686 1.154-.686h3.749c.468 0 .89.24 1.128.643.24.402.248.887.025 1.299zM82.655 77.87a.645.645 0 100 1.289h4.194a.645.645 0 100-1.29h-4.194zm-71.53 25.546h-7.95a.645.645 0 000 1.289h7.95a.645.645 0 000-1.289zm95.7 0h-7.95a.645.645 0 000 1.289h7.95a.644.644 0 000-1.289zm-14.297 0H17.472a.645.645 0 000 1.289h75.056a.645.645 0 000-1.289z" fill="#3F3679"/><path d="M3.175 99.654h103.65a.644.644 0 000-1.289H91.612V86.442h1.448a.645.645 0 00.645-.645V71.23a.645.645 0 00-.645-.644h-5.611l-1.747-23.968c-.242-2.552-1.836-4.622-3.196-6.14L64.855 20.782V5.94a.644.644 0 00-.645-.645H16.94a.644.644 0 00-.645.645v53.914c0 .118.033.235.095.336l4.816 7.88-4.816 7.88a.643.643 0 00-.095.337V88.11c0 .356.289.645.645.645h42.25v9.611H3.175a.644.644 0 100 1.29zm89.24-14.501H58.386v-5.994H78.11a.645.645 0 000-1.29H58.386v-5.994h34.029v13.278zM65.14 70.585h-3.66l-1.538-2.516 2.036-3.33c.68 2.25 1.74 4.221 3.16 5.846zm16.407-29.248c1.229 1.371 2.666 3.225 2.871 5.389l1.74 23.86H66.921c-6.544-6.222-4.083-17.057-4.057-17.167a.646.646 0 00-.137-.566l-9.074-10.645a3.996 3.996 0 01.448-5.627 3.978 3.978 0 012.906-.936 3.964 3.964 0 012.72 1.384l3.99 4.68 7.573 8.886a.642.642 0 00.909.072.644.644 0 00.072-.908l-7.418-8.703V22.714l16.692 18.623zm-30.121-1.46a5.251 5.251 0 001.248 3.167l5.798 6.803c-.307 1.396-.928 2.56-1.856 3.458-1.413 1.367-3.22 2.032-5.522 2.032-2.268 0-4.065-.666-5.495-2.035-1.423-1.36-2.116-3.233-2.116-5.725 0-2.49.692-4.353 2.115-5.698 1.41-1.336 3.258-2.013 5.496-2.013.112 0 .22.008.332.011zm-33.84 47.587V80.65h24.597a.644.644 0 100-1.289H17.585v-2.894l4.739-7.753h2.216a.645.645 0 000-1.289h-2.216l-4.74-7.753V6.584h45.981v14.428l-.002.015V39.54l-2.854-3.347a5.245 5.245 0 00-3.6-1.833 5.245 5.245 0 00-3.843 1.24 5.25 5.25 0 00-1.748 2.99c-.142-.004-.281-.015-.426-.015-2.578 0-4.726.797-6.382 2.365-1.67 1.58-2.518 3.812-2.518 6.635s.846 5.063 2.515 6.656c1.656 1.588 3.805 2.392 6.385 2.392 2.616 0 4.776-.805 6.418-2.394.903-.872 1.562-1.945 1.973-3.196l2.057 2.413c-.172.864-.587 3.342-.409 6.392.064 1.093.203 2.142.408 3.147l-2.713 4.438H56.61a.644.644 0 100 1.289h2.216l1.145 1.872h-2.23a.644.644 0 00-.645.644v14.567c0 .356.289.644.645.644h1.449v1.023H17.585v.001zm42.894-1.022h29.844v11.923H60.479V86.442z" fill="#3F3679"/></svg>