<svg width="103" height="95" fill="none" xmlns="http://www.w3.org/2000/svg"><path d="M88.49 6.192V2.06C88.49.927 87.561 0 86.428 0H50.267c-1.133 0-2.06.927-2.06 2.06v4.132h40.282z" fill="#3EAF91"/><path opacity=".1" d="M53.876 6.192V2.06c0-1.133.927-2.06 2.06-2.06h-5.67c-1.132 0-2.06.927-2.06 2.06v4.132h5.67z" fill="#231F20"/><path d="M99.4 13.504V7.177c0-1.133-.927-2.06-2.06-2.06H39.356c-1.133 0-2.06.927-2.06 2.06v6.327H99.4z" fill="#FFBB4A"/><path opacity=".1" d="M44.857 5.117h-5.501c-1.133 0-2.06.927-2.06 2.06v6.327h5.502V7.177c0-1.133.927-2.06 2.06-2.06z" fill="#231F20"/><path d="M75.986 82.971c0-6.202 5.028-11.229 11.23-11.229 1.872 0 3.635.46 5.187 1.27l5.378-53.066a.914.914 0 00-.926-1.025H38.769a.948.948 0 00-.957 1.028l5.117 72.126c.04.565.536 1.027 1.103 1.027h38.335a11.23 11.23 0 01-6.381-10.13z" fill="#FFBB4A"/><path opacity=".1" d="M49.084 92.075l-5.117-72.126a.948.948 0 01.958-1.028h-6.156a.948.948 0 00-.957 1.028l5.117 72.126c.04.565.536 1.027 1.103 1.027h6.155a1.126 1.126 0 01-1.103-1.027z" fill="#231F20"/><path d="M102.395 19.896c0 .566-.463 1.03-1.03 1.03H34.257c-.567 0-1.03-.463-1.03-1.03v-6.46c0-.567.463-1.03 1.03-1.03h67.108c.567 0 1.03.463 1.03 1.03v6.46z" fill="#FF9F3D"/><path opacity=".1" d="M39.304 19.896v-6.46c0-.567.464-1.03 1.03-1.03h-6.077c-.567 0-1.03.463-1.03 1.03v6.46c0 .566.463 1.03 1.03 1.03h6.078c-.567 0-1.03-.463-1.03-1.03z" fill="#231F20"/><path d="M99.244 82.97c0 6.644-5.386 12.03-12.028 12.03-6.644 0-12.03-5.386-12.03-12.03 0-6.643 5.386-12.029 12.03-12.029 6.642 0 12.028 5.386 12.028 12.03z" fill="#3EAF91"/><path d="M87.213 87.484a4.51 4.51 0 100-9.021 4.51 4.51 0 000 9.022zm-53.68-57.18H17.066c-.567 0-.799.401-.515.892l5.975 10.35h5.546l5.976-10.35c.283-.49.052-.892-.515-.892z" fill="#86D5B5"/><path d="M24.808 41.546l-1.053-10.218a1.17 1.17 0 00-1.135-1.024h-5.551c-.567 0-.799.401-.515.892l5.976 10.35h2.278zM4.403 93.107a2.48 2.48 0 01-2.271-1.482A25.133 25.133 0 010 81.448v-7.937c0-13.952 11.35-25.302 25.301-25.302 13.952 0 25.302 11.35 25.302 25.302v7.937c0 3.536-.718 6.96-2.133 10.177a2.48 2.48 0 01-2.27 1.482H4.403z" fill="#3EAF91"/><path opacity=".1" d="M7.797 91.62a25.139 25.139 0 01-2.131-10.177v-7.938c0-12.993 9.846-23.729 22.468-25.142-.93-.104-1.875-.16-2.833-.16C11.351 48.205 0 59.555 0 73.507v7.938c0 3.535.718 6.959 2.132 10.176a2.481 2.481 0 002.27 1.482h5.666a2.482 2.482 0 01-2.27-1.482z" fill="#231F20"/><path d="M31.913 44.502v-3.046c0-.566-.464-1.03-1.03-1.03H19.72c-.567 0-1.03.464-1.03 1.03v3.046h13.222z" fill="#3EAF91"/><path d="M35.227 49.413c.146.547-.199.995-.765.995H16.139c-.566 0-.905-.447-.753-.992l1.138-4.076c.152-.546.74-.992 1.307-.992h15.018c.566 0 1.149.448 1.295.996l1.083 4.069z" fill="#86D5B5"/><path opacity=".1" d="M21.021 49.416l1.138-4.076c.152-.546.74-.992 1.307-.992H17.83c-.567 0-1.155.447-1.307.992l-1.138 4.076c-.152.546.187.992.753.992h5.635c-.566 0-.905-.447-.753-.992z" fill="#231F20"/><path d="M79.694 52.374a1.5 1.5 0 00-2.039.587 10.874 10.874 0 01-9.511 5.613c-5.46 0-9.99-4.05-10.748-9.303l.162.163a1.496 1.496 0 002.122 0 1.5 1.5 0 000-2.121l-2.782-2.781a1.5 1.5 0 00-2.121 0l-2.781 2.78a1.5 1.5 0 102.121 2.122l.245-.245c.74 6.951 6.637 12.385 13.782 12.385 5.043 0 9.694-2.744 12.136-7.161a1.5 1.5 0 00-.586-2.039zm4.464-7.115a1.5 1.5 0 00-2.121 0l-.214.213C80.75 38.89 75.026 33.85 68.145 33.85c-4.896 0-9.334 2.504-11.87 6.698a1.5 1.5 0 102.568 1.552 10.788 10.788 0 019.302-5.25c5.206 0 9.566 3.682 10.618 8.578l-.168-.168a1.5 1.5 0 10-2.121 2.12l2.78 2.783a1.5 1.5 0 002.122 0l2.782-2.782a1.5 1.5 0 000-2.121z" fill="#CB7C52"/></svg>