<svg width="11" height="18" viewBox="0 0 11 18" fill="none" xmlns="http://www.w3.org/2000/svg">
<path d="M1 13.5H0.5V14H1V13.5ZM10.3536 13.8536C10.5488 13.6583 10.5488 13.3417 10.3536 13.1464L7.17157 9.96447C6.97631 9.7692 6.65973 9.7692 6.46447 9.96447C6.2692 10.1597 6.2692 10.4763 6.46447 10.6716L9.29289 13.5L6.46447 16.3284C6.2692 16.5237 6.2692 16.8403 6.46447 17.0355C6.65973 17.2308 6.97631 17.2308 7.17157 17.0355L10.3536 13.8536ZM0.5 0V13.5H1.5V0H0.5ZM1 14H10V13H1V14Z" fill="#5C5C5C"/>
</svg>
