<svg width="48" height="81" viewBox="0 0 48 81" fill="none" xmlns="http://www.w3.org/2000/svg">
<path d="M4 55H0.5V58.5H4V55ZM46.4749 57.4749C47.8417 56.108 47.8417 53.892 46.4749 52.5251L24.201 30.2513C22.8342 28.8844 20.6181 28.8844 19.2513 30.2513C17.8844 31.6181 17.8844 33.8342 19.2513 35.201L39.0503 55L19.2513 74.799C17.8844 76.1658 17.8844 78.3819 19.2513 79.7487C20.6181 81.1156 22.8342 81.1156 24.201 79.7487L46.4749 57.4749ZM0.5 0.5V55H7.5V0.5H0.5ZM4 58.5H44V51.5H4V58.5Z" fill="#FFAA6B" fill-opacity="0.4"/>
</svg>
