<svg width="26" height="26" viewBox="0 0 26 26" fill="none" xmlns="http://www.w3.org/2000/svg">
<path d="M19.5406 19.8047L16.4531 18.3016L15.4375 17.8141V17.4891C16.575 16.7172 17.8344 15.2141 18.8906 12.3906C19.4391 12.3703 19.9062 12.1266 20.1906 11.7203C20.5359 11.2328 20.5969 10.5828 20.3531 10.0547C20.2719 9.87187 20.15 9.72969 20.0281 9.60781H20.5156V7.65781L19.6422 7.41406V7.29219C19.6422 4.75313 18.2 2.45781 15.925 1.34062C15.8031 0.89375 15.4172 0.56875 14.9297 0.56875H13.4062V0.203125H12.5938V0.548438H11.0703C10.5828 0.548438 10.1969 0.873437 10.075 1.32031C7.8 2.4375 6.35781 4.75312 6.35781 7.27187V7.39375L5.48438 7.65781V9.60781H5.97187C5.82969 9.72969 5.72812 9.89219 5.64687 10.0547C5.40312 10.5828 5.46406 11.2328 5.80938 11.7203C6.11406 12.1469 6.58125 12.3703 7.10938 12.3906C8.16562 15.2141 9.44531 16.6969 10.5625 17.4891V17.8141L9.81094 18.1797L6.45937 19.8047C5.62656 20.2109 5.07812 21.0641 5.07812 21.9984V25.5938H20.9219V21.9984C20.9219 21.0641 20.3734 20.2109 19.5406 19.8047ZM14.6047 18.3422C14.5844 18.4438 14.5641 18.525 14.5437 18.6266V18.6469C14.5234 18.6875 14.5234 18.7078 14.5031 18.7484C14.5031 18.7688 14.4828 18.7891 14.4828 18.8094C14.4625 18.8297 14.4625 18.85 14.4422 18.8703C14.4219 18.9109 14.4016 18.9516 14.3813 18.9719C14.3813 18.9719 14.3813 18.9719 14.3813 18.9922C14.1984 19.2563 13.9547 19.4594 13.6703 19.5813C13.6703 19.5813 13.6703 19.5813 13.65 19.5813C13.6094 19.6016 13.5687 19.6219 13.5281 19.6219H13.5078C13.4672 19.6422 13.4266 19.6422 13.3859 19.6422C13.3656 19.6422 13.3656 19.6422 13.3453 19.6422C13.3047 19.6422 13.2641 19.6625 13.2234 19.6625C13.2031 19.6625 13.2031 19.6625 13.1828 19.6625C13.1219 19.6625 13.0812 19.6625 13.0203 19.6625C12.1266 19.6625 11.3953 18.9313 11.3953 18.0375V17.9156C12.0656 18.2203 12.6344 18.2812 13.0203 18.2812C13.4062 18.2812 13.975 18.2203 14.6453 17.9156V18.0781C14.625 18.1187 14.6047 18.2406 14.6047 18.3422ZM19.5406 11.2531C19.4594 11.3547 19.3578 11.4766 19.175 11.5375C19.2766 11.0906 19.3578 10.6031 19.3984 10.1562C19.5 10.2172 19.5812 10.2984 19.6219 10.4203C19.7437 10.6641 19.7234 11.0094 19.5406 11.2531ZM6.29688 8.26719L7.17031 8.02344V7.29219C7.17031 5.22031 8.2875 3.31094 10.0344 2.275V4.7125H10.8469V1.58438C10.8469 1.4625 10.9484 1.36094 11.0703 1.36094H12.5938V6.03281H13.4062V1.36094H14.9297C15.0516 1.36094 15.1531 1.4625 15.1531 1.58438V4.69219H15.9656V2.25469C17.7328 3.29063 18.8297 5.2 18.8297 7.27187V8.00313L19.7031 8.24687V8.775H6.29688V8.26719ZM6.45937 11.2531C6.27656 11.0094 6.25625 10.6641 6.37812 10.4203C6.43906 10.3187 6.5 10.2172 6.60156 10.1562C6.64219 10.6641 6.74375 11.1109 6.84531 11.5375C6.6625 11.4766 6.54062 11.3547 6.45937 11.2531ZM7.77969 11.8625C7.59687 11.1922 7.41406 10.4812 7.37344 9.60781H18.6266C18.6062 10.2578 18.4641 11.2328 18.2406 11.8422C16.4125 16.9406 13.975 17.4891 13 17.4891C12.0453 17.5094 9.60781 16.9609 7.77969 11.8625ZM20.1094 24.7812H18.2812V24.1719H17.4688V24.7812H8.53125V24.1719H7.71875V24.7812H5.89062V21.9984C5.89062 21.3688 6.25625 20.8 6.80469 20.5359L10.6438 18.6875C10.6438 18.7078 10.6641 18.7281 10.6641 18.7484C10.6641 18.7688 10.6844 18.8094 10.6844 18.8297C10.7047 18.8703 10.725 18.9312 10.7453 18.9719C10.7453 18.9922 10.7656 19.0125 10.7656 19.0328C10.7859 19.0938 10.8266 19.1547 10.8469 19.1953C10.8469 19.1953 10.8469 19.2156 10.8672 19.2156C10.9078 19.2766 10.9484 19.3375 10.9891 19.3984C11.0094 19.4188 11.0094 19.4391 11.0297 19.4594C11.05 19.5 11.0906 19.5406 11.1312 19.5813C11.1516 19.6016 11.1719 19.6219 11.1922 19.6422C11.2125 19.6828 11.2531 19.7031 11.2937 19.7437C11.3141 19.7641 11.3344 19.7844 11.3547 19.8047C11.3953 19.8453 11.4156 19.8656 11.4563 19.9062C11.4766 19.9266 11.4969 19.9469 11.5172 19.9672C11.5578 20.0078 11.5984 20.0281 11.6391 20.0688C11.6594 20.0891 11.6797 20.0891 11.6797 20.1094C11.7406 20.15 11.8016 20.1906 11.8625 20.2312C11.8828 20.2312 11.8828 20.2516 11.9031 20.2516C11.9641 20.2719 12.0047 20.3125 12.0656 20.3328C12.0859 20.3531 12.1062 20.3531 12.1469 20.3531C12.1875 20.3734 12.2281 20.3938 12.2891 20.3938C12.3094 20.3938 12.35 20.4141 12.3703 20.4141C12.4109 20.4344 12.4719 20.4344 12.5125 20.4547C12.5328 20.4547 12.5734 20.475 12.5938 20.475C12.6344 20.475 12.6953 20.4953 12.7562 20.4953C12.7766 20.4953 12.7969 20.4953 12.8375 20.4953C12.9188 20.4953 13 20.5156 13.0609 20.5156C13.1422 20.5156 13.2031 20.5156 13.2844 20.5156C13.325 20.5156 13.3656 20.5156 13.3859 20.4953C13.4266 20.4953 13.4469 20.4953 13.4875 20.475C13.5281 20.475 13.5891 20.4547 13.6297 20.4344C13.65 20.4344 13.6703 20.4344 13.6906 20.4141C13.7516 20.3937 13.7922 20.3734 13.8531 20.3734C13.8734 20.3734 13.8734 20.3734 13.8938 20.3531C13.9547 20.3328 14.0156 20.3125 14.0562 20.2922H14.0766C14.1375 20.2719 14.1984 20.2313 14.2391 20.2109C14.3 20.1703 14.3406 20.15 14.4016 20.1094C14.4625 20.0688 14.5031 20.0484 14.5437 20.0078C14.5437 20.0078 14.5641 20.0078 14.5641 19.9875C14.6047 19.9469 14.6453 19.9062 14.6859 19.8859L14.7063 19.8656C14.7469 19.825 14.7672 19.8047 14.8078 19.7641C14.8281 19.7438 14.8484 19.7234 14.8484 19.7031C14.8687 19.6828 14.8891 19.6422 14.9297 19.6219C14.95 19.5812 14.9906 19.5609 15.0109 19.5203C15.0312 19.5 15.0312 19.4797 15.0516 19.4797C15.2141 19.2563 15.3359 18.9922 15.3969 18.7078L19.2156 20.5562C19.7844 20.8203 20.1297 21.4094 20.1297 22.0188V24.7812H20.1094Z" fill="white"/>
<path d="M17.3672 7.3125H8.63281V8.125H17.3672V7.3125Z" fill="white"/>
</svg>
