<svg width="51" height="51" viewBox="0 0 51 51" fill="none" xmlns="http://www.w3.org/2000/svg">
<circle cx="25.5" cy="25.5" r="25.5" fill="#F5F1FF"/>
<path d="M32.8598 12H18.1402C16.4078 12 15 13.4001 15 15.123V35.877C15 37.5999 16.4078 39 18.1402 39H32.8598C34.5916 39 36 37.5999 36 35.877V15.123C36 13.4007 34.5916 12 32.8598 12ZM34.9532 35.877C34.9532 37.0252 34.0133 37.959 32.8598 37.959H18.1402C16.9856 37.959 16.0468 37.0252 16.0468 35.877V15.123C16.0468 13.9748 16.9857 13.041 18.1402 13.041H32.8598C34.0133 13.041 34.9532 13.9748 34.9532 15.123V35.877ZM17.6823 20.6533H33.3177V15.123H17.6823V20.6533ZM18.729 16.164H32.271V19.6124H18.729V16.164ZM21.1186 23.4662V24.7273C21.1186 25.1791 20.7497 25.5451 20.2959 25.5451H19.0278C18.5736 25.5451 18.2061 25.1792 18.2061 24.7273V23.4662C18.2061 23.0149 18.5736 22.649 19.0278 22.649H20.2959C20.7497 22.6484 21.1186 23.0149 21.1186 23.4662ZM26.9568 23.4662V24.7273C26.9568 25.1786 26.5878 25.5451 26.1341 25.5451H24.8665C24.4122 25.5451 24.0442 25.1787 24.0442 24.7273V23.4662C24.0442 23.0144 24.4122 22.649 24.8665 22.649H26.1341C26.5878 22.6484 26.9568 23.0143 26.9568 23.4662ZM32.7944 23.4662V24.7273C32.7944 25.1786 32.4254 25.5451 31.9717 25.5451H30.7041C30.2503 25.5451 29.8814 25.1787 29.8814 24.7273V23.4662C29.8814 23.0144 30.2503 22.649 30.7041 22.649H31.9717C32.4254 22.6484 32.7944 23.0143 32.7944 23.4662ZM21.1186 28.5676V29.8287C21.1186 30.28 20.7497 30.6459 20.2959 30.6459H19.0278C18.5736 30.6459 18.2061 30.28 18.2061 29.8287V28.5676C18.2061 28.1163 18.5736 27.7504 19.0278 27.7504H20.2959C20.7497 27.7499 21.1186 28.1158 21.1186 28.5676ZM21.1186 33.6685V34.9292C21.1186 35.3809 20.7497 35.7469 20.2959 35.7469H19.0278C18.5736 35.7469 18.2061 35.381 18.2061 34.9292V33.6685C18.2061 33.2162 18.5736 32.8508 19.0278 32.8508H20.2959C20.7497 32.8508 21.1186 33.2162 21.1186 33.6685ZM26.9568 28.5671V29.8293C26.9568 30.2801 26.5878 30.646 26.1341 30.646H24.8665C24.4122 30.646 24.0442 30.2801 24.0442 29.8293V28.5671C24.0442 28.1158 24.4122 27.7499 24.8665 27.7499H26.1341C26.5878 27.7493 26.9568 28.1153 26.9568 28.5671ZM26.9568 33.668V34.9292C26.9568 35.3804 26.5878 35.7469 26.1341 35.7469H24.8665C24.4122 35.7469 24.0442 35.3804 24.0442 34.9292V33.668C24.0442 33.2163 24.4122 32.8503 24.8665 32.8503H26.1341C26.5878 32.8503 26.9568 33.2162 26.9568 33.668ZM32.7944 28.5671V29.8293C32.7944 29.8308 32.7929 29.8325 32.7929 29.8345V33.6628C32.7929 33.6643 32.7944 33.6669 32.7944 33.6685V34.9297C32.7944 35.3809 32.4254 35.7474 31.9717 35.7474H30.7041C30.2493 35.7474 29.8814 35.381 29.8814 34.9297V34.3389V33.6685V29.8293V28.9158V28.5671C29.8814 28.1158 30.2493 27.7499 30.7041 27.7499H31.9717C32.4254 27.7493 32.7944 28.1153 32.7944 28.5671Z" fill="black"/>
</svg>
