<svg width="17" height="22" viewBox="0 0 17 22" fill="none" xmlns="http://www.w3.org/2000/svg">
<path d="M14.4579 0H2.54205C1.13968 0 0 1.13344 0 2.52815V19.329C0 20.7237 1.13968 21.8571 2.54205 21.8571H14.4579C15.8599 21.8571 17 20.7237 17 19.329V2.52815C17 1.1339 15.8599 0 14.4579 0ZM16.1526 19.329C16.1526 20.2585 15.3917 21.0144 14.4579 21.0144H2.54205C1.6074 21.0144 0.847373 20.2585 0.847373 19.329V2.52815C0.847373 1.59861 1.60746 0.84274 2.54205 0.84274H14.4579C15.3917 0.84274 16.1526 1.59867 16.1526 2.52815V19.329ZM2.17137 7.00509H14.8286V2.52815H2.17137V7.00509ZM3.01868 3.37089H13.9813V6.16241H3.01868V3.37089ZM4.95318 9.28214V10.3031C4.95318 10.6688 4.65449 10.9651 4.28716 10.9651H3.26061C2.89289 10.9651 2.59545 10.6688 2.59545 10.3031V9.28214C2.59545 8.91682 2.89289 8.62061 3.26061 8.62061H4.28716C4.65449 8.62015 4.95318 8.91682 4.95318 9.28214ZM9.67933 9.28214V10.3031C9.67933 10.6684 9.38063 10.9651 9.01331 10.9651H7.98715C7.61944 10.9651 7.32153 10.6685 7.32153 10.3031V9.28214C7.32153 8.91643 7.61937 8.62061 7.98715 8.62061H9.01331C9.38063 8.62015 9.67933 8.91636 9.67933 9.28214ZM14.405 9.28214V10.3031C14.405 10.6684 14.1063 10.9651 13.739 10.9651H12.7128C12.3455 10.9651 12.0468 10.6685 12.0468 10.3031V9.28214C12.0468 8.91643 12.3455 8.62061 12.7128 8.62061H13.739C14.1063 8.62015 14.405 8.91636 14.405 9.28214ZM4.95318 13.4118V14.4328C4.95318 14.7981 4.65449 15.0943 4.28716 15.0943H3.26061C2.89289 15.0943 2.59545 14.7981 2.59545 14.4328V13.4118C2.59545 13.0465 2.89289 12.7503 3.26061 12.7503H4.28716C4.65449 12.7499 4.95318 13.0461 4.95318 13.4118ZM4.95318 17.5412V18.5617C4.95318 18.9274 4.65449 19.2237 4.28716 19.2237H3.26061C2.89289 19.2237 2.59545 18.9275 2.59545 18.5617V17.5412C2.59545 17.175 2.89289 16.8792 3.26061 16.8792H4.28716C4.65449 16.8792 4.95318 17.175 4.95318 17.5412ZM9.67933 13.4115V14.4332C9.67933 14.7982 9.38063 15.0944 9.01331 15.0944H7.98715C7.61944 15.0944 7.32153 14.7982 7.32153 14.4332V13.4115C7.32153 13.0461 7.61937 12.7499 7.98715 12.7499H9.01331C9.38063 12.7495 9.67933 13.0457 9.67933 13.4115ZM9.67933 17.5408V18.5617C9.67933 18.927 9.38063 19.2237 9.01331 19.2237H7.98715C7.61944 19.2237 7.32153 18.927 7.32153 18.5617V17.5408C7.32153 17.1751 7.61937 16.8788 7.98715 16.8788H9.01331C9.38063 16.8788 9.67933 17.175 9.67933 17.5408ZM14.405 13.4115V14.4332C14.405 14.4345 14.4038 14.4358 14.4038 14.4374V17.5365C14.4038 17.5378 14.405 17.5399 14.405 17.5412V18.5621C14.405 18.9274 14.1063 19.2241 13.739 19.2241H12.7128C12.3447 19.2241 12.0468 18.9275 12.0468 18.5621V18.0839V17.5412V14.4332V13.6938V13.4115C12.0468 13.0461 12.3447 12.7499 12.7128 12.7499H13.739C14.1063 12.7495 14.405 13.0457 14.405 13.4115Z" fill="black"/>
</svg>
