<svg width="103" height="103" viewBox="0 0 103 103" fill="none" xmlns="http://www.w3.org/2000/svg">
<path d="M51.4663 72.6561L51.5001 72.6788L51.5003 72.6785V72.6477L51.5154 72.6683L51.5338 72.6559H51.534L51.5401 72.6477V72.6519L64.3442 64.0958L64.3451 64.0961V57.6519C63.3767 58.3191 62.4471 59.0414 61.5746 59.8302C55.956 64.9091 50.4456 64.0391 50.4456 64.0391C47.0843 64.1275 42.2969 60.6841 40.2552 59.0806C39.7359 58.6728 39.2024 58.2824 38.655 57.913V64.0958L38.6559 64.0956L51.4663 72.6561Z" fill="#F6C358"/>
<path d="M51.4998 72.6798L51.5002 72.6805V72.6796L51.5 72.6792L47.3573 78.3219L51.4998 72.6798Z" fill="#F6C358"/>
<path d="M37.8893 16.9246H45.8599C46.5864 16.9246 47.3086 16.8146 48.0001 16.5927C49.4441 16.1296 51.7394 15.2761 53.4774 14.6158C55.0273 14.0267 56.7345 14.0057 58.2988 14.555L66.6885 17.5003C72.3331 19.5738 72.9089 24.8728 72.9089 24.8728V39.8481C72.9089 39.8481 73.6495 34.8492 76.2094 30.7434C76.8311 29.7464 77.1712 28.5999 77.1712 27.4249V14.5055C77.1712 14.5055 76.3649 8.16967 70.1443 6.67219C70.1443 6.67219 72.6786 1.27639 66.1125 0H41.9212C33.0778 0 25.9089 7.16884 25.9089 16.0122V25.5046C25.9089 27.5614 26.5975 29.5628 27.8854 31.1663C28.8989 32.4283 29.9512 34.4121 30.1136 37.2824V24.7001C31.6687 17.7308 37.8893 16.9246 37.8893 16.9246Z" fill="#64798A"/>
<path d="M50.4456 64.0398C50.4456 64.0398 55.956 64.9098 61.5746 59.8309C62.4471 59.0421 63.3767 58.3198 64.3451 57.6526C64.4406 57.5868 64.5343 57.5184 64.6305 57.4539C67.1179 55.7831 71.8966 51.1503 72.9087 39.8489V24.8735C72.9087 24.8735 72.3328 19.5745 66.6883 17.501L58.2986 14.5557C56.7343 14.0065 55.0271 14.0274 53.4772 14.6165C51.7392 15.2768 49.4439 16.1303 47.9999 16.5934C47.3083 16.8151 46.5862 16.9254 45.8597 16.9254H37.8891C37.8891 16.9254 31.6685 17.7315 30.1134 24.7008V37.2831V40.1948C30.1134 40.1948 30.3841 52.434 38.4874 57.7978C38.5442 57.8355 38.5984 57.8762 38.6548 57.9143C39.202 58.2837 39.7355 58.6741 40.255 59.0819C42.2969 60.6848 47.0843 64.1282 50.4456 64.0398Z" fill="#FCD462"/>
<path d="M55.8861 78.6543L53.6575 81.8544L55.7157 94.8266L60.8737 85.4474L55.8861 78.6543Z" fill="#D5D6DB"/>
<path d="M47.3153 94.8837L49.3826 81.8541L47.1343 78.6255L42.1257 85.4471L47.3153 94.8837Z" fill="#D5D6DB"/>
<path d="M47.3572 78.3222L47.1823 78.5605L51.5001 72.7022V72.6808L51.4997 72.6802L47.3572 78.3222Z" fill="#D5D6DB"/>
<path d="M55.7158 94.8262L53.6576 81.854L55.8862 78.6539L55.8864 78.6534L51.5002 72.6797V72.6805V72.7019L47.1824 78.5602L47.1348 78.6247L47.1344 78.6254L49.3827 81.854L47.3155 94.8836V94.8838L51.5 102.492L55.716 94.8272L55.7158 94.8262Z" fill="#E56353"/>
<path d="M51.5258 102.539L51.9254 102.139L51.5132 102.516L51.5258 102.539Z" fill="#E56353"/>
<path d="M51.487 102.516L51.0748 102.139L51.4744 102.539L51.487 102.516Z" fill="#E56353"/>
<path d="M51.4811 102.546L51.5003 102.565L51.5197 102.546L51.5005 102.528L51.5003 102.528L51.5001 102.528L51.4811 102.546Z" fill="#E56353"/>
<path d="M51.5408 72.6479L51.5341 72.657L51.5408 72.6526V72.6479Z" fill="#E56353"/>
<path d="M51.5002 72.6479V72.6791L51.5157 72.6687L51.5002 72.6479Z" fill="#E56353"/>
<path d="M51.54 72.6523L51.5339 72.6563H51.5337L51.5155 72.6686L51.5002 72.6789L51.5 72.6791H51.5002L51.5 72.6793L51.5002 72.6797L55.8864 78.6535L60.875 85.4476L71.2559 66.5737L64.345 64.0964L64.3442 64.0962L51.54 72.6523Z" fill="#E1E6E9"/>
<path d="M47.1343 78.6254L47.1347 78.6248L47.3573 78.322L51.5 72.6793L51.5002 72.6791H51.5L51.4662 72.6563L38.656 64.0962L38.6549 64.0964L31.7443 66.5737L42.1251 85.4476L47.1343 78.6254Z" fill="#E1E6E9"/>
<path d="M102.935 96.9984L100.61 82.9583C99.9824 79.1711 97.3592 76.0177 93.7494 74.7118L71.2559 66.5737L77.2301 78.5541L69.7584 78.6694L72.2925 83.5076L51.9254 102.139L51.5258 102.539L51.54 102.565H56.9434H98.2144C101.169 102.565 103.417 99.9133 102.935 96.9984Z" fill="#3A556A"/>
<path d="M51.5194 102.545L51.5 102.565L51.5002 102.565H51.5408L51.5194 102.545Z" fill="#3A556A"/>
<path d="M55.716 94.8272L51.5 102.492L51.5002 102.492L51.5132 102.516L51.9254 102.139L72.2926 83.5074L69.7584 78.6692L77.2301 78.5541L71.2559 66.5737L60.875 85.4476L55.716 94.8272Z" fill="#2F4859"/>
<path d="M51.4811 102.545L51.5 102.528L51.5002 102.528L51.4871 102.516L51.4744 102.538L51.4811 102.545Z" fill="#2F4859"/>
<path d="M51.4811 102.546L51.4744 102.539L51.0748 102.139L30.7074 83.5076L33.2418 78.6694L25.7701 78.5541L31.7443 66.5737L9.25081 74.7118C5.64103 76.0177 3.01784 79.1711 2.39064 82.9583L0.0654338 96.9984C-0.417169 99.9133 1.83113 102.565 4.78584 102.565H46.0969H49.2859H49.3255H51.4998H51.5002L51.5 102.564L51.4811 102.546Z" fill="#3A556A"/>
<path d="M51.5258 102.539L51.5132 102.516L51.5002 102.492L51.5 102.492L47.3154 94.8838L42.1252 85.4476L31.7443 66.5737L25.7701 78.5541L33.2418 78.6692L30.7074 83.5074L51.0748 102.139L51.487 102.516L51.5 102.528L51.5002 102.528L51.5191 102.545L51.54 102.565L51.5258 102.539Z" fill="#2F4859"/>
</svg>
