<svg width="98" height="81" viewBox="0 0 98 81" fill="none" xmlns="http://www.w3.org/2000/svg">
<path d="M96.0859 32.5391H1.91406V63.1641H96.0859V32.5391Z" fill="#F25A78"/>
<path d="M1.91406 63.1641V74.6484C1.91406 76.7635 3.62715 78.4766 5.74219 78.4766H92.2578C94.3728 78.4766 96.0859 76.7635 96.0859 74.6484V63.1641H1.91406Z" fill="#CCEEFF"/>
<path d="M92.2578 17.2266H70.0547L63.4569 4.03102C62.808 2.73328 61.4816 1.91406 60.0327 1.91406H37.9673C36.5184 1.91406 35.192 2.73328 34.5431 4.03102L27.9453 17.2266H21.0547V13.3984C21.0547 11.2834 19.3416 9.57031 17.2266 9.57031H13.3984C11.2834 9.57031 9.57031 11.2834 9.57031 13.3984V17.2266H5.74219C3.62715 17.2266 1.91406 18.9396 1.91406 21.0547V32.5391H96.0859V21.0547C96.0859 18.9396 94.3728 17.2266 92.2578 17.2266Z" fill="#CCEEFF"/>
<path d="M71.9688 47.8516C71.9688 60.5102 61.7059 70.8203 49 70.8203C36.2918 70.8203 26.0312 60.5077 26.0312 47.8516C26.0312 35.1929 36.2941 24.8828 49 24.8828C61.7082 24.8828 71.9688 35.1954 71.9688 47.8516Z" fill="#57555C"/>
<path d="M49 32.5391C57.4429 32.5391 64.3125 39.4086 64.3125 47.8516C64.3125 56.2945 57.4429 63.1641 49 63.1641C40.5571 63.1641 33.6875 56.2945 33.6875 47.8516C33.6875 39.4086 40.5571 32.5391 49 32.5391Z" fill="white"/>
<path d="M76.9453 26.7969C78.0019 26.7969 78.8594 25.9394 78.8594 24.8828C78.8594 23.8263 78.0019 22.9688 76.9453 22.9688C75.8888 22.9688 75.0312 23.8263 75.0312 24.8828C75.0312 25.9394 75.8888 26.7969 76.9453 26.7969Z" fill="black"/>
<path d="M92.2578 15.3125H71.2376L65.1689 3.17486C64.1894 1.21658 62.2214 0 60.0327 0H37.9673C35.7782 0 33.8102 1.21658 32.8312 3.17505L26.7624 15.3125H22.9688V13.3984C22.9688 10.2322 20.3928 7.65625 17.2266 7.65625H13.3984C10.2322 7.65625 7.65625 10.2322 7.65625 13.3984V15.3125H5.74219C2.57595 15.3125 0 17.8884 0 21.0547C0 26.2562 0 72.6251 0 74.6484C0 77.8147 2.57595 80.3906 5.74219 80.3906H92.2578C95.4241 80.3906 98 77.8147 98 74.6484C98 69.447 98 23.078 98 21.0547C98 17.8884 95.4241 15.3125 92.2578 15.3125ZM3.82812 34.434H28.0316C25.4878 38.4078 24.1172 43.0649 24.1172 47.8516C24.1172 52.6386 25.488 57.277 28.0314 61.25H3.82812V34.434ZM27.9453 47.8516C27.9453 36.1365 37.4754 26.7969 49 26.7969C60.5098 26.7969 70.0547 36.122 70.0547 47.8516C70.0547 59.5679 60.5232 68.9062 49 68.9062C37.4664 68.9062 27.9453 59.5576 27.9453 47.8516ZM73.8828 47.8516C73.8828 43.0647 72.5122 38.4269 69.9684 34.4531H94.1719V61.25H69.9684C72.5122 57.2762 73.8828 52.6384 73.8828 47.8516ZM36.2552 4.88698C36.5818 4.23391 37.2377 3.82812 37.9673 3.82812H60.0327C60.7623 3.82812 61.4184 4.23391 61.745 4.88698L66.9577 15.3125H31.0423L36.2552 4.88698ZM11.4844 13.3984C11.4844 12.343 12.343 11.4844 13.3984 11.4844H17.2266C18.282 11.4844 19.1406 12.343 19.1406 13.3984V15.3125H11.4844V13.3984ZM5.74219 19.1406C7.48035 19.1406 89.567 19.1406 92.2578 19.1406C93.3132 19.1406 94.1719 19.9993 94.1719 21.0547V30.625H66.9489C62.2721 25.7495 55.7808 22.9688 49 22.9688C42.2185 22.9688 35.7266 25.7503 31.0509 30.625H3.82812V21.0547C3.82812 19.9993 4.68677 19.1406 5.74219 19.1406ZM92.2578 76.5625H5.74219C4.68677 76.5625 3.82812 75.7038 3.82812 74.6484V65.0781H31.0511C35.7281 69.9536 42.2194 72.7344 49 72.7344C55.7817 72.7344 62.2736 69.9529 66.9491 65.0781H94.1719V74.6484C94.1719 75.7038 93.3132 76.5625 92.2578 76.5625Z" fill="black"/>
<path d="M54.7422 7.65625H43.2578C42.2007 7.65625 41.3438 8.51318 41.3438 9.57031C41.3438 10.6274 42.2007 11.4844 43.2578 11.4844H54.7422C55.7991 11.4844 56.6562 10.6274 56.6562 9.57031C56.6562 8.51318 55.7991 7.65625 54.7422 7.65625Z" fill="black"/>
<path d="M49 65.0781C58.4987 65.0781 66.2266 57.3503 66.2266 47.8516C66.2266 38.3528 58.4987 30.625 49 30.625C39.5013 30.625 31.7734 38.3528 31.7734 47.8516C31.7734 57.3503 39.5013 65.0781 49 65.0781ZM49 34.4531C56.3879 34.4531 62.3984 40.4637 62.3984 47.8516C62.3984 55.2395 56.3879 61.25 49 61.25C41.6121 61.25 35.6016 55.2395 35.6016 47.8516C35.6016 40.4637 41.6121 34.4531 49 34.4531Z" fill="black"/>
<path d="M41.3438 49.7656C42.4009 49.7656 43.2578 48.9087 43.2578 47.8516C43.2578 44.6853 45.8338 42.1094 49 42.1094C50.0569 42.1094 50.9141 41.2524 50.9141 40.1953C50.9141 39.1382 50.0569 38.2812 49 38.2812C43.7229 38.2812 39.4297 42.5745 39.4297 47.8516C39.4297 48.9087 40.2866 49.7656 41.3438 49.7656Z" fill="black"/>
<path d="M84.6016 26.7969H88.4297C89.4866 26.7969 90.3438 25.9399 90.3438 24.8828C90.3438 23.8257 89.4866 22.9688 88.4297 22.9688H84.6016C83.5446 22.9688 82.6875 23.8257 82.6875 24.8828C82.6875 25.9399 83.5446 26.7969 84.6016 26.7969Z" fill="black"/>
</svg>
