<svg width="97" height="96" viewBox="0 0 97 96" fill="none" xmlns="http://www.w3.org/2000/svg">
<path d="M88.8453 29.4402C86.8987 30.2168 84.7817 30.6562 82.5625 30.6562C73.1715 30.6562 65.5312 23.016 65.5312 13.625C65.5312 11.4058 65.9707 9.28884 66.7473 7.34388C61.1815 4.82155 55.0076 3.40625 48.5 3.40625C24.0448 3.40625 4.21875 23.2323 4.21875 47.6875C4.21875 53.7234 5.43137 59.4748 7.61819 64.7188H28.0625V51.0938H41.6875V71.5312H48.5V78.3438V85.1562V85.3453C48.5 86.9241 48.873 88.5029 49.5798 89.9165L50.5795 91.916C74.069 90.8294 92.7812 71.4461 92.7812 47.6875C92.7812 41.1799 91.366 35.006 88.8453 29.4402Z" fill="#FA6450"/>
<path d="M81.8387 30.6205C73.0267 30.2475 65.9417 23.1608 65.5687 14.3505C60.4457 11.7158 54.6449 10.2188 48.5 10.2188C27.8394 10.2188 11.0312 27.0269 11.0312 47.6875C11.0312 53.8187 12.5215 59.6043 15.1426 64.7188H28.0625V51.0938H41.6875V71.5312H48.5V78.3438V85.1562C69.1606 85.1562 85.9688 68.3481 85.9688 47.6875C85.9688 41.5426 84.4717 35.7418 81.8387 30.6205Z" fill="#F0F0F0"/>
<path d="M65.5312 48.5391H47.6484V27.25H49.3516V46.8359H65.5312V48.5391Z" fill="#505050"/>
<path d="M48.5 51.0938C46.618 51.0938 45.0938 49.5695 45.0938 47.6875C45.0938 45.8055 46.618 44.2812 48.5 44.2812C50.382 44.2812 51.9062 45.8055 51.9062 47.6875C51.9062 49.5695 50.382 51.0938 48.5 51.0938Z" fill="#FA6450"/>
<path d="M82.5625 27.25C90.0874 27.25 96.1875 21.1499 96.1875 13.625C96.1875 6.10012 90.0874 0 82.5625 0C75.0376 0 68.9375 6.10012 68.9375 13.625C68.9375 21.1499 75.0376 27.25 82.5625 27.25Z" fill="#3CC8B4"/>
<path d="M72.3438 13.625C72.3438 6.67795 77.5468 0.957156 84.2656 0.117515C83.707 0.0476871 83.1399 0 82.5625 0C75.0381 0 68.9375 6.10059 68.9375 13.625C68.9375 21.1494 75.0381 27.25 82.5625 27.25C83.1399 27.25 83.707 27.2023 84.2656 27.1325C77.5468 26.2928 72.3438 20.572 72.3438 13.625Z" fill="#1EAA96"/>
<path d="M91.0781 10.2188L80.8594 20.4375L74.0469 13.625L77.4531 10.2188L80.8594 13.625L87.6719 6.8125L91.0781 10.2188Z" fill="#F0F0F0"/>
<path d="M47.6484 13.625H49.3516V17.0312H47.6484V13.625Z" fill="#505050"/>
<path d="M79.1562 46.8359H82.5625V48.5391H79.1562V46.8359Z" fill="#505050"/>
<path d="M14.4375 46.8359H17.8438V48.5391H14.4375V46.8359Z" fill="#505050"/>
<path d="M69.5585 69.9292L70.7628 68.7249L73.1714 71.1335L71.9671 72.3378L69.5585 69.9292Z" fill="#505050"/>
<path d="M23.8054 24.1885L25.0097 22.9842L27.4183 25.3928L26.214 26.5971L23.8054 24.1885Z" fill="#505050"/>
<path d="M38.2812 74.9375V54.5H31.4688V74.9375H24.6562V81.75H45.0938V74.9375H38.2812Z" fill="#505050"/>
<path d="M24.6562 74.9375H28.0625V81.75H24.6562V74.9375Z" fill="#3C3C3C"/>
<path d="M46.5329 91.4391C45.586 89.5469 45.0938 87.4606 45.0938 85.3453V81.75H24.6562V85.3453C24.6562 87.4606 24.164 89.5469 23.2171 91.4391L21.25 95.375H48.5L46.5329 91.4391Z" fill="#FAB400"/>
<path d="M28.0625 85.3453V81.75H24.6562V85.3453C24.6562 87.4606 24.164 89.5469 23.2171 91.4391L21.25 95.375H24.6562L26.6234 91.4391C27.5703 89.5469 28.0625 87.4606 28.0625 85.3453Z" fill="#DC9600"/>
<path d="M30.6172 85.1562H32.3203V95.375H30.6172V85.1562Z" fill="#505050"/>
<path d="M37.4297 85.1562H39.1328V95.375H37.4297V85.1562Z" fill="#505050"/>
<path d="M31.4688 54.5H34.875V74.9375H31.4688V54.5Z" fill="#3C3C3C"/>
<path d="M21.25 85.3453V85.1562V78.3438V74.9375H4.21875L7.14983 92.5291C7.42403 94.1709 8.84614 95.375 10.5101 95.375H17.4401L20.1702 89.9165C20.877 88.5046 21.25 86.9241 21.25 85.3453Z" fill="#FA6450"/>
<path d="M10.5561 92.5291L7.625 74.9375H4.21875L7.14983 92.5291C7.42403 94.1709 8.84614 95.375 10.5101 95.375H13.9163C12.2524 95.375 10.8303 94.1709 10.5561 92.5291Z" fill="#DC4632"/>
<path d="M50.5625 91.8821C51.0087 91.8583 51.4618 91.86 51.9063 91.8259C51.4209 91.7884 50.9423 91.7339 50.462 91.6812L50.5625 91.8821Z" fill="#DC4632"/>
<path d="M14.4375 64.7188C12.249 59.4748 11.0312 53.7251 11.0312 47.6875C11.0312 24.3785 29.0435 5.28991 51.9062 3.54931C50.7805 3.46416 49.6479 3.40625 48.5 3.40625C24.0448 3.40625 4.21875 23.2323 4.21875 47.6875C4.21875 53.7234 5.43137 59.4748 7.61819 64.7188H14.4375Z" fill="#DC4632"/>
<path d="M24.6562 71.5312H28.0625V68.125H4.21875C2.3368 68.125 0.8125 69.6493 0.8125 71.5312C0.8125 73.4115 2.3368 74.9375 4.21875 74.9375H21.25V71.5312H24.6562Z" fill="#BE2814"/>
</svg>
