<svg width="50" height="50" viewBox="0 0 50 50" fill="none" xmlns="http://www.w3.org/2000/svg">
<path d="M17.8571 39.0625C17.8571 39.9219 17.0536 40.625 16.0714 40.625C15.0893 40.625 14.2857 39.9219 14.2857 39.0625V18.75C14.2857 17.8906 15.0893 17.1875 16.0714 17.1875C17.0536 17.1875 17.8571 17.8906 17.8571 18.75V39.0625ZM26.7857 39.0625C26.7857 39.9219 25.9821 40.625 25 40.625C24.0179 40.625 23.2143 39.9219 23.2143 39.0625V18.75C23.2143 17.8906 24.0179 17.1875 25 17.1875C25.9821 17.1875 26.7857 17.8906 26.7857 18.75V39.0625ZM35.7143 39.0625C35.7143 39.9219 34.9107 40.625 33.9286 40.625C32.9464 40.625 32.1429 39.9219 32.1429 39.0625V18.75C32.1429 17.8906 32.9464 17.1875 33.9286 17.1875C34.9107 17.1875 35.7143 17.8906 35.7143 18.75V39.0625ZM35.4353 2.43555L39.5313 7.8125H47.3214C48.8058 7.8125 50 8.8623 50 10.1562C50 11.4551 48.8058 12.5 47.3214 12.5H46.4286V42.1875C46.4286 46.5039 42.433 50 37.5 50H12.5C7.5692 50 3.57143 46.5039 3.57143 42.1875V12.5H2.67857C1.19978 12.5 0 11.4551 0 10.1562C0 8.8623 1.19978 7.8125 2.67857 7.8125H10.471L14.5647 2.43555C15.7254 0.91377 17.6786 0 19.7656 0H30.2344C32.3214 0 34.2746 0.913867 35.4353 2.43555V2.43555ZM16.9085 7.8125H33.0915L30.971 5.03516C30.8036 4.81836 30.5246 4.6875 30.2344 4.6875H19.7656C19.4754 4.6875 19.096 4.81836 19.029 5.03516L16.9085 7.8125ZM8.92857 42.1875C8.92857 43.916 10.5279 45.3125 12.5 45.3125H37.5C39.4754 45.3125 41.0714 43.916 41.0714 42.1875V12.5H8.92857V42.1875Z" fill="#FFAA6B"/>
</svg>
