<svg width="26" height="26" viewBox="0 0 26 26" fill="none" xmlns="http://www.w3.org/2000/svg">
<g clip-path="url(#clip0_15_134)">
<path d="M25.7612 8.93028L25.1885 8.35762C24.8721 8.04123 24.3592 8.04123 24.0428 8.35762L19.5033 12.8971V0.819211C19.5033 0.370424 19.1399 0.00692721 18.6911 0.00692721H6.5068C6.23103 0.00692721 5.95729 -0.0418099 5.79565 0.119835L0.121437 5.79405C-0.0402077 5.95569 0.00852938 6.20384 0.00852938 6.5052V25.1877C0.00852938 25.6365 0.372027 26 0.820814 26H18.6911C19.1399 26 19.5033 25.6365 19.5033 25.1877V16.3338L25.7612 10.076C26.0776 9.75962 26.0776 9.24666 25.7612 8.93028ZM5.69452 1.39147V5.69292H1.39307L5.69452 1.39147ZM18.6911 25.1877H0.820814V6.5052H6.10066C6.32485 6.5052 6.5068 6.32325 6.5068 6.09906V0.819211H18.6911V13.7094L15.2592 17.1413C15.1942 17.097 15.1203 17.0653 15.0358 17.0653H4.47609C4.2519 17.0653 4.06995 17.2473 4.06995 17.4714C4.06995 17.6956 4.2519 17.8776 4.47609 17.8776H14.5232L12.0827 20.3181C11.9292 20.34 11.8005 20.446 11.7639 20.6061L11.4232 22.0962C11.3716 22.1876 11.357 22.3017 11.3919 22.4166C11.4037 22.4556 11.4264 22.4885 11.4475 22.5218C11.4508 22.5275 11.4528 22.5328 11.4561 22.5381C11.4747 22.5657 11.4967 22.5884 11.5206 22.6112C11.5434 22.6347 11.5661 22.6567 11.5937 22.6753C11.599 22.6786 11.6047 22.681 11.6104 22.6843C11.6441 22.7054 11.6766 22.7277 11.7156 22.7399C11.8305 22.7753 11.9442 22.7602 12.0356 22.7086L13.5258 22.3679C13.6963 22.3289 13.8064 22.1868 13.8178 22.0198L18.6915 17.1461V25.1877H18.6911ZM13.1066 21.5844L12.3804 21.7506L12.5539 20.9915L24.6151 8.93028L25.1877 9.50294L13.1066 21.5844ZM4.47569 9.75434H15.0354C15.2596 9.75434 15.4415 9.57239 15.4415 9.3482C15.4415 9.12401 15.2596 8.94205 15.0354 8.94205H4.47569C4.2515 8.94205 4.06954 9.12401 4.06954 9.3482C4.06954 9.57239 4.2515 9.75434 4.47569 9.75434ZM4.47569 13.8158H15.0354C15.2596 13.8158 15.4415 13.6338 15.4415 13.4096C15.4415 13.1854 15.2596 13.0035 15.0354 13.0035H4.47569C4.2515 13.0035 4.06954 13.1854 4.06954 13.4096C4.06954 13.6338 4.2515 13.8158 4.47569 13.8158Z" fill="white"/>
</g>
<defs>
<clipPath id="clip0_15_134">
<rect width="26" height="26" fill="white"/>
</clipPath>
</defs>
</svg>
