<svg width="26" height="25" viewBox="0 0 26 25" fill="none" xmlns="http://www.w3.org/2000/svg">
<path d="M16.9848 12.7379C16.8062 12.4403 16.5681 12.1724 16.2705 11.9344C15.9729 11.726 15.586 11.5177 15.1395 11.3689C14.7526 11.2498 14.336 11.1308 13.8895 11.0117V8.54149C14.1276 8.60102 14.3062 8.66054 14.455 8.77959C14.6931 8.98792 14.9014 9.25578 15.08 9.64268C15.2288 9.91054 15.3479 10.0891 15.4669 10.1784C15.586 10.2974 15.7645 10.357 15.9729 10.357C16.211 10.357 16.4193 10.2677 16.5979 10.0891C16.7764 9.91054 16.836 9.70221 16.836 9.46411C16.836 9.19625 16.7764 8.95816 16.6276 8.6903C16.4788 8.42245 16.3003 8.15459 16.0026 7.91649C15.705 7.6784 15.3479 7.47006 14.9312 7.32125C14.6336 7.23197 14.2764 7.17244 13.8895 7.14268V6.24983C13.8895 5.95221 13.6514 5.71411 13.3538 5.71411C13.0562 5.71411 12.8181 5.95221 12.8181 6.24983V7.14268C12.3122 7.17244 11.8657 7.29149 11.4491 7.4403C10.9133 7.64864 10.4669 7.97602 10.1991 8.39268C9.90144 8.80935 9.75263 9.28554 9.75263 9.82126C9.75263 10.3867 9.90144 10.8332 10.1693 11.2201C10.4372 11.607 10.8241 11.9046 11.2705 12.1129C11.6872 12.3213 12.1931 12.4701 12.8181 12.6189V15.6248C12.6395 15.5951 12.461 15.5355 12.3419 15.476C12.0741 15.3272 11.8955 15.1784 11.7467 14.9701C11.5979 14.7617 11.4788 14.4939 11.3598 14.1963C11.2705 13.9284 11.1514 13.7498 11.0026 13.601C10.8538 13.482 10.6752 13.3927 10.4669 13.3927C10.1991 13.3927 9.99073 13.482 9.84192 13.6605C9.66334 13.8391 9.60382 14.0177 9.60382 14.2558C9.60382 14.6724 9.75263 15.0891 10.0205 15.5058C10.2883 15.9522 10.6455 16.2796 11.0919 16.5474C11.5681 16.8153 12.1633 16.9939 12.8479 17.0534V18.7796C12.8479 19.0772 13.086 19.3153 13.3836 19.3153C13.6812 19.3153 13.9193 19.0772 13.9193 18.7796V17.0534C14.5145 17.0236 15.0503 16.8748 15.4967 16.6665C16.0622 16.3986 16.5086 16.0415 16.8062 15.5653C17.1038 15.0891 17.2526 14.5832 17.2526 13.9879C17.2526 13.5117 17.1633 13.0951 16.9848 12.7379ZM12.8181 10.7439C12.7883 10.7141 12.7586 10.7141 12.7288 10.7141C12.5503 10.6546 12.3419 10.5653 12.1633 10.476C11.9848 10.3867 11.836 10.2677 11.7169 10.1189C11.5979 9.97006 11.5681 9.82125 11.5681 9.61292C11.5681 9.3153 11.7169 9.04745 12.0443 8.80935C12.2526 8.66054 12.5205 8.57125 12.8181 8.51173V10.7439ZM14.7824 15.2379C14.5443 15.4165 14.2467 15.5355 13.8895 15.5951V12.8867C14.0383 12.9165 14.1574 12.976 14.2764 13.0058C14.5741 13.1248 14.8419 13.2736 15.0205 13.4522C15.2288 13.6605 15.3181 13.8986 15.3181 14.226C15.3181 14.6129 15.1395 14.9701 14.7824 15.2379Z" fill="black"/>
<path d="M13.3539 0C6.47885 0 0.853851 5.59524 0.853851 12.5C0.853851 19.4048 6.44909 25 13.3539 25C20.2586 25 25.8539 19.4048 25.8539 12.5C25.8539 5.59524 20.2289 0 13.3539 0ZM13.3539 23.9286C7.04433 23.9286 1.92528 18.8095 1.92528 12.5C1.92528 6.19048 7.04433 1.07143 13.3539 1.07143C19.6634 1.07143 24.7824 6.19048 24.7824 12.5C24.7824 18.8095 19.6634 23.9286 13.3539 23.9286Z" fill="black"/>
<path d="M13.3539 2.3811C7.78837 2.3811 3.2348 6.93468 3.2348 12.5002C3.2348 18.0656 7.78837 22.6192 13.3539 22.6192C18.9193 22.6192 23.4729 18.0656 23.4729 12.5002C23.4729 6.93468 18.9193 2.3811 13.3539 2.3811ZM13.3539 21.5478C8.35385 21.5478 4.30623 17.5002 4.30623 12.5002C4.30623 7.50015 8.35385 3.45253 13.3539 3.45253C18.3539 3.45253 22.4015 7.50015 22.4015 12.5002C22.4015 17.5002 18.3539 21.5478 13.3539 21.5478Z" fill="black"/>
</svg>
