<svg width="88" height="88" viewBox="0 0 88 88" fill="none" xmlns="http://www.w3.org/2000/svg">
<g clip-path="url(#clip0_541_901)">
<path d="M4.92996 83.6044C1.35684 80.0306 1.35684 74.2372 4.92996 70.6634L26.1666 49.4268L39.1076 62.3677L17.8709 83.6044C14.2978 87.1782 8.50375 87.1782 4.92996 83.6044Z" fill="#FF6977"/>
<path d="M63.0446 34.0885L36.9363 60.196L28.3392 51.5989L54.4468 25.4907L63.0446 34.0885Z" fill="#EFF3F3"/>
<path d="M40.6451 14.4043L36.931 10.6902L41.3615 6.25908C47.4113 0.209213 57.2203 0.209213 63.2701 6.25908L77.0718 20.0608L75.7143 22.5496L78.469 25.305L81.5111 24.5007L85.4944 28.4833C86.5431 29.5327 86.5431 31.2333 85.4944 32.2827L77.1887 40.5884C76.1393 41.6371 74.4387 41.6371 73.3893 40.5884L69.4066 36.6051L70.2109 33.563L67.4556 30.8083L63.0439 34.0887L54.4461 25.491C56.4455 23.4916 56.4455 20.2501 54.4461 18.2507L50.5997 14.4043C47.8511 11.6557 43.3937 11.6557 40.6451 14.4043Z" fill="#8690A6"/>
<path d="M83.5977 83.5978C87.1715 80.024 87.1715 74.2306 83.5977 70.6568L60.9511 48.0103L48.0101 60.9512L70.6567 83.5978C74.2305 87.1716 80.0239 87.1716 83.5977 83.5978Z" fill="#FFCB7C"/>
<path d="M41.8744 50.9108L50.9106 41.8746C51.9888 40.7964 53.7371 40.7964 54.8153 41.8746L60.9511 48.0104L48.0102 60.9514L41.8744 54.8156C40.7961 53.7373 40.7961 51.989 41.8744 50.9108Z" fill="white"/>
<path d="M49.6276 43.1569L43.1574 49.6277L11.1289 17.5992L17.5991 11.1284L49.6276 43.1569Z" fill="#EFF3F3"/>
<path d="M1.71875 6.30231L6.30231 1.71875L14.6812 6.32312L17.5984 11.1282L11.1282 17.5984L6.32312 14.6812L1.71875 6.30231Z" fill="#8690A6"/>
<path d="M62.1678 46.7964C62.1678 46.7958 62.1671 46.7951 62.1664 46.7951L57.4674 42.0961L64.1712 35.3923L67.2904 33.0726L68.2969 34.079L67.745 36.165C67.5885 36.7572 67.7591 37.3869 68.1914 37.82L72.1748 41.8027C73.0066 42.6352 74.1131 43.0931 75.2893 43.0931C76.4663 43.0931 77.5721 42.6352 78.4046 41.8027L86.7096 33.4976C87.5422 32.6651 88 31.5593 88 30.3824C88 29.2054 87.5422 28.0997 86.7096 27.2678L82.727 23.2845C82.2939 22.8514 81.6635 22.6816 81.072 22.838L78.986 23.3899L77.8393 22.2431L78.5805 20.8829C78.9457 20.2135 78.8262 19.3837 78.2871 18.8446L64.4854 5.04289C57.7749 -1.66695 46.8561 -1.66695 40.1463 5.04289L35.7158 9.47404C35.0444 10.1454 35.0444 11.2337 35.7158 11.9045L39.4292 15.6186C39.7522 15.9408 40.1892 16.1221 40.6451 16.1221C41.1003 16.1221 41.5374 15.9408 41.8603 15.6186C42.8647 14.6142 44.2015 14.0603 45.6228 14.0603C47.0434 14.0603 48.3795 14.6142 49.3846 15.6186L53.2309 19.4649C54.5569 20.7909 54.5569 22.9488 53.2309 24.2741L43.2038 34.3019L18.96 10.0581L16.1502 5.43162C15.9938 5.17381 15.7729 4.96232 15.5091 4.8173L7.13017 0.212932C6.45945 -0.155659 5.62693 -0.0374953 5.08646 0.503642L0.503579 5.0872C-0.0368878 5.62767 -0.155723 6.46019 0.212868 7.13023L4.81724 15.5091C4.96226 15.773 5.17374 15.9939 5.43156 16.1503L10.0594 18.9607L34.3025 43.2038L28.3386 49.1678L27.3819 48.2117C26.7105 47.5403 25.6228 47.5403 24.9515 48.2117L3.71482 69.4484C-0.522972 73.6861 -0.522972 80.582 3.71482 84.8198C5.83372 86.9387 8.61729 87.9981 11.4009 87.9981C14.1844 87.9981 16.968 86.9387 19.0869 84.8198L40.3235 63.5831C40.9949 62.9124 40.9949 61.8241 40.3235 61.1527L39.3675 60.196L42.096 57.4675L54.2669 69.6384C54.9383 70.3091 56.0266 70.3091 56.698 69.6384C57.3687 68.967 57.3687 67.8787 56.698 67.2079L50.4413 60.9506L60.9519 50.4407L82.3832 71.8721C83.7871 73.2759 84.5599 75.1424 84.5599 77.127C84.5599 79.1123 83.7871 80.9788 82.3832 82.3826C79.4855 85.2797 74.7704 85.2797 71.8727 82.3826L67.6355 78.1455C66.9641 77.4741 65.8765 77.4741 65.2051 78.1455C64.5337 78.8162 64.5337 79.9045 65.2051 80.5759L69.4422 84.813C71.5611 86.9319 74.3447 87.9914 77.1283 87.9914C79.9118 87.9914 82.6947 86.9319 84.8136 84.813C86.8661 82.7606 87.9967 80.0308 87.9967 77.1277C87.9967 74.2246 86.8661 71.4947 84.813 69.4416L62.1678 46.7964ZM43.0896 53.6003C42.6828 53.1941 42.6828 52.5321 43.0896 52.1259L44.372 50.8429L50.8428 44.3727L52.1258 43.0897C52.3225 42.893 52.5844 42.7842 52.863 42.7842C53.141 42.7842 53.4028 42.893 53.5995 43.0897L58.5201 48.0103L48.0096 58.5209L43.0896 53.6003ZM13.5587 17.5985L17.5984 13.5588L47.1972 43.1575L43.1568 47.1973L13.5587 17.5985ZM51.8157 13.1888C48.8166 10.1904 44.1665 9.8245 40.7646 12.0931L39.3614 10.6899L42.5774 7.47465C47.9471 2.10423 56.6845 2.10423 62.055 7.47465L74.9476 20.3666L74.2057 21.7262C73.8405 22.3962 73.96 23.2254 74.4991 23.7645L77.2545 26.5199C77.6875 26.9529 78.3173 27.1228 78.9088 26.9664L80.9955 26.4145L84.2792 29.6989C84.4618 29.8815 84.5625 30.1246 84.5625 30.383C84.5625 30.6409 84.4618 30.8839 84.2792 31.0665L75.9735 39.3722C75.7909 39.5555 75.5478 39.6562 75.29 39.6562C75.0315 39.6562 74.7885 39.5555 74.6059 39.3722L71.3214 36.0885L71.8733 34.0025C72.0298 33.4103 71.8592 32.7806 71.4269 32.3475L68.6722 29.5928C68.0686 28.9892 67.1152 28.9194 66.4311 29.4283L63.2104 31.8232L56.7228 25.3362C58.263 22.7158 57.9092 19.2817 55.662 17.0352L51.8157 13.1888ZM54.4468 27.9211L57.5298 31.0047L60.6135 34.0884L54.8772 39.8248C54.2602 39.5132 53.574 39.3474 52.863 39.3474C51.6659 39.3474 50.5414 39.8133 49.6947 40.6593L49.6276 40.7264L45.6342 36.7337L54.4468 27.9211ZM3.84641 6.60521L6.60514 3.84648L13.4506 7.60826L15.4292 10.8672L10.8664 15.4292L7.60819 13.4507L3.84641 6.60521ZM16.6558 82.3893C13.7588 85.287 9.04295 85.287 6.14524 82.3893C3.24821 79.4916 3.24821 74.7765 6.14524 71.8788L26.1667 51.858L27.1214 52.8127C27.122 52.8127 27.1227 52.8134 27.1227 52.8141L35.7205 61.4119L36.6772 62.3679L16.6558 82.3893ZM30.769 51.5989L36.7329 45.6349L40.7264 49.6277L40.6585 49.6955C39.2594 51.0947 38.9821 53.1974 39.8254 54.8766L36.9357 57.7656L30.769 51.5989Z" fill="black"/>
<path d="M60.9512 72.1729C60.4973 72.1729 60.0562 72.3568 59.736 72.6764C59.415 72.996 59.2324 73.4391 59.2324 73.8916C59.2324 74.3455 59.415 74.7866 59.736 75.1061C60.0562 75.4277 60.4993 75.6104 60.9512 75.6104C61.4037 75.6104 61.8448 75.4277 62.1664 75.1061C62.486 74.7866 62.6699 74.3434 62.6699 73.8916C62.6699 73.4391 62.486 72.998 62.1664 72.6764C61.8468 72.3568 61.4037 72.1729 60.9512 72.1729Z" fill="black"/>
</g>
<defs>
<clipPath id="clip0_541_901">
<rect width="88" height="88" fill="white"/>
</clipPath>
</defs>
</svg>
