<svg width="90" height="90" viewBox="0 0 90 90" fill="none" xmlns="http://www.w3.org/2000/svg">
<g clip-path="url(#clip0_541_870)">
<path d="M62.6264 37.2266L64.1421 32.3773C64.1421 32.3773 66.8091 31.637 68.216 34.5058C69.6225 37.3747 65.9417 43.2694 62.7663 43.7648C61.8861 41.5205 62.6264 37.2266 62.6264 37.2266Z" fill="#FAD5B1"/>
<path d="M27.1776 37.2266L25.6619 32.3773C25.6619 32.3773 22.9949 31.637 21.5881 34.5058C20.1812 37.3747 23.8624 43.2694 27.0378 43.7648C27.9179 41.5205 27.1776 37.2266 27.1776 37.2266Z" fill="#FAD5B1"/>
<path d="M34.2688 52.7456H55.7316V79.143H34.2688V52.7456Z" fill="#FAD5B1"/>
<path d="M34.2687 52.7459V56.3778C34.2687 56.3778 38.4735 65.9766 46.9547 65.9766C51.0253 65.9766 53.8703 64.3777 55.7315 62.715V52.7456H34.2687V52.7459Z" fill="#E2B691"/>
<path d="M64.0581 37.2395C64.0649 37.0368 64.0684 36.8344 64.0684 36.6317C64.0684 24.0383 67.7434 9.82983 45.3877 9.62123C45.285 9.61916 44.8882 9.61621 44.8873 9.61621C44.8873 9.61621 44.4896 9.61916 44.3866 9.62123C22.0312 9.83013 25.7062 24.0383 25.7062 36.6317C25.7062 36.8344 25.7097 37.0368 25.7162 37.2395C25.7227 37.4422 25.6938 46.6114 27.0782 48.9545C28.4626 51.2976 36.6632 62.0055 44.4376 62.0055C44.4447 61.9984 45.3429 61.9978 45.3505 62.0055C53.125 62.0055 61.3256 51.2976 62.71 48.9545C64.0944 46.6114 64.072 37.2395 64.072 37.2395H64.0581Z" fill="#FAD5B1"/>
<path d="M23.4029 32.6143C24.7333 32.295 26.2927 34.3958 26.735 35.8112C27.5308 34.2796 26.4656 29.1677 28.5957 27.4634C28.3826 24.4813 28.6523 17.2394 34.2684 15.5354C37.3285 17.8785 48.1916 19.7955 57.1375 15.5354C60.1193 17.2394 62.2494 24.2686 61.3975 29.1674C62.0366 31.2974 63.1165 32.8698 62.8958 35.8109L63.2753 36.2786C63.2753 36.2786 63.2641 31.9522 65.7001 32.3767C66.5658 29.4734 66.2964 25.3334 66.7224 24.1974C67.1485 23.0615 67.5448 16.6714 65.4298 15.5354C63.3148 14.3995 60.1904 8.0094 58.9125 7.29949C57.6347 6.58958 53.9426 8.43546 52.0964 7.29949C50.2502 6.16352 45.2785 3.74935 39.5995 6.16352C34.4885 6.02159 30.9384 5.68582 28.6665 9.61658C26.3945 13.5473 24.813 15.8196 23.4026 17.8074C21.9923 19.7952 23.4029 32.6143 23.4029 32.6143Z" fill="#240703"/>
<path d="M63.7161 32.9466C63.6725 32.6232 63.3709 32.3969 63.0522 32.4411L60.9299 32.7291C60.813 32.5571 60.6835 32.4128 60.5381 32.3036C60.2356 32.0767 58.8695 31.3367 53.994 31.3367C50.1839 31.3367 47.9659 31.8416 47.0642 32.9203C45.0705 32.1413 43.4489 32.4692 42.6174 32.7592C41.6328 31.7917 39.4541 31.3364 35.8402 31.3364C30.965 31.3364 29.5992 32.0767 29.2964 32.3033C29.1489 32.414 29.0176 32.5612 28.8996 32.7362L26.7218 32.4408C26.401 32.3969 26.1016 32.6232 26.0579 32.9463C26.0142 33.2691 26.2402 33.5665 26.5633 33.6101L28.4358 33.8642C28.3803 34.092 28.3337 34.3386 28.2983 34.6074C28.0607 36.4164 28.3174 38.9271 29.1587 39.997C29.8143 40.8317 31.3967 41.2203 34.1383 41.2203C35.5487 41.2203 37.2353 41.1164 39.1508 40.9122C40.6131 40.7562 41.7789 39.8574 42.523 38.3131C43.2438 36.8162 43.4215 34.9432 43.1795 33.8152C43.8626 33.6096 45.098 33.4231 46.6175 34.0111C46.4334 35.1518 46.6302 36.9006 47.3112 38.3137C48.055 39.8574 49.2211 40.7559 50.6828 40.9122C52.5983 41.1164 54.2849 41.2203 55.6956 41.2203C58.4369 41.2203 60.0193 40.8317 60.6753 39.997C61.5165 38.9265 61.7732 36.4159 61.5353 34.6066C61.4996 34.3348 61.4527 34.0858 61.3964 33.8559L63.2104 33.6098C63.5338 33.5668 63.7601 33.2694 63.7161 32.9466ZM41.1533 37.7563C40.6367 38.7796 39.9106 39.3481 38.995 39.4455C37.1311 39.6447 35.4974 39.7456 34.1389 39.7456C30.9966 39.7456 30.4059 39.1965 30.3194 39.0861C29.8753 38.5214 29.5351 36.5259 29.7615 34.8001C29.881 33.8899 30.1055 33.5417 30.1819 33.4844C30.7346 33.0699 33.5494 32.8129 35.8405 32.8126C40.6039 32.8126 41.5171 33.6662 41.683 33.9264C41.9001 34.2976 41.9252 36.2273 41.1533 37.7563ZM59.5154 39.0858C59.4289 39.1962 58.8379 39.7453 55.6959 39.7453C54.3374 39.7453 52.7034 39.6444 50.8395 39.4452C49.9239 39.3478 49.1981 38.7796 48.6814 37.7563C47.9096 36.2276 47.9344 34.2973 48.1509 33.9267C48.3173 33.665 49.2308 32.8117 53.9943 32.8117C56.2848 32.8117 59.0996 33.0687 59.6532 33.4836C59.7296 33.5405 59.9538 33.8887 60.0733 34.7989C60.2994 36.5253 59.9594 38.5211 59.5154 39.0858Z" fill="#0A0A0A"/>
<path d="M26.088 23.1754C26.088 24.0193 25.4103 24.7035 24.5744 24.7035H22.3543C21.5184 24.7035 20.8407 24.0193 20.8407 23.1754V18.4383C20.8407 17.5944 21.5184 16.9102 22.3543 16.9102H24.5744C25.4103 16.9102 26.088 17.5944 26.088 18.4383V23.1754Z" fill="#FCAF50"/>
<path d="M69.1286 23.1754C69.1286 24.0193 68.4509 24.7035 67.615 24.7035H65.395C64.5591 24.7035 63.8813 24.0193 63.8813 23.1754V18.4383C63.8813 17.5944 64.5591 16.9102 65.395 16.9102H67.615C68.4509 16.9102 69.1286 17.5944 69.1286 18.4383V23.1754Z" fill="#FCAF50"/>
<path d="M44.8946 1.32422H44.8613C37.1916 1.32422 21.7264 5.50076 21.9282 24.347C26.8731 24.2452 62.8831 24.2452 67.828 24.347C68.0298 5.50106 52.5644 1.32422 44.8946 1.32422Z" fill="#FDCB59"/>
<path d="M46.8964 16.9103C46.8964 18.0357 45.9926 18.9477 44.8782 18.9477C43.7635 18.9477 42.86 18.0354 42.86 16.9103V2.03737C42.86 0.912023 43.7637 0 44.8782 0C45.9929 0 46.8964 0.912318 46.8964 2.03737V16.9103Z" fill="#FCAD4F"/>
<path d="M56.6852 12.8358C56.6852 13.9612 55.7814 14.8732 54.667 14.8732C53.5523 14.8732 52.6488 13.9609 52.6488 12.8358V3.76931C52.6488 2.64396 53.5526 1.73193 54.667 1.73193C55.7817 1.73193 56.6852 2.64425 56.6852 3.76931V12.8358Z" fill="#FCAD4F"/>
<path d="M37.2084 12.8358C37.2084 13.9612 36.3046 14.8732 35.1902 14.8732C34.0755 14.8732 33.172 13.9609 33.172 12.8358V3.76931C33.172 2.64396 34.0758 1.73193 35.1902 1.73193C36.3049 1.73193 37.2084 2.64425 37.2084 3.76931V12.8358Z" fill="#FCAD4F"/>
<path d="M69.4818 22.9212C65.1929 22.1573 51.6955 21.877 44.8782 21.877C38.0608 21.877 24.5634 22.157 20.2745 22.9212C19.5681 23.074 19.3285 23.6851 19.5858 25.0816C19.7372 26.1512 19.8204 26.792 20.8295 26.6902C21.8386 26.5884 39.2074 25.5696 44.8782 25.5696C50.5489 25.5696 67.9177 26.5884 68.9268 26.6902C69.9359 26.792 70.0191 26.1512 70.1705 25.0816C70.4278 23.6851 70.1882 23.0737 69.4818 22.9212Z" fill="#FCAE4F"/>
<path d="M78.1232 80.4313C77.7237 70.4796 70.0657 68.1808 65.4675 67.701C64.205 67.5691 60.4873 67.5748 57.9265 67.5963L57.9288 67.5904C56.442 67.6031 55.3435 67.6211 55.3435 67.6211C55.1488 70.9526 51.1333 70.9296 44.9436 71.0494C38.7539 70.9296 34.3186 70.2002 34.3186 67.6211C34.3186 67.6211 33.3228 67.604 31.9543 67.5916L31.9566 67.5975C29.4932 67.575 25.8156 67.5671 24.5327 67.701C19.9345 68.1808 12.2763 70.4793 11.8768 80.4313C11.533 82.913 11.8768 86.4584 11.8768 86.4584C11.8768 86.4584 23.0695 89.8841 44.2234 89.9983C44.3809 90.0006 45.619 90.0006 45.7766 89.9983C66.9307 89.8841 78.1232 86.4584 78.1232 86.4584C78.1232 86.4584 78.4669 82.913 78.1232 80.4313Z" fill="#262626"/>
<path d="M44.9436 71.0494L51.5393 76.2277L58.0156 67.3887L58.4387 67.9921L51.5393 77.2265L45 71.6425L44.9436 71.0494Z" fill="#0C0C0C"/>
<path d="M44.9016 70.9474L38.3924 76.2277L31.9162 67.3887L31.493 67.9921L38.3924 77.2265L44.9999 71.6425L44.9016 70.9474Z" fill="#0C0C0C"/>
<path d="M44.9436 71.0492L34.2828 63.8657L31.7518 67.5746L38.3476 76.532L44.9436 71.0492Z" fill="#262626"/>
<path d="M44.9436 71.0492L55.7457 63.8657L58.1353 67.5746L51.5393 76.532L44.9436 71.0492Z" fill="#262626"/>
<path d="M70.2599 68.8231C68.5739 68.1672 66.8785 67.8479 65.4702 67.701C64.4077 67.5901 61.6079 67.5765 59.2206 67.5877L59.2203 67.5883C59.2203 67.5883 56.6386 80.2353 44.9732 88.6448C44.9714 88.6516 44.9696 88.6584 44.9678 88.6651C44.964 88.6625 44.9605 88.6595 44.9566 88.6569C44.9528 88.6595 44.9493 88.6625 44.9454 88.6651C44.9436 88.6584 44.9419 88.6516 44.9401 88.6448C33.275 80.2356 30.6929 67.5892 30.6929 67.5883C28.3756 67.5762 25.6123 67.5886 24.5351 67.701C23.1108 67.8497 21.3927 68.1737 19.6879 68.8446C21.3833 72.5063 23.6546 81.3607 22.6299 88.558C27.9389 89.2924 35.1654 89.9492 44.2261 89.9982C44.3836 90.0006 45.6217 90.0006 45.7792 89.9982C54.8024 89.9495 62.0063 89.298 67.3093 88.5672C66.2793 81.3542 68.563 72.473 70.2599 68.8231Z" fill="#F05C38"/>
<path d="M24.5076 67.6925C24.1208 67.733 23.7109 67.7878 23.2872 67.8575C23.7992 69.7901 27.0026 81.729 30.0272 89.3704C31.9425 89.5336 33.9999 89.6746 36.2075 89.7803C31.8044 81.8435 27.3496 67.594 27.3475 67.5869C26.1372 67.6011 25.0818 67.6326 24.5076 67.6925Z" fill="#FDCB59"/>
<path d="M65.4427 67.6928C64.8343 67.6293 63.6555 67.5978 62.3119 67.5845L62.311 67.5868C62.311 67.5868 57.85 81.8579 53.4436 89.7938C55.6468 89.692 57.7054 89.5557 59.6212 89.396C62.6721 81.6968 65.9086 69.6065 66.3828 67.814C66.0588 67.7653 65.7431 67.724 65.4427 67.6928Z" fill="#FDCB59"/>
</g>
<defs>
<clipPath id="clip0_541_870">
<rect width="90" height="90" fill="white"/>
</clipPath>
</defs>
</svg>
