<svg width="95" height="95" viewBox="0 0 95 95" fill="none" xmlns="http://www.w3.org/2000/svg">
<path d="M13.2069 87.5961H9.54063C5.04001 87.5961 1.3916 83.9477 1.3916 79.4471V9.54063C1.3916 5.04001 5.04001 1.3916 9.54063 1.3916H13.2069V87.5961Z" fill="#964F09"/>
<path d="M61.6615 87.5961H13.2069V1.3916H61.6615C63.6844 1.3916 65.3242 3.03146 65.3242 5.0543V83.9334C65.3242 85.9563 63.6844 87.5961 61.6615 87.5961Z" fill="#E68D35"/>
<path d="M61.6615 1.3916H54.2396C56.2625 1.3916 57.9023 3.03146 57.9023 5.0543V83.9334C57.9023 85.9563 56.2625 87.5961 54.2396 87.5961H61.6615C63.6843 87.5961 65.3242 85.9563 65.3242 83.9334V5.0543C65.3242 3.03146 63.6843 1.3916 61.6615 1.3916Z" fill="#D47619"/>
<path d="M65.3273 82.5503H9.97573C7.94584 82.5503 6.30042 80.9049 6.30042 78.875V74.9614C6.30042 72.9316 7.94584 71.2861 9.97573 71.2861H65.3273V82.5503Z" fill="white"/>
<path d="M20.672 87.6334L13.2069 93.6084V77.0405H20.672V87.6334Z" fill="#73A4FF"/>
<path d="M24.6991 13.6313H53.8322V32.9509H24.6991V13.6313Z" fill="white"/>
<path d="M82.2609 93.6088H48.3279C46.6682 93.6088 45.3226 92.2632 45.3226 90.6035V90.602C45.3226 88.9423 46.6682 87.5967 48.3279 87.5967H82.2611C83.9208 87.5967 85.2664 88.9423 85.2664 90.602V90.6035C85.2664 92.2632 83.9208 93.6088 82.2609 93.6088Z" fill="#73A4FF"/>
<path d="M82.261 87.5962H74.8391C76.4988 87.5962 77.8444 88.9418 77.8444 90.6015V90.603C77.8444 92.2627 76.4988 93.6083 74.8391 93.6083H82.261C83.9207 93.6083 85.2663 92.2627 85.2663 90.603V90.6015C85.2665 88.9418 83.9209 87.5962 82.261 87.5962Z" fill="#5C95FF"/>
<path d="M77.6479 87.6052H52.941V87.6038C52.941 84.1222 55.7634 81.2998 59.245 81.2998H71.3438C74.8254 81.2998 77.6477 84.1222 77.6477 87.6038V87.6052H77.6479Z" fill="#FFD52B"/>
<path d="M71.3438 81.2993H63.9219C67.4035 81.2993 70.2258 84.1217 70.2258 87.6033V87.6048H77.6477V87.6033C77.6479 84.1217 74.8255 81.2993 71.3438 81.2993Z" fill="#FCCA00"/>
<path d="M68.326 81.2093H62.2631V42.008C62.2631 40.3338 63.6203 38.9766 65.2945 38.9766C66.9687 38.9766 68.326 40.3338 68.326 42.008V81.2093Z" fill="#73A4FF"/>
<path d="M75.4588 55.2823H55.1302V55.2799C55.1302 49.7634 59.6023 45.2915 65.1186 45.2915H65.4704C70.9869 45.2915 75.4588 49.7636 75.4588 55.2799V55.2823Z" fill="#FFD52B"/>
<path d="M65.4702 45.2915H65.1184C63.8734 45.2915 62.6826 45.5212 61.5834 45.9374C65.3546 47.3652 68.0367 51.0086 68.0367 55.2801V55.2825H75.4586V55.2801C75.4587 49.7634 70.9867 45.2915 65.4702 45.2915Z" fill="#FCCA00"/>
<path d="M51.9595 75.0244H40.0119C38.3377 75.0244 36.9805 73.6666 36.9805 71.9914C36.9805 70.3163 38.3377 68.9585 40.0119 68.9585H51.9595C53.6337 68.9585 54.991 70.3163 54.991 71.9914C54.991 73.6664 53.6337 75.0244 51.9595 75.0244Z" fill="#FFD52B"/>
<path d="M51.9595 68.9585H44.5376C46.2118 68.9585 47.5691 70.3163 47.5691 71.9914C47.5691 73.6666 46.2118 75.0244 44.5376 75.0244H51.9595C53.6337 75.0244 54.9909 73.6666 54.9909 71.9914C54.9909 70.3163 53.6337 68.9585 51.9595 68.9585Z" fill="#FCCA00"/>
<path d="M90.577 75.0244H78.6295C76.9553 75.0244 75.598 73.6666 75.598 71.9914C75.598 70.3163 76.9553 68.9585 78.6295 68.9585H90.577C92.2512 68.9585 93.6085 70.3163 93.6085 71.9914C93.6085 73.6664 92.2512 75.0244 90.577 75.0244Z" fill="#FFD52B"/>
<path d="M90.577 68.9585H83.1552C84.8293 68.9585 86.1866 70.3163 86.1866 71.9914C86.1866 73.6666 84.8293 75.0244 83.1552 75.0244H90.577C92.2512 75.0244 93.6085 73.6666 93.6085 71.9914C93.6085 70.3163 92.2512 68.9585 90.577 68.9585Z" fill="#FCCA00"/>
<path d="M89.8134 54.0688H40.7753C40.0067 54.0688 39.3837 54.6919 39.3837 55.4604C39.3837 56.229 40.0067 56.8521 40.7753 56.8521H89.8134C90.582 56.8521 91.205 56.229 91.205 55.4604C91.205 54.6919 90.582 54.0688 89.8134 54.0688Z" fill="#FFD52B"/>
<path d="M53.832 34.3426C54.6005 34.3426 55.2236 33.7196 55.2236 32.951V13.6313C55.2236 12.8628 54.6005 12.2397 53.832 12.2397H24.6991C23.9306 12.2397 23.3075 12.8628 23.3075 13.6313V32.951C23.3075 33.7196 23.9306 34.3426 24.6991 34.3426H53.832ZM26.0907 15.0229H52.4404V31.5594H26.0907V15.0229Z" fill="#060606"/>
<path d="M90.9193 67.5812L86.6539 56.8519H89.8134C90.5819 56.8519 91.205 56.2289 91.205 55.4603C91.205 54.6918 90.5819 54.0687 89.8134 54.0687H76.785C76.3338 49.8216 73.5361 46.267 69.7174 44.7248V42.0078C69.7174 40.0661 68.4592 38.414 66.7156 37.8204V5.0543C66.7156 2.2672 64.4482 0 61.6613 0H13.2069H9.54045C4.27982 0 0 4.27982 0 9.54045V16.3281C0 17.0967 0.623066 17.7197 1.3916 17.7197C2.16014 17.7197 2.7832 17.0967 2.7832 16.3281V9.54045C2.7832 5.81448 5.81448 2.7832 9.54045 2.7832H11.8151V69.8948H9.97574C7.18178 69.8948 4.90883 72.1677 4.90883 74.9617V78.8752C4.90883 81.6692 7.18178 83.9421 9.97574 83.9421H11.8151V86.2047H9.54045C5.81448 86.2047 2.7832 83.1732 2.7832 79.4473V23.3789C2.7832 22.6104 2.16014 21.9873 1.3916 21.9873C0.623066 21.9873 0 22.6104 0 23.3789V79.4473C0 84.7081 4.27982 88.9879 9.54045 88.9879H11.8151V93.6084C11.8151 94.7482 13.1709 95.4197 14.0763 94.6948L21.2067 88.9877H44.2392C43.1196 91.8147 45.2757 95 48.3279 95H71.8053C72.5739 95 73.1969 94.3769 73.1969 93.6084C73.1969 92.8399 72.5739 92.2168 71.8053 92.2168H48.3279C46.3092 92.2168 46.2166 88.9879 48.3279 88.9879H82.2609C84.2797 88.9879 84.3722 92.2168 82.2609 92.2168H79.2202C78.4516 92.2168 77.8286 92.8399 77.8286 93.6084C77.8286 94.3769 78.4516 95 79.2202 95H82.2609C87.9182 95 87.9277 86.2047 82.2609 86.2047H78.9098C78.2498 82.6272 75.1094 79.9076 71.3437 79.9076H69.7174V56.8519H82.5524L78.287 67.5812C76.0078 67.7567 74.2063 69.6669 74.2063 71.9913C74.2063 74.431 76.1906 76.4158 78.6294 76.4158H90.5769C93.0158 76.4158 95 74.431 95 71.9913C95 69.6667 93.1985 67.7567 90.9193 67.5812ZM60.8714 69.8948H55.8533C55.1566 68.6048 53.8375 67.6994 52.3018 67.5812L48.0364 56.8519H60.8714V69.8948ZM40.0119 70.3497H51.9594C52.8636 70.3497 53.5993 71.086 53.5993 71.9911C53.5993 72.8962 52.8636 73.6324 51.9594 73.6324H40.0119C39.1077 73.6324 38.372 72.8962 38.372 71.9911C38.372 71.086 39.1077 70.3497 40.0119 70.3497ZM42.6704 67.5665L45.9858 59.2271L49.3011 67.5665H42.6704ZM73.9549 53.8902H56.6339C57.2998 49.808 60.851 46.6825 65.1186 46.6825C69.404 46.6109 73.2543 49.5954 73.9549 53.8902ZM66.9344 43.9969C65.8973 43.8629 64.6917 43.8631 63.6546 43.9969V42.0078C63.6546 41.1036 64.3903 40.368 65.2945 40.368C66.1987 40.368 66.9344 41.1036 66.9344 42.0078V43.9969ZM14.5985 2.7832H61.6615C62.9139 2.7832 63.9326 3.80204 63.9326 5.0543V37.8004C62.1582 38.3761 60.8714 40.0442 60.8714 42.008V44.725C57.0533 46.2672 54.2559 49.8212 53.804 54.0689H40.7754C40.0069 54.0689 39.3838 54.692 39.3838 55.4605C39.3838 56.2291 40.0069 56.8521 40.7754 56.8521H43.9349L39.6696 67.5814C38.1336 67.6997 36.8147 68.605 36.1178 69.895H14.5985V2.7832ZM14.5985 78.4322H19.2804V86.9649L14.5985 90.7122V78.4322ZM22.0636 86.2047V83.9421H52.4779C52.0995 84.6385 51.8277 85.4004 51.6793 86.2047H48.3279H22.0636ZM76.0531 86.2047H54.5358C55.1395 84.1752 57.0221 82.6908 59.2451 82.6908H71.3439C73.5667 82.6908 75.4493 84.1752 76.0531 86.2047ZM59.2451 79.9076C57.6969 79.9076 56.255 80.3689 55.0467 81.1588H22.0636V77.0404C22.0636 76.2718 21.4405 75.6488 20.672 75.6488H13.2069C12.4383 75.6488 11.8153 76.2718 11.8153 77.0404V81.1588H9.97593C8.71662 81.1588 7.69222 80.1344 7.69222 78.875V74.9615C7.69222 73.7022 8.71662 72.6778 9.97593 72.6778H35.6424C35.9733 74.7925 37.8067 76.4156 40.0119 76.4156H51.9594C54.1648 76.4156 55.998 74.7926 56.3289 72.6778H60.8714V79.9074H59.2451V79.9076ZM66.9344 79.8174H63.6546V56.8519H66.9344V79.8174ZM87.9186 67.5665H81.2879L84.6033 59.2271L87.9186 67.5665ZM90.5769 73.6326H78.6294C77.7252 73.6326 76.9895 72.8964 76.9895 71.9913C76.9895 71.0862 77.7252 70.3499 78.6294 70.3499H90.5769C91.4811 70.3499 92.2168 71.0862 92.2168 71.9913C92.2168 72.8964 91.4811 73.6326 90.5769 73.6326Z" fill="#060606"/>
</svg>
