<svg width="28" height="24" viewBox="0 0 28 24" fill="none" xmlns="http://www.w3.org/2000/svg">
<g clip-path="url(#clip0_15_159)">
<path d="M10.3477 22.9253C10.1483 23.6639 9.71825 23.9988 8.98689 23.9988C6.60689 24.0021 4.22801 23.9988 1.84801 23.9999C1.35185 23.9999 0.916174 23.8373 0.524174 23.5526C0.200494 23.3192 0.0672138 22.9941 0.0638538 22.6035C0.0436938 20.4599 0.00561384 18.3162 1.38449e-05 16.1726C-0.00334616 14.9148 0.0369738 13.6559 0.0683338 12.397C0.0929738 11.3922 0.960974 10.5752 1.98353 10.5762C4.52145 10.5784 7.06049 10.5773 9.59841 10.5882C9.81793 10.5882 9.96801 10.5282 10.0879 10.3548C10.7195 9.44061 11.3535 8.5297 11.9851 7.61661C12.2203 7.27625 12.4242 6.91079 12.6919 6.59879C13.4344 5.7337 13.5207 4.75079 13.3538 3.68715C13.2463 3.00534 13.1959 2.3137 13.1555 1.62425C13.1309 1.22061 13.3303 0.896609 13.6539 0.632609C14.6754 -0.203028 16.1202 -0.215028 17.3029 0.632609C18.6391 1.59043 19.3088 2.92897 19.5362 4.49661C19.7344 5.86461 19.5339 7.20534 19.1744 8.52861C19.1509 8.61697 19.1274 8.70534 19.105 8.7937C19.1016 8.81116 19.105 8.8297 19.105 8.88315C19.2035 8.88315 19.301 8.88315 19.3984 8.88315C21.4144 8.88206 23.4304 8.88206 25.4453 8.88097C26.7255 8.87988 27.7615 9.66643 27.9653 10.8228C28.1109 11.641 27.7895 12.3272 27.2395 12.9206C27.1063 13.0646 27.0783 13.1759 27.1264 13.3712C27.3829 14.4086 27.0917 15.3381 26.4679 16.1792C26.329 16.3657 26.2685 16.5184 26.2987 16.765C26.4287 17.8221 26.1599 18.7864 25.5013 19.6461C25.4184 19.7541 25.3602 19.9286 25.3815 20.0595C25.6883 21.9282 24.3432 23.0835 22.7831 23.2155C21.7728 23.3017 20.7514 23.2657 19.7344 23.2679C17.0845 23.2733 14.4346 23.2657 11.7847 23.2722C11.2807 23.2733 10.8024 23.2112 10.3477 22.9253ZM25.3983 16.7584C25.2695 16.7584 25.1597 16.7584 25.0499 16.7584C23.6499 16.7595 22.2499 16.7606 20.8499 16.7595C20.6819 16.7595 20.5106 16.7715 20.3471 16.7421C20.1107 16.6984 19.9674 16.5479 19.9808 16.2992C19.9943 16.0548 20.1376 15.9162 20.3851 15.889C20.4871 15.877 20.5901 15.8802 20.6931 15.8802C22.2421 15.8813 23.7911 15.8835 25.3411 15.8781C25.4419 15.8781 25.5819 15.8508 25.6379 15.7842C26.161 15.157 26.4331 14.4544 26.273 13.6286C26.2304 13.4093 26.1263 13.3395 25.8955 13.3417C24.4205 13.3515 22.9455 13.3472 21.4704 13.3461C21 13.3461 20.7704 13.1966 20.7794 12.8966C20.7883 12.6075 21.0056 12.4712 21.4671 12.4712C23.0351 12.469 24.6031 12.4701 26.1711 12.4657C26.2797 12.4657 26.4096 12.4646 26.4925 12.4112C27.1343 11.9901 27.2888 10.9439 26.8005 10.357C26.4376 9.9217 25.956 9.75588 25.3915 9.75697C23.2355 9.76243 21.0795 9.76025 18.9235 9.76134C18.0589 9.76134 17.9615 9.64352 18.1743 8.83297C18.4979 7.60352 18.7914 6.3697 18.6995 5.08461C18.6133 3.88679 18.2437 2.79479 17.4071 1.89261C16.8303 1.27079 16.1471 0.831154 15.2365 0.886791C14.4021 0.939154 13.9776 1.38752 14.0471 2.18497C14.1053 2.84715 14.2072 3.50606 14.2968 4.16497C14.4267 5.13043 14.2139 6.0097 13.6304 6.80497C13.3538 7.18243 13.0872 7.56861 12.8285 7.95916C12.0703 9.10788 11.3635 10.2915 10.4239 11.3159C10.3578 11.3868 10.3275 11.5122 10.3275 11.6126C10.3219 14.9432 10.3219 18.2737 10.3253 21.6042C10.3253 21.6893 10.3376 21.8039 10.3925 21.8562C10.6994 22.1442 11.0421 22.3886 11.4923 22.3886C15.0954 22.3919 18.6973 22.393 22.3003 22.3886C22.8424 22.3875 23.3543 22.2577 23.8079 21.9544C24.4328 21.5355 24.7072 20.6922 24.4171 20.065C23.24 20.065 22.0551 20.0661 20.8701 20.065C20.4042 20.065 19.9371 20.0715 19.4701 20.0595C19.2159 20.0519 19.0355 19.8708 19.0389 19.6439C19.0411 19.4028 19.1755 19.2522 19.4186 19.2064C19.5082 19.189 19.6034 19.189 19.6963 19.189C21.2834 19.1879 22.8693 19.1901 24.4563 19.1835C24.5739 19.1824 24.7397 19.1519 24.8013 19.0733C25.3311 18.3992 25.5159 17.6322 25.3983 16.7584ZM9.40801 11.4588C9.27025 11.4588 9.15153 11.4588 9.03281 11.4588C6.69985 11.4566 4.36801 11.4544 2.03505 11.4522C1.44033 11.4522 0.964334 11.8897 0.963214 12.4701C0.956494 15.7799 0.955374 19.0908 0.956494 22.4006C0.957614 22.8206 1.03153 22.9155 1.44369 23.0497C1.58145 23.0955 1.73489 23.1152 1.88161 23.1184C2.33857 23.1272 2.79553 23.1217 3.25249 23.1228C5.16545 23.1228 7.07729 23.1239 8.99025 23.1228C9.33409 23.1228 9.42257 23.0344 9.42369 22.7028C9.42481 22.3472 9.42369 21.9915 9.42369 21.6359C9.42369 18.3533 9.42369 15.0697 9.42369 11.7861C9.42369 11.6879 9.41473 11.5897 9.40801 11.4588Z" fill="white"/>
</g>
<defs>
<clipPath id="clip0_15_159">
<rect width="28" height="24" fill="white"/>
</clipPath>
</defs>
</svg>
