<svg width="73" height="89" viewBox="0 0 73 89" fill="none" xmlns="http://www.w3.org/2000/svg">
<path d="M1.45215 88.033L3.87212 70.4243C4.17825 68.0043 5.71907 61.0432 9.07487 58.5826C10.0911 57.8865 11.1713 57.2898 12.3013 56.8L13.5031 56.2842V69.3756L12.9708 69.5693C11.1965 70.2228 9.46189 71.1261 9.46189 74.4093V86.2989C9.46189 86.5217 9.64256 86.7024 9.86538 86.7024H62.4421C62.663 86.6985 62.8413 86.5203 62.8451 86.2989V74.3928C62.8451 71.1663 61.1837 70.3114 59.3285 69.6337L58.7962 69.4405V56.3161L59.9413 56.8485C61.0418 57.3309 62.0943 57.9141 63.0873 58.5908C67.1208 61.5266 68.2823 70.3434 68.2983 70.432L70.7183 88.0412L1.45215 88.033Z" fill="#08627C"/>
<path d="M69.8067 88.0332H2.37152L4.68638 70.529C4.98525 68.1575 6.46116 61.5108 9.56653 59.2362C10.5532 58.5663 11.6009 57.9899 12.6966 57.5181V68.8109C10.9141 69.4644 8.66316 70.529 8.66316 74.393V86.2831C8.66316 86.9511 9.20518 87.4931 9.87314 87.4931H62.4421C63.1101 87.4931 63.6521 86.9511 63.6521 86.2831V74.393C63.6521 70.529 61.3852 69.5535 59.6187 68.8759V57.583C60.6698 58.0441 61.6773 58.6007 62.6277 59.2444C65.7253 61.5113 67.2012 68.1658 67.5078 70.5373L69.8067 88.0332Z" fill="#08627C"/>
<path d="M10.2767 86.0408V74.5542C10.2767 70.0935 13.818 69.5529 13.9628 69.537C14.1663 69.5118 14.3193 69.3384 14.3179 69.1335V56.139L14.8342 55.937C16.0602 55.4613 17.4639 54.961 18.9965 54.4611L20.0529 54.1138V69.5694C20.0529 69.7917 20.2336 69.9724 20.4564 69.9724H51.9151C52.1379 69.9724 52.3186 69.7917 52.3186 69.5694V54.1462L58.0459 56.155V69.1335C58.0474 69.3345 58.1941 69.5055 58.3927 69.537C58.5458 69.537 62.0949 70.0935 62.0949 74.5542V86.0408C62.0954 86.0408 10.2767 86.0408 10.2767 86.0408ZM57.6182 74.4011V73.8446H52.6979V74.4011H57.6182ZM19.6499 74.4011V73.8446H14.6889V74.4011H19.6499Z" fill="#F66701"/>
<path d="M58.2314 70.3359C57.6322 70.2521 57.1851 69.7396 57.1827 69.1337V56.7117L53.0287 55.2837V69.5696C53.0287 70.2376 52.4866 70.7796 51.8187 70.7796H20.3595C19.6916 70.7796 19.1496 70.2376 19.1496 69.5696V55.2275C17.7705 55.679 16.3585 56.1711 15.0279 56.6875V69.1337C15.0294 69.7406 14.5809 70.255 13.9793 70.3359C13.6804 70.3761 10.9863 70.9002 10.9863 74.5544V85.2345H61.2322V74.5544C61.2322 70.7796 58.3525 70.3519 58.2314 70.3359ZM20.424 75.1758H13.8824V73.0383H20.424V75.1758ZM58.3927 75.1758H51.8589V73.0383H58.3927V75.1758Z" fill="#F66701"/>
<path d="M20.8275 69.166V53.8397L21.4 53.6624C23.6025 52.9848 25.5138 52.4689 26.7563 52.1381L27.2644 52.001L35.8229 62.8661C35.8971 62.9645 36.0138 63.0211 36.1373 63.0197C36.2569 63.0236 36.3713 62.9693 36.4439 62.8744L44.9618 52.0329L45.559 52.1942C46.6237 52.4849 48.6159 53.0012 50.9231 53.7191L51.4956 53.8881V69.166H20.8275Z" fill="#08627C"/>
<path d="M50.6087 54.493V68.3593H21.5695V54.4687C23.8766 53.7591 25.8607 53.2268 26.8934 52.9521L35.1937 63.3659C35.4204 63.6565 35.7687 63.8265 36.1373 63.826C36.5083 63.8275 36.8576 63.6541 37.0809 63.3581L45.2199 52.9521C46.2691 53.2345 48.2938 53.7833 50.6087 54.493Z" fill="#08627C"/>
<path d="M27.8209 51.4445V48.0728L28.9665 48.5969C30.6676 49.384 32.5204 49.7913 34.395 49.7909H37.8801C39.7207 49.7909 41.541 49.4004 43.2199 48.6453L44.3572 48.1372V51.4523L36.1295 61.9387L27.8209 51.4445Z" fill="#E6A964"/>
<path d="M43.5508 49.379V51.1698L36.0893 60.6559L28.5872 51.162V49.3311C30.3959 50.1642 32.363 50.5963 34.3548 50.5972H37.8394C39.8074 50.6011 41.7551 50.186 43.5508 49.379Z" fill="#E6A964"/>
<path d="M53.0287 33.2463C51.8841 33.2463 50.9555 32.3182 50.9555 31.1736V27.8823C50.9555 26.7396 51.8816 25.8135 53.0248 25.8135C54.1679 25.8135 55.0936 26.7391 55.0936 27.8823V31.1736C55.0936 32.3149 54.1699 33.2415 53.0287 33.2463Z" fill="#FCC082"/>
<path d="M54.3031 27.8819V31.1733C54.3031 31.8698 53.7378 32.4356 53.0408 32.4356C52.3438 32.4356 51.778 31.8698 51.778 31.1733V27.8819C51.778 27.1849 52.3438 26.6196 53.0408 26.6196C53.7378 26.6196 54.3031 27.1844 54.3031 27.8819Z" fill="#FCC082"/>
<path d="M37.0407 1.59375L37.9121 1.66641C39.4602 1.78508 40.9836 2.12124 42.4372 2.66666L42.9536 2.86816V9.78126L42.8247 9.98276C41.7097 11.605 39.9417 12.6595 37.9848 12.8706L37.0649 12.9995L37.0407 1.59375Z" fill="#D2590B"/>
<path d="M42.147 3.42447V9.54705C41.1565 10.9813 39.5827 11.9045 37.8477 12.0717V2.47266C39.3182 2.58503 40.7661 2.90521 42.147 3.42447Z" fill="#D2590B"/>
<path d="M35.2824 12.8708C33.324 12.6625 31.556 11.6075 30.4429 9.98289L30.3136 9.78139V2.47303L30.8861 2.30398C32.3543 1.88354 33.8694 1.65055 35.3952 1.60986H36.2022V13.0001L35.2824 12.8708Z" fill="#D2590B"/>
<path d="M35.4277 2.4165V12.0959C33.6907 11.9273 32.1155 11.0036 31.1201 9.57131V3.11789C32.5204 2.7018 33.9677 2.4664 35.4277 2.4165Z" fill="#D2590B"/>
<path d="M19.2387 33.2463C18.0941 33.2463 17.1655 32.3182 17.1655 31.1736V27.8823C17.1655 26.7396 18.0912 25.8135 19.2343 25.8135C20.3775 25.8135 21.3036 26.7391 21.3036 27.8823V31.1736C21.3036 32.3149 20.3799 33.2415 19.2387 33.2463Z" fill="#FCC082"/>
<path d="M20.4966 27.8819V31.1733C20.4966 31.8698 19.9314 32.4356 19.2343 32.4356C18.5373 32.4356 17.972 31.8698 17.972 31.1733V27.8819C17.972 27.1849 18.5373 26.6196 19.2343 26.6196C19.9314 26.6196 20.4966 27.1844 20.4966 27.8819Z" fill="#FCC082"/>
<path d="M21.5134 26.0592L21.2789 25.817C20.7417 25.2687 20.0064 24.9601 19.2382 24.9621C19.06 24.9621 18.8817 24.9781 18.7059 25.0105L18.2704 25.0909L17.972 24.7683C17.6591 24.3765 17.5041 23.8819 17.5366 23.3811V21.9047C17.5196 21.3084 17.7008 20.7247 18.0524 20.2432C18.2496 20.0485 18.5189 19.9463 18.7945 19.9608H19.2624C19.4852 19.9608 19.6659 19.7802 19.6659 19.5573C19.6659 19.0817 19.7628 7.78832 28.3533 3.33588L29.5313 2.72266V9.85324C29.5313 9.92057 29.5449 9.98548 29.5715 10.047C29.8781 10.6438 31.7251 13.7574 36.6619 13.7574C41.9131 13.7574 43.6796 10.1841 43.7523 10.031C43.7634 9.97192 43.7634 9.91234 43.7523 9.85324V3.1586L44.9942 3.9651C52.2542 8.61129 52.617 18.4844 52.6334 19.5656C52.6286 19.7879 52.8059 19.972 53.0287 19.9768C53.0311 19.9768 53.034 19.9768 53.0364 19.9768H53.4961C53.8027 19.9516 54.1031 20.0747 54.3031 20.3077C54.632 20.7978 54.7981 21.3786 54.7788 21.9691V23.397C54.8175 23.9279 54.6402 24.4511 54.2866 24.8492L53.9883 25.1476L53.5688 25.0749C53.3988 25.0425 53.2263 25.0265 53.0529 25.0265C52.2823 25.0231 51.5436 25.3321 51.004 25.8814L50.77 26.1236L21.5134 26.0592Z" fill="#F66701"/>
<path d="M53.9563 21.9371V23.381C53.9916 23.6954 53.902 24.0117 53.7063 24.2602C53.4884 24.218 53.2665 24.1962 53.0447 24.1958C52.0648 24.1846 51.1217 24.5653 50.4232 25.2527H21.8519C21.1641 24.5498 20.2215 24.1546 19.2382 24.1556C19.011 24.156 18.7843 24.1778 18.5606 24.22C18.3746 23.9667 18.2878 23.6537 18.3188 23.3408V21.9046C18.3 21.5215 18.3988 21.1417 18.6012 20.8157C18.6012 20.8157 18.6497 20.7673 18.7703 20.7673H19.2382C19.9062 20.7673 20.4482 20.2253 20.4482 19.5573C20.4482 18.993 20.6095 8.26444 28.7001 4.05371V9.86193C28.7001 10.0421 28.7389 10.2213 28.813 10.386C28.9016 10.5556 30.8701 14.5725 36.6377 14.5725C42.4052 14.5725 44.3733 10.5391 44.4542 10.386C44.5283 10.2213 44.567 10.0421 44.567 9.86145V4.63448C51.6574 9.16781 51.8264 19.025 51.8264 19.5656C51.8308 20.2277 52.366 20.7634 53.0287 20.7673H53.4884C53.6095 20.7673 53.6414 20.7673 53.6574 20.8157C53.87 21.15 53.9742 21.5409 53.9563 21.9371Z" fill="#F66701"/>
<path d="M34.395 48.9836C27.6156 48.9787 22.1188 43.4863 22.1101 36.7069V27.882L21.973 26.9626L22.9006 26.8657H50.3263L50.1892 27.7851V36.6585C50.2071 43.4481 44.7176 48.9661 37.9286 48.9836C37.9121 48.9836 37.8961 48.9836 37.8801 48.9836H34.395Z" fill="#FCC082"/>
<path d="M49.3745 27.6724C49.3706 27.729 49.3706 27.7852 49.3745 27.8419V36.7066C49.3653 43.0476 44.2207 48.1821 37.8796 48.1772H34.395C28.0622 48.168 22.9306 43.0399 22.9166 36.7066V27.8821C22.9214 27.8254 22.9214 27.7692 22.9166 27.7126L49.3745 27.6724Z" fill="#FCC082"/>
<path d="M69.8953 70.4244C69.8392 70.0291 68.6127 60.8254 64.0309 57.518C62.4945 56.4931 60.8495 55.641 59.1266 54.9774C59.0268 54.9004 58.9144 54.8408 58.7962 54.7997L57.7795 54.4451C56.2629 53.8561 54.6741 53.3073 53.1415 52.8316L52.2217 52.4281C52.1306 52.3967 52.0357 52.3783 51.9393 52.372C49.3827 51.565 47.1401 50.9682 45.9383 50.6456V47.9757C49.5852 45.3712 51.7494 41.1643 51.746 36.6828V34.6257C52.151 34.7782 52.5801 34.8572 53.0122 34.8596C55.0452 34.8548 56.6906 33.2064 56.6906 31.1735V27.8826C56.6896 26.9903 56.3622 26.1296 55.7713 25.4626C56.1665 24.8392 56.3656 24.1112 56.3438 23.3735V21.9697C56.4092 20.9443 56.0905 19.9324 55.4487 19.1303C55.112 18.7835 54.6848 18.5398 54.2145 18.4284C53.9238 15.0968 52.351 5.30407 43.9053 1.48908H43.8332C41.6321 0.542116 39.2674 0.0378746 36.8716 0.00445219H36.1698C33.8932 -0.0444704 31.6268 0.310097 29.4746 1.05314H29.4262C20.0854 4.48983 18.3915 14.9273 18.0931 18.3882C17.6242 18.5025 17.1965 18.7462 16.8589 19.0901C16.2021 19.8883 15.8684 20.905 15.9231 21.9373V23.3812C15.9037 24.1194 16.1028 24.846 16.4956 25.4703C15.9047 26.1373 15.5768 26.9981 15.5763 27.8903V31.1812C15.5763 33.2171 17.2266 34.8678 19.2624 34.8678C19.6925 34.8645 20.1183 34.7855 20.5208 34.6339V36.7066C20.5267 41.1367 22.6487 45.2976 26.2317 47.903V50.6456C21.9033 51.7674 17.6426 53.1353 13.4707 54.743H13.4062C11.5646 55.4391 9.80631 56.3371 8.16329 57.4212C3.58152 60.7605 2.3633 69.9647 2.30711 70.3275L0 87.9852H2.41997L4.73483 70.6423C5.0337 68.2708 6.50961 61.6236 9.61498 59.349C10.5886 58.7038 11.6203 58.1497 12.6966 57.6958V68.1817C10.9141 68.8351 8.66317 70.6661 8.66317 74.53V86.4201C8.66317 87.0881 9.20519 87.6301 9.87316 87.6301H62.4422C63.1101 87.6301 63.6521 87.0881 63.6521 86.4201V74.5542C63.6521 70.6903 61.3852 68.8593 59.6187 68.2059V57.72C60.6698 58.1811 61.6773 58.7377 62.6277 59.3814C65.7253 61.6483 67.2012 68.3028 67.5078 70.6743L69.8227 88.0171H72.2427L69.8953 70.4244ZM54.3031 27.8821V31.1735C54.3031 31.87 53.7378 32.4358 53.0408 32.4358C52.3438 32.4358 51.778 31.87 51.778 31.1735V27.8821C51.778 27.1851 52.3438 26.6198 53.0408 26.6198C53.7378 26.6198 54.3031 27.1846 54.3031 27.8821ZM37.8477 2.47286C39.3187 2.58524 40.7661 2.90542 42.147 3.42467V9.54726C41.1565 10.9815 39.5827 11.9047 37.8477 12.0719V2.47286ZM31.1201 3.07786C32.5224 2.6763 33.9692 2.45349 35.4277 2.41667V12.0961C33.6907 11.9275 32.1155 11.0038 31.1201 9.57148V3.07786ZM20.4966 31.1735C20.4966 31.87 19.9313 32.4358 19.2343 32.4358C18.5373 32.4358 17.972 31.87 17.972 31.1735V27.8821C17.972 27.1851 18.5373 26.6198 19.2343 26.6198C19.9313 26.6198 20.4966 27.1851 20.4966 27.8821V31.1735ZM19.2387 24.1959C19.011 24.1964 18.7843 24.2182 18.561 24.2604C18.3745 24.007 18.2883 23.6941 18.3188 23.3812V21.9048C18.3004 21.5217 18.3988 21.1419 18.6012 20.8159C18.6012 20.8159 18.6497 20.7675 18.7703 20.7675H19.2382C19.9062 20.7675 20.4482 20.2255 20.4482 19.5575C20.4482 18.9927 20.6095 8.26462 28.7001 4.05388V9.86162C28.7001 10.0423 28.7389 10.2215 28.813 10.3862C28.9016 10.5553 30.8701 14.5727 36.6377 14.5727C42.4052 14.5727 44.3733 10.5393 44.4542 10.3862C44.5283 10.2215 44.567 10.0423 44.567 9.86162V4.63466C51.6574 9.16799 51.8264 19.0252 51.8264 19.5657C51.8308 20.2279 52.366 20.7636 53.0287 20.7675H53.4884C53.6095 20.7675 53.6414 20.7675 53.6574 20.8159C53.8642 21.1521 53.9626 21.5435 53.9398 21.9373V23.3812C53.9757 23.6956 53.886 24.0119 53.6899 24.2604C53.4719 24.2182 53.25 24.1964 53.0282 24.1959C52.0541 24.1896 51.1173 24.5694 50.4227 25.2529H21.8519C21.1573 24.5646 20.2162 24.1838 19.2387 24.1959ZM22.9166 36.707V27.8821C22.9214 27.8259 22.9214 27.7692 22.9166 27.713H49.3745C49.3706 27.7692 49.3706 27.8259 49.3745 27.8821V36.707C49.3658 43.0476 44.2212 48.182 37.8801 48.1772H34.395C28.0622 48.1685 22.9297 43.0389 22.9166 36.707ZM43.5508 49.379V51.1697L36.0894 60.6559L28.5873 51.162V49.331C30.3959 50.1641 32.363 50.5962 34.3548 50.5972H37.8394C39.8075 50.6011 41.7552 50.1859 43.5508 49.379ZM21.634 54.4688C23.9411 53.7592 25.9256 53.2269 26.9578 52.9522L35.1937 63.366C35.4204 63.6566 35.7687 63.8266 36.1373 63.8261C36.5084 63.8276 36.8576 63.6542 37.0814 63.3582L45.2204 52.9522C46.2609 53.2346 48.2856 53.7592 50.6412 54.4931V68.3595H21.602L21.634 54.4688ZM61.2322 74.5542V85.2344H11.0831V74.5542C11.0831 70.9005 13.7773 70.3759 14.0761 70.3357C14.6744 70.251 15.118 69.738 15.1166 69.1335V56.7115C16.4477 56.1952 17.8592 55.703 19.2387 55.2516V69.5694C19.2387 70.2374 19.7807 70.7794 20.4482 70.7794H51.9073C52.5753 70.7794 53.1173 70.2374 53.1173 69.5694V55.2836L57.1827 56.7115V69.1335C57.1852 69.7395 57.6322 70.2519 58.2314 70.3357C58.3525 70.3517 61.2322 70.7794 61.2322 74.5542Z" fill="black"/>
<path d="M13.8824 73.0376H20.424V75.2076H13.8824V73.0376Z" fill="black"/>
<path d="M51.8589 73.0376H58.3927V75.2076H51.8589V73.0376Z" fill="black"/>
</svg>
