<svg width="110" height="110" viewBox="0 0 110 110" fill="none" xmlns="http://www.w3.org/2000/svg">
<g clip-path="url(#clip0_480_791)">
<path fill-rule="evenodd" clip-rule="evenodd" d="M75.1206 32.731L70.619 37.5347L74.633 43.4832C77.6056 43.5201 80.9625 40.4637 80.9625 37.4558V35.1119C80.9625 33.8027 79.89 32.731 78.5867 32.731H75.1206Z" fill="#DE9376"/>
<path fill-rule="evenodd" clip-rule="evenodd" d="M27.9649 32.731L30.7797 37.2788L28.4525 43.4832C25.4799 43.5201 22.1238 40.4637 22.1238 37.4558V35.1119C22.1238 33.8027 23.1955 32.731 24.5056 32.731H27.9649Z" fill="#DE9376"/>
<path fill-rule="evenodd" clip-rule="evenodd" d="M96.0023 108.316C101.728 108.316 102.234 108.9 100.151 102.026L91.3848 73.1168C89.3505 66.8276 84.1238 66.1277 78.2634 64.3435L63.2294 59.7764L39.8559 59.7831L24.8462 64.3435C18.9859 66.1277 13.76 66.8276 11.7248 73.1168L2.95903 102.026C0.876051 108.9 1.38211 108.316 7.10736 108.316H96.0023Z" fill="#55B8E6"/>
<path fill-rule="evenodd" clip-rule="evenodd" d="M53.5867 63.9289L57.2718 72.9775C57.3507 73.1722 57.5034 73.403 57.7224 73.6405C58.8806 74.9254 61.7793 76.4167 64.0578 73.4399L72.2513 62.5165L63.2295 59.7764C61.4142 61.0671 59.4588 62.1329 57.4245 62.8941C56.0599 63.3993 54.8053 63.7468 53.5867 63.9289Z" fill="#507FCF"/>
<path fill-rule="evenodd" clip-rule="evenodd" d="M72.2513 62.5166L64.0578 73.4401C61.7793 76.4168 58.8806 74.9255 57.7225 73.6406V83.3522H76.314V63.7528L72.2513 62.5166Z" fill="#F59556"/>
<path fill-rule="evenodd" clip-rule="evenodd" d="M57.7225 83.3521H76.314V96.1932H57.7225V83.3521Z" fill="#AAF589"/>
<path fill-rule="evenodd" clip-rule="evenodd" d="M26.7715 63.7595V83.3522H45.3689V73.6406C44.2057 74.9255 41.3062 76.4168 39.0276 73.44L30.8409 62.5225L26.7715 63.7595Z" fill="#F59556"/>
<path fill-rule="evenodd" clip-rule="evenodd" d="M26.7715 83.3521H45.3689V96.1932H26.7715V83.3521Z" fill="#AAF589"/>
<path fill-rule="evenodd" clip-rule="evenodd" d="M30.8409 62.5233L39.0276 73.4401C41.3062 76.4177 44.2057 74.9255 45.3689 73.6415C45.582 73.404 45.7407 73.1723 45.8195 72.9776L49.4996 63.9299C48.2869 63.7469 47.044 63.4062 45.6861 62.9068C43.6451 62.1456 41.6838 61.0807 39.856 59.7832L30.8409 62.5233Z" fill="#507FCF"/>
<path fill-rule="evenodd" clip-rule="evenodd" d="M26.7715 96.1934V108.34C33.0943 108.352 39.5027 108.365 45.3689 108.371V96.1934H26.7715Z" fill="#F59556"/>
<path fill-rule="evenodd" clip-rule="evenodd" d="M57.7225 96.1934V108.371C63.5828 108.365 69.9912 108.352 76.314 108.34V96.1934H57.7225Z" fill="#F59556"/>
<path fill-rule="evenodd" clip-rule="evenodd" d="M28.0505 40.1777C28.0505 46.8748 32.9969 54.918 39.856 59.783C39.887 59.8015 39.9231 59.8258 39.9533 59.8502C39.96 59.856 39.9659 59.8619 39.9718 59.8619C41.5126 60.9462 43.2616 61.9206 45.0643 62.6624C45.2715 62.748 45.4788 62.8269 45.6861 62.9067C47.044 63.406 48.2869 63.7467 49.4996 63.9288C50.8759 64.1428 52.2095 64.1428 53.5867 63.9288C54.8052 63.7467 56.0599 63.3993 57.4245 62.8941C59.4588 62.1329 61.4142 61.0671 63.2295 59.7763C70.0885 54.918 75.035 46.8689 75.035 40.1777L75.1138 32.7312L51.4055 28.7549L27.9649 32.7312L28.0505 40.1777Z" fill="#FFD9B0"/>
<path fill-rule="evenodd" clip-rule="evenodd" d="M42.6406 4.89941C34.4589 8.09605 28.4651 15.6886 27.5327 24.7792L51.4055 28.7546L75.1139 24.7792C74.1882 15.7129 68.2246 8.14473 60.0807 4.92963C60.1168 5.14279 60.1352 5.36183 60.1352 5.59346V12.4617C60.1352 14.6412 58.3502 16.4313 56.1631 16.4313H46.5514C44.3643 16.4313 42.5793 14.6412 42.5793 12.4617V5.59346C42.5793 5.35596 42.5978 5.12433 42.6406 4.89941Z" fill="#FFCC73"/>
<path fill-rule="evenodd" clip-rule="evenodd" d="M42.5793 5.5936V12.4619C42.5793 14.6414 44.3644 16.4315 46.5514 16.4315H56.1631C58.3502 16.4315 60.1352 14.6414 60.1352 12.4619V5.5936C60.1352 5.36197 60.1168 5.14293 60.0807 4.92976C59.7635 3.05492 58.1194 1.62402 56.1631 1.62402H46.5514C44.6019 1.62402 42.9687 3.04233 42.6406 4.89955C42.5978 5.12447 42.5793 5.3561 42.5793 5.5936Z" fill="#F59556"/>
<path fill-rule="evenodd" clip-rule="evenodd" d="M28.0505 40.1775C28.0505 46.8746 32.9969 54.9178 39.856 59.7828L39.9533 59.8499C39.96 59.8558 39.9659 59.8617 39.9718 59.8617C41.5126 60.946 43.2616 61.9203 45.0643 62.6622H45.0701C45.2774 62.7478 45.4788 62.8267 45.6861 62.9064C47.044 63.4058 48.2869 63.7465 49.4996 63.9286C50.8759 64.1426 52.2095 64.1426 53.5867 63.9286C54.2379 63.8313 54.89 63.6919 55.5723 63.5031C54.9815 63.3386 54.3781 63.1381 53.7453 62.9064C53.538 62.8267 53.3307 62.7478 53.1234 62.6622C51.3207 61.9203 49.5718 60.946 48.0309 59.8617L48.0125 59.8499L47.9151 59.7828C41.0561 54.9178 36.1096 46.8746 36.1096 40.1775L36.024 32.731H27.9649L28.0505 40.1775Z" fill="#EBAB92"/>
<path fill-rule="evenodd" clip-rule="evenodd" d="M42.6406 4.89941C34.4589 8.09605 28.4651 15.6886 27.5327 24.7792H33.722C34.3976 18.2155 37.7117 12.4307 42.5793 8.52238V5.59346C42.5793 5.35596 42.5978 5.12433 42.6406 4.89941Z" fill="#F59556"/>
<path fill-rule="evenodd" clip-rule="evenodd" d="M42.5793 8.52252V12.4619C42.5793 14.6414 44.3644 16.4315 46.5514 16.4315H52.1919C50.0049 16.4315 48.2198 14.6414 48.2198 12.4619V5.5936C48.2198 5.3561 48.2383 5.12447 48.2811 4.89955C48.61 3.04233 50.2424 1.62402 52.1919 1.62402H46.5514C44.6019 1.62402 42.9687 3.04233 42.6406 4.89955C42.5978 5.12447 42.5793 5.3561 42.5793 5.5936V8.52252Z" fill="#D65036"/>
<path fill-rule="evenodd" clip-rule="evenodd" d="M24.8462 64.3434C18.9859 66.1276 13.76 66.8275 11.7248 73.1167L2.95903 102.026C0.876051 108.9 1.38211 108.316 7.10736 108.316H7.43046C7.60754 107.439 7.9424 106.288 8.39894 104.772L17.1647 75.8568C18.4806 71.7899 21.1368 70.0611 24.4325 68.861C25.1811 68.5874 25.9607 68.344 26.7714 68.1065V63.7593L24.8462 64.3434Z" fill="#507FCF"/>
<path fill-rule="evenodd" clip-rule="evenodd" d="M26.7715 63.7591V68.1064C27.8986 67.7715 29.0802 67.4543 30.2862 67.0892L33.5265 66.1031L30.8401 62.5229L26.7715 63.7591Z" fill="#D65036"/>
<path fill-rule="evenodd" clip-rule="evenodd" d="M42.3963 61.3786C42.3904 61.3719 42.3837 61.3719 42.3779 61.366C41.5437 60.9036 40.7397 60.4042 40.0204 59.899C40.0146 59.8923 40.0146 59.8923 40.0146 59.8923C40.764 60.4168 41.568 60.9153 42.3963 61.3786ZM44.9669 62.6207C44.1142 62.2673 43.249 61.8469 42.4148 61.3845C42.4089 61.3845 42.4022 61.3845 42.3963 61.3786C43.2305 61.8351 44.0899 62.2556 44.9669 62.6207ZM39.856 59.7832L30.8409 62.5233L33.5273 66.1035L44.9669 62.6207C44.7898 62.5476 44.6136 62.4746 44.4365 62.3957C43.7483 62.0911 43.0727 61.7495 42.4148 61.3845C42.4089 61.3845 42.4022 61.3845 42.3963 61.3786C41.568 60.9153 40.764 60.4168 40.0146 59.8931C40.002 59.8806 39.9844 59.8747 39.9718 59.8629C39.9659 59.8629 39.96 59.8562 39.9533 59.8503C39.9231 59.826 39.887 59.8017 39.856 59.7832Z" fill="#6052C4"/>
<path fill-rule="evenodd" clip-rule="evenodd" d="M27.5327 24.7793C26.0464 24.7793 24.8286 25.997 24.8286 27.4825V30.027C24.8286 31.5192 26.0464 32.731 27.5327 32.731H75.2792C76.7654 32.731 77.9832 31.5192 77.9832 30.027V27.4825C77.9832 25.997 76.7654 24.7793 75.2792 24.7793H27.5327Z" fill="#F59556"/>
<path fill-rule="evenodd" clip-rule="evenodd" d="M24.8286 27.4825V30.027C24.8286 31.5192 26.0464 32.731 27.5327 32.731H33.7094C32.229 32.7184 31.023 31.5066 31.023 30.027V27.4825C31.023 25.997 32.2416 24.7793 33.7279 24.7793H27.5327C26.0464 24.7793 24.8286 25.997 24.8286 27.4825Z" fill="#D65036"/>
<path d="M51.6498 76.4763H51.5583C50.6612 76.4763 49.9344 75.7487 49.9344 74.8524C49.9344 73.9553 50.6612 73.2285 51.5583 73.2285H51.6498C52.5461 73.2285 53.2729 73.9553 53.2729 74.8524C53.2729 75.7496 52.5461 76.4763 51.6498 76.4763Z" fill="black"/>
<path d="M51.5583 93.1223H51.461C50.5638 93.1223 49.837 92.3956 49.837 91.4984C49.837 90.6021 50.5638 89.8745 51.461 89.8745H51.5583C52.4546 89.8745 53.1814 90.6021 53.1814 91.4984C53.1814 92.3956 52.4546 93.1223 51.5583 93.1223Z" fill="black"/>
<path d="M25.1475 83.3518V106.714C18.8239 106.702 12.5162 106.692 7.1082 106.692C6.65586 106.692 6.23624 106.695 5.84767 106.698C4.95557 106.707 3.96695 106.715 3.46173 106.644C3.52048 105.782 4.1541 103.686 4.51329 102.496L13.2741 73.6033C14.8023 68.9145 18.3187 67.9099 23.1837 66.5202C23.8215 66.3381 24.4803 66.1484 25.1475 65.947V83.3518ZM79.3385 37.4558C79.3385 38.3672 78.8064 39.4373 77.9152 40.3168C77.5174 40.7095 77.0743 41.0394 76.6186 41.2928C76.6437 40.9244 76.658 40.5585 76.658 40.1942L76.7201 34.3549H78.5857C78.9936 34.3549 79.3377 34.7015 79.3377 35.1119V37.4558H79.3385ZM46.5513 3.24699H56.1631C57.3691 3.24699 58.3644 4.16092 58.4962 5.33165C58.497 5.34172 58.4987 5.35263 58.4995 5.36354C58.5071 5.43907 58.5113 5.51544 58.5113 5.59349V12.4618C58.5113 13.755 57.458 14.8074 56.1631 14.8074H46.5513C45.2564 14.8074 44.2023 13.755 44.2023 12.4618V5.59349C44.2023 5.523 44.2074 5.45418 44.2132 5.38536C44.2174 5.34172 44.225 5.29305 44.2309 5.24605C44.4004 4.11644 45.3747 3.24699 46.5513 3.24699ZM40.9553 7.44904V12.4618C40.9553 15.546 43.4655 18.0553 46.5505 18.0553H56.1631C59.2481 18.0553 61.7583 15.546 61.7583 12.4618V7.4868C67.784 10.6751 72.0078 16.4204 73.244 23.1553H29.4033C30.647 16.3877 34.8961 10.6281 40.9553 7.44904ZM25.1702 40.3168C24.2789 39.4364 23.7468 38.3672 23.7468 37.4558V35.1119C23.7468 34.7015 24.0943 34.354 24.5055 34.354H26.3653L26.4274 40.1775C26.4274 40.5467 26.4416 40.9193 26.4676 41.2945C26.0119 41.0402 25.5688 40.7104 25.1702 40.3168ZM30.0755 43.4538C30.0721 43.2415 30.0268 43.0393 29.9496 42.8546C29.7725 41.9415 29.6744 41.0394 29.6744 40.1598L29.6122 34.3557L48.1828 34.3666H48.1836C49.0799 34.3666 49.8067 33.6398 49.8067 32.7435C49.8076 31.8472 49.0808 31.1196 48.1845 31.1196L27.9774 31.107C27.9757 31.107 27.9741 31.107 27.9724 31.107H27.5326C26.9368 31.107 26.4517 30.6228 26.4517 30.0269V27.4824C26.4517 26.8966 26.9468 26.4023 27.5326 26.4023H75.2791C75.8649 26.4023 76.3601 26.8974 76.3601 27.4824V30.0269C76.3601 30.6228 75.875 31.107 75.2791 31.107H55.6268C54.7305 31.107 54.0037 31.8338 54.0037 32.7309C54.0037 33.6272 54.7305 34.354 55.6268 34.354H73.4731L73.411 40.1775C73.411 41.0461 73.3153 41.9382 73.1416 42.8412C73.0594 43.0325 73.0124 43.2423 73.009 43.4631V43.4664C71.323 50.7098 64.5009 58.5256 56.863 61.3723C55.6495 61.8247 54.545 62.1368 53.4834 62.3097C53.4079 62.3148 53.3323 62.3257 53.2577 62.3416C52.1045 62.5086 50.9942 62.5086 49.842 62.3433C49.7656 62.3265 49.6884 62.3156 49.612 62.3097C48.5571 62.1385 47.4611 61.8314 46.2568 61.3841C38.6013 58.5399 31.764 50.7182 30.0755 43.4538ZM43.7449 106.747C39.0872 106.741 34.1374 106.731 29.2908 106.722C28.9929 106.721 28.6941 106.721 28.3945 106.72V97.816H43.7449V106.747ZM43.7449 94.569H28.3945V84.9758H43.7449V94.569ZM43.7449 81.7279H28.3945V64.9617L30.224 64.4061L37.7385 74.4266C38.9219 75.9716 40.4593 76.7966 42.1252 76.7966C42.3518 76.7966 42.5809 76.7815 42.8109 76.7504C43.1298 76.7076 43.4411 76.6329 43.7458 76.5364V81.7279H43.7449ZM44.3223 72.3486C44.1788 72.613 43.3194 73.4506 42.2914 73.5412C42.027 73.5655 41.223 73.636 40.3267 72.4653L33.5289 63.4016L39.5807 61.5628C39.631 61.5964 39.6839 61.6283 39.7359 61.661C41.4505 62.794 43.2615 63.7356 45.1263 64.428C45.8632 64.7015 46.5723 64.9265 47.2647 65.1128L44.3223 72.3486ZM56.0993 83.3518V106.751C54.5341 106.752 53.0126 106.753 51.5582 106.753C50.0963 106.753 48.5663 106.752 46.9928 106.751V74.1899C47.1296 73.9868 47.2437 73.7846 47.3243 73.5882L50.5419 65.6759C50.8767 65.6986 51.2108 65.7137 51.5439 65.7137C51.8788 65.7137 52.2145 65.6977 52.5502 65.6751L55.7686 73.5915C55.8492 73.7862 55.9625 73.9885 56.0993 74.1908V83.3518ZM58.7689 72.3486L55.8265 65.1119C56.5298 64.9231 57.2491 64.694 57.9976 64.4154C59.9061 63.7037 61.7591 62.731 63.5097 61.5586L69.5614 63.3957L62.7678 72.4535C61.8648 73.6352 61.0634 73.5639 60.7998 73.542C59.7726 73.4514 58.9124 72.6138 58.7689 72.3486ZM74.6908 106.72C74.4021 106.721 74.1126 106.721 73.8248 106.722C68.9698 106.731 64.0116 106.741 59.3463 106.747V97.816H74.6908V106.72ZM74.6908 94.569H59.3463V84.9758H74.6908V94.569ZM74.6908 81.7279H59.3463V76.5364C59.6509 76.6329 59.9631 76.7085 60.282 76.7504C60.512 76.7815 60.7394 76.7966 60.9652 76.7966C62.6302 76.7966 64.1677 75.9699 65.3569 74.414L72.868 64.3994L74.6908 64.9533V81.7279ZM101.702 101.549L96.7258 85.3349C96.4631 84.4781 95.555 83.9964 94.6973 84.2599C93.8396 84.5226 93.3579 85.4306 93.6214 86.2883L98.5981 102.502C98.9623 103.689 99.6052 105.78 99.6631 106.641C99.1545 106.714 98.1508 106.706 97.2461 106.698C96.8634 106.695 96.4513 106.692 96.0082 106.692C90.591 106.692 84.2724 106.703 77.9378 106.714V65.9377C78.6168 66.1433 79.2873 66.3364 79.9352 66.5218C84.7986 67.9116 88.3133 68.9162 89.8356 73.6025L91.7189 79.822C91.979 80.6805 92.8854 81.1648 93.744 80.9055C94.6017 80.6453 95.0867 79.7389 94.8266 78.8812L92.9383 72.6457C92.9358 72.6365 92.9324 72.6264 92.9291 72.6172C90.8771 66.2726 85.9962 64.8769 80.8282 63.3991C80.1475 63.2044 79.4443 63.0038 78.741 62.7898L66.6745 59.1257C71.1442 55.2216 74.5843 50.062 75.9791 44.9661C77.4712 44.6548 78.9776 43.8315 80.1971 42.6272C81.7152 41.1283 82.5855 39.2434 82.5855 37.4558V35.1119C82.5855 33.1976 81.236 31.5946 79.4409 31.201C79.5466 30.8276 79.6071 30.4348 79.6071 30.0269V27.4824C79.6071 25.5438 78.3247 23.8989 76.564 23.35C75.9161 19.1093 74.2133 15.0945 71.5932 11.6729C68.9295 8.19512 65.4316 5.46425 61.4402 3.73627C60.6723 1.56265 58.5977 0 56.1631 0H46.5513C44.1301 0 42.064 1.54503 41.286 3.70018C37.2753 5.41977 33.7597 8.15147 31.0801 11.6402C28.4331 15.0869 26.7169 19.1354 26.0724 23.4138C24.4031 24.0147 23.2047 25.6092 23.2047 27.4824V30.0269C23.2047 30.4591 23.2702 30.8754 23.3877 31.2682C21.7218 31.7541 20.4999 33.2916 20.4999 35.1119V37.4558C20.4999 39.2426 21.3701 41.1283 22.8875 42.6272C24.1086 43.8323 25.6167 44.6556 27.1088 44.967C28.507 50.0678 31.9478 55.2274 36.4193 59.1299L24.3738 62.7898C23.673 63.0029 22.9714 63.2035 22.2925 63.3982C17.1228 64.8744 12.2401 66.2701 10.1806 72.6155C10.1773 72.6256 10.1748 72.6357 10.1714 72.6457L1.40477 101.556C0.246629 105.388 -0.263625 107.293 0.783738 108.69C1.75054 109.981 3.39208 109.967 5.87537 109.945C6.25554 109.942 6.66593 109.939 7.10736 109.939C12.8813 109.939 19.6808 109.951 26.4324 109.964C26.5415 109.987 26.6548 110 26.7714 110H45.3689C45.3932 110 45.4167 109.997 45.441 109.996C47.5651 109.998 49.6187 110 51.5582 110C53.4901 110 55.5353 109.998 57.6519 109.996C57.6754 109.997 57.6989 110 57.7232 110H76.3139C76.4306 110 76.5439 109.987 76.653 109.964C83.4147 109.951 90.2259 109.939 96.0082 109.939C96.4421 109.939 96.8449 109.942 97.2192 109.945C99.721 109.966 101.374 109.98 102.344 108.679C103.394 107.27 102.876 105.371 101.702 101.549Z" fill="black"/>
</g>
<defs>
<clipPath id="clip0_480_791">
<rect width="110" height="110" fill="white"/>
</clipPath>
</defs>
</svg>
