<svg width="110" height="110" viewBox="0 0 110 110" fill="none" xmlns="http://www.w3.org/2000/svg">
<path d="M59.8613 6.875C58.9497 6.875 58.0753 7.23723 57.4305 7.88197L44.6875 20.625V34.375H85.9375C89.7344 34.375 92.8125 31.2969 92.8125 27.5H96.25V6.875H59.8613Z" fill="#F0915A"/>
<path d="M75.625 82.5002H34.375C32.4764 82.5002 30.9375 80.9613 30.9375 79.0627V47.5522C30.9375 45.6537 32.4764 44.1147 34.375 44.1147H75.625C77.5236 44.1147 79.0625 45.6537 79.0625 47.5522V79.0627C79.0625 80.9613 77.5234 82.5002 75.625 82.5002Z" fill="#CD3232"/>
<path d="M61.875 82.5002H34.375C32.4764 82.5002 30.9375 80.9613 30.9375 79.0627V47.5522C30.9375 45.6537 32.4764 44.1147 34.375 44.1147H61.875C63.7736 44.1147 65.3125 45.6537 65.3125 47.5522V79.0627C65.3125 80.9613 63.7734 82.5002 61.875 82.5002Z" fill="#FF4646"/>
<path d="M77.3438 37.8125H32.6562C31.7071 37.8125 30.9375 37.0429 30.9375 36.0938V15.4688C30.9375 14.5196 31.7071 13.75 32.6562 13.75H77.3438C78.2929 13.75 79.0625 14.5196 79.0625 15.4688V36.0938C79.0625 37.0429 78.2929 37.8125 77.3438 37.8125Z" fill="#78AF41"/>
<path d="M72.1875 17.1875H37.8125C37.8125 19.0861 36.2736 20.625 34.375 20.625V30.9375C36.2736 30.9375 37.8125 32.4764 37.8125 34.375H72.1875C72.1875 32.4764 73.7264 30.9375 75.625 30.9375V20.625C73.7264 20.625 72.1875 19.0861 72.1875 17.1875Z" fill="#466932"/>
<path d="M55 32.6562C58.797 32.6562 61.875 29.5782 61.875 25.7812C61.875 21.9843 58.797 18.9062 55 18.9062C51.203 18.9062 48.125 21.9843 48.125 25.7812C48.125 29.5782 51.203 32.6562 55 32.6562Z" fill="#78AF41"/>
<path d="M49.8438 82.5H35.209C32.4741 82.5 29.851 83.5865 27.917 85.5205L24.0625 89.375L32.6562 97.9688L36.8057 93.8193C37.4505 93.1745 38.3247 92.8125 39.2365 92.8125H49.8438C52.6915 92.8125 55 90.504 55 87.6562C55 84.8085 52.6915 82.5 49.8438 82.5Z" fill="#FAB991"/>
<path d="M74.6182 80.0694C73.2759 78.7269 71.0993 78.7269 69.757 80.0694L57.0137 92.8127H39.2365C38.3249 92.8127 37.4505 93.1749 36.8057 93.8194L32.6562 97.9689L37.8125 103.125L41.25 99.6877H57.7257C59.1031 99.6877 60.398 99.1512 61.3716 98.1773L74.6182 84.9307C75.9606 83.5883 75.9606 81.412 74.6182 80.0694Z" fill="#F0915A"/>
<path d="M49.8438 90.5208H48.698C47.7488 90.5208 46.9792 89.7512 46.9792 88.802V86.5103C46.9792 85.5611 47.7488 84.7915 48.698 84.7915H49.8438C51.4259 84.7915 52.7083 86.0741 52.7083 87.656C52.7083 89.2383 51.4259 90.5208 49.8438 90.5208Z" fill="#F0915A"/>
<path d="M23.5591 88.8715L32.6562 97.9687L24.0625 106.562H3.4375L21.1284 88.8715C21.7996 88.2004 22.8879 88.2004 23.5591 88.8715Z" fill="#463C4B"/>
<path d="M32.6563 97.9688L38.3159 103.628C38.9871 104.3 38.9871 105.388 38.3159 106.059L37.8125 106.562H24.0625L32.6563 97.9688Z" fill="#32283C"/>
<path d="M59.6529 21.8404L59.8434 22.0309C62.8639 25.0514 67.7611 25.0514 70.7816 22.0309L73.9063 18.9062H82.5C88.1955 18.9062 92.8125 14.2893 92.8125 8.59375V6.875H73.6113C72.6997 6.875 71.8253 7.23723 71.1805 7.88176L59.6527 19.4096C58.9817 20.0808 58.9817 21.1692 59.6529 21.8404Z" fill="#FAB991"/>
<path d="M60.1562 18.9062L60.3036 19.0536C61.646 20.3959 63.8226 20.3959 65.1649 19.0536L66.1371 18.0814C66.4727 17.7458 66.4727 17.2016 66.1371 16.8661L64.1665 14.8955L60.1562 18.9062Z" fill="#F0915A"/>
<path d="M99.6875 30.9375H106.562V3.4375H99.6875C97.7889 3.4375 96.25 4.97643 96.25 6.875V27.5C96.25 29.3986 97.7889 30.9375 99.6875 30.9375Z" fill="#463C4B"/>
<path d="M101.406 17.1875H106.562V30.9375H99.6875V18.9062C99.6875 17.9571 100.457 17.1875 101.406 17.1875Z" fill="#32283C"/>
<path d="M51.5625 49.844H44.6875C43.7383 49.844 42.9688 49.0744 42.9688 48.1252V44.1147H53.2812V48.1252C53.2812 49.0744 52.5117 49.844 51.5625 49.844Z" fill="#FAA037"/>
<path d="M59.2969 77.3438H54.1406C53.666 77.3438 53.2812 76.959 53.2812 76.4844V73.0469C53.2812 72.5723 53.666 72.1875 54.1406 72.1875H59.2969C59.7715 72.1875 60.1562 72.5723 60.1562 73.0469V76.4844C60.1562 76.959 59.7715 77.3438 59.2969 77.3438Z" fill="#CD3232"/>
</svg>
