<svg width="25" height="25" viewBox="0 0 25 25" fill="none" xmlns="http://www.w3.org/2000/svg">
<path d="M12.5 0C5.5971 0 0 5.5971 0 12.5C0 19.4029 5.5971 25 12.5 25C19.4029 25 25 19.4029 25 12.5C25 5.5971 19.4029 0 12.5 0ZM12.5 22.8795C6.76897 22.8795 2.12054 18.231 2.12054 12.5C2.12054 6.76897 6.76897 2.12054 12.5 2.12054C18.231 2.12054 22.8795 6.76897 22.8795 12.5C22.8795 18.231 18.231 22.8795 12.5 22.8795Z" fill="#F5F1FF"/>
<path d="M11.3843 18.6383C11.3843 18.9343 11.5019 19.2181 11.7112 19.4274C11.9205 19.6367 12.2044 19.7543 12.5004 19.7543C12.7964 19.7543 13.0803 19.6367 13.2896 19.4274C13.4989 19.2181 13.6165 18.9343 13.6165 18.6383C13.6165 18.3423 13.4989 18.0584 13.2896 17.8491C13.0803 17.6398 12.7964 17.5222 12.5004 17.5222C12.2044 17.5222 11.9205 17.6398 11.7112 17.8491C11.5019 18.0584 11.3843 18.3423 11.3843 18.6383ZM15.6143 7.05064C14.7772 6.31962 13.6723 5.91504 12.5004 5.91504C11.3285 5.91504 10.2236 6.31683 9.38658 7.05064C8.51604 7.81236 8.03613 8.83636 8.03613 9.9329V10.1449C8.03613 10.2677 8.13658 10.3682 8.25935 10.3682H9.59863C9.7214 10.3682 9.82185 10.2677 9.82185 10.1449V9.9329C9.82185 8.70243 11.0244 7.70075 12.5004 7.70075C13.9764 7.70075 15.179 8.70243 15.179 9.9329C15.179 10.8006 14.5652 11.5958 13.6165 11.9614C13.025 12.1874 12.5227 12.5836 12.1628 13.1025C11.7945 13.6327 11.6076 14.2688 11.6076 14.9134V15.5133C11.6076 15.636 11.708 15.7365 11.8308 15.7365H13.1701C13.2928 15.7365 13.3933 15.636 13.3933 15.5133V14.8799C13.3947 14.609 13.4778 14.3449 13.6315 14.1219C13.7853 13.8989 14.0028 13.7275 14.2554 13.6299C15.9016 12.9965 16.9647 11.5456 16.9647 9.9329C16.9647 8.83636 16.4848 7.81236 15.6143 7.05064Z" fill="#F5F1FF"/>
</svg>
