<svg width="110" height="110" viewBox="0 0 110 110" fill="none" xmlns="http://www.w3.org/2000/svg">
<path d="M64.2104 88.109H16.9401V76.2857L21.9623 68.0693L16.9401 59.8528V5.93945H64.2104V59.8528L59.1882 68.0693L64.2104 76.2857V88.109Z" fill="#63BCE7"/>
<path d="M28.2645 68.0693L23.2423 59.8528V5.93945H16.9401V59.8528L21.9623 68.0693L16.9401 76.2857V88.109H23.2423V76.2857L28.2645 68.0693Z" fill="#6377E7"/>
<path d="M36.1514 21.915C37.6914 23.3742 38.4636 25.4299 38.4636 28.0819C38.4636 30.7348 37.6919 32.7896 36.1514 34.2488C34.6076 35.708 32.6263 36.4367 30.208 36.4367C27.7197 36.4367 25.7087 35.708 24.1653 34.2488C22.6253 32.7896 21.8531 30.7348 21.8531 28.0819C21.8531 25.4299 22.6249 23.3742 24.1653 21.915C25.7092 20.4567 27.7197 19.7271 30.208 19.7271C32.6263 19.7271 34.6076 20.4567 36.1514 21.915ZM52.752 23.1186L35.6856 54.4617C35.3428 55.0912 34.6832 55.4835 33.966 55.4835H30.22C28.7346 55.4835 27.7901 53.8941 28.5004 52.5896L45.5633 21.246C45.9062 20.6161 46.5658 20.2242 47.2829 20.2242H51.0319C52.5178 20.2242 53.4622 21.814 52.752 23.1186ZM28.2194 30.4942C28.6826 31.0738 29.3112 31.3643 30.1087 31.3643C30.9359 31.3643 31.601 31.0738 32.0973 30.4942C32.5936 29.9145 32.8437 29.1101 32.8437 28.0819C32.8437 27.0545 32.5936 26.2506 32.0973 25.6696C31.601 25.0908 30.9359 24.7995 30.1087 24.7995C29.3112 24.7995 28.6826 25.0908 28.2194 25.6696C27.7528 26.2506 27.5212 27.0545 27.5212 28.0819C27.5207 29.1101 27.7523 29.9145 28.2194 30.4942ZM57.0626 41.4099C58.588 42.8692 59.349 44.9239 59.349 47.576C59.349 50.2288 58.588 52.2926 57.0626 53.7678C55.5372 55.2437 53.5486 55.9807 51.0934 55.9807C48.6747 55.9807 46.6934 55.2437 45.1534 53.7678C43.6095 52.2931 42.8378 50.2288 42.8378 47.576C42.8378 44.9239 43.6095 42.8692 45.1534 41.4099C46.6934 39.9507 48.6747 39.2211 51.0934 39.2211C53.5486 39.2211 55.5372 39.9507 57.0626 41.4099ZM49.1559 50.0381C49.6191 50.619 50.2658 50.9082 51.093 50.9082C51.8904 50.9082 52.5264 50.6186 53.0081 50.0381C53.4897 49.4584 53.7287 48.6377 53.7287 47.5764C53.7287 46.549 53.4897 45.7451 53.0081 45.165C52.5264 44.5853 51.8904 44.294 51.093 44.294C50.2658 44.294 49.6191 44.5853 49.1559 45.165C48.6893 45.7446 48.4577 46.549 48.4577 47.5764C48.4577 48.6373 48.6893 49.458 49.1559 50.0381Z" fill="#F46275"/>
<path d="M64.2078 21.0269V41.2913L60.219 36.6116C58.5651 34.6712 55.6244 34.437 53.6839 36.0908C51.7434 37.7447 51.5092 40.6855 53.1631 42.626L62.2368 53.2715C62.2368 53.2715 59.5285 64.7003 66.6673 71.2302H86.8489L85.0597 46.6788C84.8448 44.4113 83.4466 42.4932 82.0252 40.9068L64.2078 21.0269Z" fill="#F8AF23"/>
<path d="M85.0602 46.6788C84.8453 44.4113 83.4471 42.4932 82.0257 40.9068L64.2079 21.0269V28.0587L75.7235 40.9072C77.1454 42.4936 78.5436 44.4117 78.758 46.6792L80.5472 71.2307H86.8494L85.0602 46.6788Z" fill="#F8D323"/>
<path d="M57.7415 71.2305H93.0596V85.7973H57.7415V71.2305Z" fill="#707070"/>
<path d="M86.7578 71.2305H93.06V85.7973H86.7578V71.2305Z" fill="#9E9E9E"/>
<path d="M59.8345 85.7974H90.9671V99.0103H59.8345V85.7974Z" fill="#CECECE"/>
<path d="M84.6648 85.7974H90.967V99.0103H84.6648V85.7974Z" fill="#E2E2E2"/>
<path d="M33.703 67.4248H29.1217C28.7655 67.4248 28.4772 67.7136 28.4772 68.0693C28.4772 68.4251 28.7655 68.7139 29.1217 68.7139H33.703C34.0592 68.7139 34.3476 68.4251 34.3476 68.0693C34.3476 67.7136 34.0592 67.4248 33.703 67.4248Z" fill="#3F3679"/>
<path d="M42.8656 67.4248H38.2843C37.9281 67.4248 37.6398 67.7136 37.6398 68.0693C37.6398 68.4251 37.9281 68.7139 38.2843 68.7139H42.8656C43.2218 68.7139 43.5102 68.4251 43.5102 68.0693C43.5102 67.7136 43.2218 67.4248 42.8656 67.4248Z" fill="#3F3679"/>
<path d="M52.0284 67.4248H47.447C47.0908 67.4248 46.8025 67.7136 46.8025 68.0693C46.8025 68.4251 47.0908 68.7139 47.447 68.7139H52.0284C52.3846 68.7139 52.6729 68.4251 52.6729 68.0693C52.6729 67.7136 52.3846 67.4248 52.0284 67.4248Z" fill="#3F3679"/>
<path d="M48.654 44.7606C48.0958 45.4537 47.8131 46.4007 47.8131 47.5763C47.8131 48.7842 48.0954 49.748 48.6527 50.4402C49.2414 51.1784 50.0625 51.5527 51.0929 51.5527C52.0859 51.5527 52.8972 51.1814 53.5039 50.4501C54.0805 49.7557 54.3731 48.7889 54.3731 47.5763C54.3731 46.3977 54.0805 45.4477 53.5039 44.7529C52.895 44.0207 52.0842 43.6494 51.0929 43.6494C50.0638 43.649 49.2431 44.0237 48.654 44.7606ZM53.0841 47.5763C53.0841 48.48 52.8916 49.1692 52.5117 49.6264C52.1512 50.0612 51.7005 50.2632 51.0929 50.2632C50.4565 50.2632 50.0011 50.0638 49.6599 49.6354C49.6595 49.6345 49.6586 49.6337 49.6578 49.6328C49.2891 49.1752 49.1022 48.483 49.1022 47.5759C49.1022 46.7023 49.2895 46.0269 49.6595 45.5667C49.9976 45.1434 50.4664 44.9376 51.0929 44.9376C51.6992 44.9376 52.1504 45.1409 52.5122 45.5757C52.8916 46.0333 53.0841 46.7062 53.0841 47.5763Z" fill="#3F3679"/>
<path d="M36.5947 34.7168C38.2624 33.1368 39.108 30.905 39.108 28.0824C39.108 25.2602 38.2624 23.0275 36.5947 21.4476C36.5947 21.4471 36.5943 21.4471 36.5939 21.4467C34.9331 19.8784 32.7847 19.083 30.2079 19.083C27.5653 19.083 25.3829 19.8784 23.7217 21.4476C22.0541 23.028 21.2085 25.2602 21.2085 28.0824C21.2085 30.905 22.0541 33.1372 23.7226 34.7172C25.382 36.286 27.564 37.0818 30.2083 37.0818C32.7856 37.0818 34.9344 36.286 36.5947 34.7168ZM22.4971 28.082C22.4971 25.6276 23.2074 23.7099 24.6073 22.3834C26.0408 21.0295 27.8725 20.3712 30.2079 20.3712C32.4758 20.3712 34.2749 21.0291 35.7079 22.3826C37.1086 23.7099 37.8189 25.6276 37.8189 28.082C37.8189 30.5368 37.1086 32.454 35.7087 33.7805C34.2766 35.134 32.477 35.7927 30.2079 35.7927C27.8717 35.7927 26.0399 35.1344 24.6082 33.7809C23.2074 32.454 22.4971 30.5368 22.4971 28.082Z" fill="#3F3679"/>
<path d="M32.5867 30.9134C33.1848 30.2152 33.4878 29.2625 33.4878 28.0822C33.4878 26.9031 33.1848 25.9505 32.5863 25.2501C31.9632 24.5239 31.1296 24.1553 30.1083 24.1553C29.111 24.1553 28.3062 24.5291 27.7166 25.266C27.1589 25.9595 26.8757 26.907 26.8757 28.0822C26.8757 29.2574 27.1585 30.2044 27.7158 30.8975C28.3053 31.6353 29.1101 32.0091 30.1078 32.0091C31.1309 32.0091 31.9649 31.6404 32.5867 30.9134ZM31.6075 30.0751C31.2362 30.5091 30.7459 30.72 30.1087 30.72C29.5054 30.72 29.065 30.5202 28.723 30.0923C28.7225 30.0914 28.7217 30.0906 28.7212 30.0897C28.3526 29.6321 28.1657 28.9566 28.1657 28.0822C28.1657 27.2086 28.353 26.5332 28.723 26.0725C29.0658 25.6441 29.5063 25.4443 30.1091 25.4443C30.7459 25.4443 31.2362 25.6553 31.6075 26.0884C32.0002 26.5478 32.1991 27.2185 32.1991 28.0822C32.1987 28.9467 31.9998 29.617 31.6075 30.0751Z" fill="#3F3679"/>
<path d="M53.3178 23.4266C53.7612 22.6124 53.7432 21.6503 53.2692 20.8532C52.7957 20.0562 51.9591 19.5801 51.0319 19.5801H47.2828C46.3289 19.5801 45.4532 20.1004 44.9973 20.9383L27.9345 52.2814C27.491 53.0957 27.5091 54.0578 27.983 54.8548C28.4565 55.6519 29.2931 56.128 30.2204 56.128H33.9664C34.9203 56.128 35.796 55.6077 36.2519 54.7702L53.3178 23.4266ZM52.186 22.8105L35.1197 54.1536C34.8894 54.576 34.4477 54.8389 33.9664 54.8389H30.2204C29.7525 54.8389 29.3305 54.5988 29.0916 54.1966C28.8523 53.7939 28.8432 53.3088 29.0671 52.8976L46.13 21.5545C46.3603 21.1321 46.802 20.8691 47.2837 20.8691H51.0327C51.5007 20.8691 51.9226 21.1093 52.1615 21.5115C52.4004 21.9137 52.4094 22.3993 52.186 22.8105Z" fill="#3F3679"/>
<path d="M82.6552 77.8696C82.2989 77.8696 82.0106 78.1584 82.0106 78.5142C82.0106 78.8699 82.2989 79.1587 82.6552 79.1587H86.8493C87.2055 79.1587 87.4939 78.8699 87.4939 78.5142C87.4939 78.1584 87.2055 77.8696 86.8493 77.8696H82.6552Z" fill="#3F3679"/>
<path d="M11.1246 103.416H3.17542C2.8192 103.416 2.53088 103.705 2.53088 104.061C2.53088 104.416 2.8192 104.705 3.17542 104.705H11.1246C11.4808 104.705 11.7692 104.416 11.7692 104.061C11.7692 103.705 11.4804 103.416 11.1246 103.416Z" fill="#3F3679"/>
<path d="M106.825 103.416H98.8754C98.5192 103.416 98.2308 103.705 98.2308 104.061C98.2308 104.416 98.5192 104.705 98.8754 104.705H106.825C107.181 104.705 107.469 104.416 107.469 104.061C107.469 103.705 107.181 103.416 106.825 103.416Z" fill="#3F3679"/>
<path d="M92.5277 103.416H17.4724C17.1162 103.416 16.8279 103.705 16.8279 104.061C16.8279 104.416 17.1162 104.705 17.4724 104.705H92.5277C92.8839 104.705 93.1722 104.416 93.1722 104.061C93.1722 103.705 92.8839 103.416 92.5277 103.416Z" fill="#3F3679"/>
<path d="M3.17542 99.6542H59.8344H90.967H106.825C107.181 99.6542 107.469 99.3655 107.469 99.0097C107.469 98.6539 107.181 98.3652 106.825 98.3652H91.6115V86.4418H93.06C93.4162 86.4418 93.7046 86.153 93.7046 85.7972V71.2304C93.7046 70.8746 93.4162 70.5859 93.06 70.5859H87.4487L85.7016 46.6183C85.4601 44.0664 83.8664 41.9958 82.5056 40.4772L64.8549 20.7834V5.93896C64.8549 5.58318 64.5666 5.29443 64.2104 5.29443H16.94C16.5838 5.29443 16.2955 5.58318 16.2955 5.93896V59.8527C16.2955 59.9713 16.3281 60.0878 16.39 60.1887L21.2064 68.0692L16.39 75.9497C16.3281 76.0506 16.2955 76.1671 16.2955 76.2857V88.109C16.2955 88.4647 16.5838 88.7535 16.94 88.7535H59.1899V98.3652H3.17542C2.8192 98.3652 2.53088 98.6539 2.53088 99.0097C2.53088 99.3655 2.8192 99.6542 3.17542 99.6542ZM92.4155 85.1527H90.967H59.8344H58.386V79.1586H78.1103C78.4665 79.1586 78.7549 78.8698 78.7549 78.514C78.7549 78.1583 78.4665 77.8695 78.1103 77.8695H58.386V71.8749H66.6673H86.8489H92.4151V85.1527H92.4155ZM65.1389 70.5854H61.4814L59.9431 68.0692L61.979 64.7383C62.6596 66.9885 63.7197 68.9604 65.1389 70.5854ZM81.5457 41.3371C82.775 42.7082 84.2123 44.5619 84.4173 46.7258L86.1562 70.5854H66.9217C60.378 64.364 62.8388 53.5294 62.8646 53.4194C62.9114 53.2196 62.8607 53.0095 62.728 52.8535L53.6538 42.208C52.2264 40.5331 52.4275 38.0091 54.1024 36.5813C54.9098 35.8929 55.9428 35.5638 57.008 35.6454C58.074 35.7305 59.0404 36.222 59.7287 37.0294L63.7175 41.7092L71.2912 50.5947C71.4188 50.7446 71.5997 50.8211 71.7819 50.8211C71.9297 50.8211 72.0784 50.7704 72.2 50.6673C72.4707 50.4365 72.5033 50.0296 72.2722 49.7589L64.854 41.056C64.854 41.0535 64.8549 41.0509 64.8549 41.0483V22.714L81.5457 41.3371ZM51.425 39.8774C51.4792 41.0036 51.8865 42.1212 52.6728 43.0442L58.4715 49.847C58.1642 51.2426 57.5429 52.4071 56.6148 53.3047C55.2015 54.672 53.3956 55.3367 51.0933 55.3367C48.825 55.3367 47.0276 54.6715 45.5985 53.3021C44.1745 51.9417 43.4823 50.0692 43.4823 47.577C43.4823 45.0874 44.1736 43.2238 45.5967 41.8785C47.0061 40.5434 48.8555 39.8662 51.0933 39.8662C51.2055 39.8658 51.3137 39.8744 51.425 39.8774ZM17.5846 87.4644V80.6504H42.182C42.5382 80.6504 42.8265 80.3617 42.8265 80.0059C42.8265 79.6501 42.5382 79.3614 42.182 79.3614H17.5846V76.4674L22.3236 68.7142H24.5403C24.8965 68.7142 25.1849 68.4254 25.1849 68.0696C25.1849 67.7138 24.8965 67.4251 24.5403 67.4251H22.3236L17.5846 59.6718V6.5835H63.5654V21.0115C63.5654 21.0167 63.5633 21.0214 63.5633 21.0266V39.5414L60.7093 36.1937C59.7975 35.1242 58.5192 34.4732 57.1098 34.3606C55.7013 34.2489 54.3349 34.6885 53.2658 35.6003C52.3256 36.4017 51.7404 37.4647 51.5178 38.5913C51.3756 38.5866 51.2368 38.5763 51.0924 38.5763C48.5139 38.5763 46.3659 39.3725 44.7099 40.9413C43.0392 42.5204 42.1923 44.7526 42.1923 47.5757C42.1923 50.3987 43.0384 52.6387 44.7069 54.2324C46.3633 55.8197 48.5117 56.6245 51.0924 56.6245C53.7084 56.6245 55.8676 55.8188 57.5098 54.2303C58.4126 53.3576 59.0722 52.2851 59.4834 51.0342L61.5399 53.4469C61.368 54.311 60.9525 56.7886 61.1312 59.839C61.1953 60.9325 61.3345 61.9814 61.539 62.9856L58.8264 67.4238H56.6096C56.2534 67.4238 55.9651 67.7126 55.9651 68.0683C55.9651 68.4241 56.2534 68.7129 56.6096 68.7129H58.8264L59.9706 70.5846H57.741C57.3848 70.5846 57.0965 70.8733 57.0965 71.2291V85.796C57.0965 86.1517 57.3848 86.4405 57.741 86.4405H59.1895V87.4631H17.5846V87.4644ZM60.479 86.4418H90.3225V98.3652H60.479V86.4418Z" fill="#3F3679"/>
</svg>
