<svg width="50" height="50" viewBox="0 0 50 50" fill="none" xmlns="http://www.w3.org/2000/svg">
<path d="M41.2856 41.25C42.6301 41.25 43.7754 42.4 43.7754 43.75C43.7754 45.1 42.6301 46.25 41.2856 46.25H11.4078C10.0633 46.25 8.91795 45.1 8.91795 43.75C8.91795 42.4 10.0633 41.25 11.4078 41.25H41.2856ZM41.2856 37.5H11.4078C7.99671 37.5 5.18321 40.325 5.18321 43.75C5.18321 47.175 7.99671 50 11.4078 50H41.2856C42.9365 50 44.5197 49.3415 45.687 48.1694C46.8544 46.9973 47.5102 45.4076 47.5102 43.75C47.5102 42.0924 46.8544 40.5027 45.687 39.3306C44.5197 38.1585 42.9365 37.5 41.2856 37.5ZM47.5102 22.5H40.0407V12.5H27.5916L20.1221 22.5V35H50L47.5102 22.5ZM23.9565 22.5L28.8365 16.25H35.0611V22.5H23.9565ZM19.5246 3.525L7.07548 0L0.203572 24.575C-0.642967 27.775 1.2244 31.1 4.43627 32L7.32446 32.8L15.516 25.725L5.85547 23.025L10.5363 6.15L17.4829 8.1C18.8772 8.825 21.8899 10.85 23.7822 13.425L26.3467 10H27.4422C24.305 6.025 19.7487 3.65 19.5246 3.525Z" fill="#FFAA6B"/>
</svg>
