<svg width="108" height="13" viewBox="0 0 108 13" fill="none" xmlns="http://www.w3.org/2000/svg">
<path d="M103.657 3.75017L107.138 4.28714C107.452 4.33911 107.716 4.56429 107.848 4.87608C107.947 5.18787 107.864 5.53431 107.633 5.75949L105.109 8.34044L105.703 11.978C105.753 12.3071 105.621 12.6362 105.373 12.8268C105.241 12.948 105.06 13 104.895 13C104.763 13 104.631 12.9654 104.515 12.8961L101.397 11.1812L98.2791 12.8961C97.9987 13.052 97.6522 13.0173 97.4047 12.8268C97.1408 12.6362 97.0253 12.3071 97.0748 11.978L97.6687 8.34044L95.1446 5.75949C94.9136 5.53431 94.8311 5.18787 94.9301 4.87608C95.0291 4.56429 95.2766 4.33911 95.59 4.28714L99.071 3.75017L100.622 0.441706C100.902 -0.147235 101.826 -0.147235 102.107 0.441706L103.657 3.75017Z" fill="#FFAA6B"/>
<path d="M80.1871 3.75017L84.0549 4.28714C84.4032 4.33911 84.6965 4.56429 84.8431 4.87608C84.9531 5.18787 84.8615 5.53431 84.6048 5.75949L81.8002 8.34044L82.4602 11.978C82.5151 12.3071 82.3685 12.6362 82.0935 12.8268C81.9469 12.948 81.7453 13 81.5619 13C81.4153 13 81.2687 12.9654 81.1403 12.8961L77.6758 11.1812L74.2113 12.8961C73.8997 13.052 73.5148 13.0173 73.2398 12.8268C72.9465 12.6362 72.8182 12.3071 72.8732 11.978L73.5331 8.34044L70.7285 5.75949C70.4719 5.53431 70.3802 5.18787 70.4902 4.87608C70.6002 4.56429 70.8752 4.33911 71.2234 4.28714L75.0912 3.75017L76.8143 0.441706C77.1259 -0.147235 78.1524 -0.147235 78.4641 0.441706L80.1871 3.75017Z" fill="#FFAA6B"/>
<path d="M56.2129 3.75017L59.6939 4.28714C60.0073 4.33911 60.2713 4.56429 60.4033 4.87608C60.5023 5.18787 60.4198 5.53431 60.1888 5.75949L57.6647 8.34044L58.2586 11.978C58.3081 12.3071 58.1761 12.6362 57.9286 12.8268C57.7966 12.948 57.6152 13 57.4502 13C57.3182 13 57.1862 12.9654 57.0708 12.8961L53.9527 11.1812L50.8347 12.8961C50.5542 13.052 50.2078 13.0173 49.9603 12.8268C49.6963 12.6362 49.5808 12.3071 49.6303 11.978L50.2243 8.34044L47.7001 5.75949C47.4691 5.53431 47.3867 5.18787 47.4856 4.87608C47.5846 4.56429 47.8321 4.33911 48.1455 4.28714L51.6265 3.75017L53.1773 0.441706C53.4578 -0.147235 54.3816 -0.147235 54.6621 0.441706L56.2129 3.75017Z" fill="#FFAA6B"/>
<path d="M32.7427 3.75017L36.6105 4.28714C36.9587 4.33911 37.252 4.56429 37.3987 4.87608C37.5087 5.18787 37.417 5.53431 37.1604 5.75949L34.3558 8.34044L35.0157 11.978C35.0707 12.3071 34.924 12.6362 34.6491 12.8268C34.5024 12.948 34.3008 13 34.1175 13C33.9708 13 33.8242 12.9654 33.6959 12.8961L30.2314 11.1812L26.7669 12.8961C26.4553 13.052 26.0703 13.0173 25.7954 12.8268C25.5021 12.6362 25.3738 12.3071 25.4288 11.978L26.0887 8.34044L23.2841 5.75949C23.0274 5.53431 22.9358 5.18787 23.0458 4.87608C23.1558 4.56429 23.4307 4.33911 23.779 4.28714L27.6468 3.75017L29.3698 0.441706C29.6815 -0.147235 30.708 -0.147235 31.0196 0.441706L32.7427 3.75017Z" fill="#FFAA6B"/>
<path d="M8.76842 3.75017L12.2494 4.28714C12.5629 4.33911 12.8268 4.56429 12.9588 4.87608C13.0578 5.18787 12.9753 5.53431 12.7443 5.75949L10.2202 8.34044L10.8141 11.978C10.8636 12.3071 10.7316 12.6362 10.4842 12.8268C10.3522 12.948 10.1707 13 10.0057 13C9.87376 13 9.74178 12.9654 9.6263 12.8961L6.50825 11.1812L3.3902 12.8961C3.10974 13.052 2.7633 13.0173 2.51583 12.8268C2.25187 12.6362 2.13638 12.3071 2.18588 11.978L2.77979 8.34044L0.255655 5.75949C0.0246884 5.53431 -0.0577951 5.18787 0.0411905 4.87608C0.140176 4.56429 0.387636 4.33911 0.701091 4.28714L4.18209 3.75017L5.73286 0.441706C6.01332 -0.147235 6.93719 -0.147235 7.21765 0.441706L8.76842 3.75017Z" fill="#FFAA6B"/>
</svg>
