<svg width="26" height="25" viewBox="0 0 26 25" fill="none" xmlns="http://www.w3.org/2000/svg">
<path d="M4.9547 12.9312H3.16159C3.04728 12.9312 2.93764 12.8857 2.85681 12.8049C2.77597 12.7241 2.73056 12.6144 2.73056 12.5001C2.73056 12.3858 2.77597 12.2762 2.85681 12.1953C2.93764 12.1145 3.04728 12.0691 3.16159 12.0691H4.9547C5.06902 12.0691 5.17865 12.1145 5.25949 12.1953C5.34032 12.2762 5.38573 12.3858 5.38573 12.5001C5.38573 12.6144 5.34032 12.7241 5.25949 12.8049C5.17865 12.8857 5.06902 12.9312 4.9547 12.9312Z" fill="black"/>
<path d="M22.4504 12.9312H20.653C20.5386 12.9312 20.429 12.8857 20.3482 12.8049C20.2673 12.7241 20.2219 12.6144 20.2219 12.5001C20.2219 12.3858 20.2673 12.2762 20.3482 12.1953C20.429 12.1145 20.5386 12.0691 20.653 12.0691H22.4504C22.5647 12.0691 22.6743 12.1145 22.7552 12.1953C22.836 12.2762 22.8814 12.3858 22.8814 12.5001C22.8814 12.6144 22.836 12.7241 22.7552 12.8049C22.6743 12.8857 22.5647 12.9312 22.4504 12.9312Z" fill="black"/>
<path d="M12.8038 22.5777C12.6895 22.5777 12.5799 22.5323 12.499 22.4514C12.4182 22.3706 12.3728 22.261 12.3728 22.1467V20.3492C12.3728 20.2349 12.4182 20.1253 12.499 20.0445C12.5799 19.9636 12.6895 19.9182 12.8038 19.9182C12.9182 19.9182 13.0278 19.9636 13.1086 20.0445C13.1895 20.1253 13.2349 20.2349 13.2349 20.3492V22.1467C13.2349 22.261 13.1895 22.3706 13.1086 22.4514C13.0278 22.5323 12.9182 22.5777 12.8038 22.5777Z" fill="black"/>
<path d="M12.8038 5.08193C12.6895 5.08193 12.5799 5.03652 12.499 4.95568C12.4182 4.87485 12.3728 4.76521 12.3728 4.6509V2.85779C12.3728 2.74347 12.4182 2.63384 12.499 2.553C12.5799 2.47217 12.6895 2.42676 12.8038 2.42676C12.9182 2.42676 13.0278 2.47217 13.1086 2.553C13.1895 2.63384 13.2349 2.74347 13.2349 2.85779V4.6509C13.2349 4.76521 13.1895 4.87485 13.1086 4.95568C13.0278 5.03652 12.9182 5.08193 12.8038 5.08193Z" fill="black"/>
<path d="M12.8038 25C10.3316 25 7.91482 24.2669 5.85921 22.8934C3.8036 21.5199 2.20144 19.5676 1.25534 17.2835C0.309249 14.9995 0.0617074 12.4861 0.544023 10.0614C1.02634 7.63661 2.21685 5.40933 3.965 3.66117C5.71316 1.91301 7.94045 0.722505 10.3652 0.24019C12.79 -0.242126 15.3033 0.00541611 17.5874 0.951511C19.8715 1.89761 21.8237 3.49976 23.1972 5.55538C24.5707 7.61099 25.3038 10.0277 25.3038 12.5C25.3038 15.8152 23.9869 18.9946 21.6427 21.3388C19.2985 23.683 16.119 25 12.8038 25ZM12.8038 0.862074C10.5021 0.862074 8.252 1.54463 6.33815 2.82342C4.4243 4.10221 2.93264 5.91981 2.05179 8.04636C1.17094 10.1729 0.940475 12.5129 1.38953 14.7704C1.83858 17.028 2.94698 19.1017 4.57458 20.7293C6.20217 22.3569 8.27585 23.4653 10.5334 23.9143C12.7909 24.3634 15.1309 24.1329 17.2575 23.252C19.384 22.3712 21.2016 20.8795 22.4804 18.9657C23.7592 17.0518 24.4418 14.8018 24.4418 12.5C24.4418 9.41343 23.2156 6.45328 21.0331 4.27074C18.8506 2.08821 15.8904 0.862074 12.8038 0.862074Z" fill="black"/>
<path d="M12.8038 22.5775C10.8107 22.5775 8.86229 21.9865 7.20504 20.8792C5.54779 19.7718 4.25612 18.1979 3.49337 16.3565C2.73062 14.515 2.53105 12.4888 2.9199 10.5339C3.30875 8.57905 4.26854 6.7834 5.67792 5.37402C7.08729 3.96465 8.88295 3.00485 10.8378 2.61601C12.7927 2.22716 14.8189 2.42673 16.6604 3.18948C18.5018 3.95223 20.0757 5.2439 21.183 6.90115C22.2904 8.5584 22.8814 10.5068 22.8814 12.5C22.8791 15.172 21.8167 17.7339 19.9272 19.6234C18.0378 21.5128 15.4759 22.5753 12.8038 22.5775ZM12.8038 3.28875C10.981 3.28875 9.19911 3.82934 7.68353 4.84214C6.16796 5.85495 4.98678 7.29447 4.28941 8.97863C3.59203 10.6628 3.40979 12.516 3.76572 14.3037C4.12165 16.0915 4.99977 17.7335 6.28902 19.0221C7.57826 20.3108 9.22071 21.1881 11.0086 21.5432C12.7965 21.8983 14.6496 21.7152 16.3335 21.017C18.0173 20.3189 19.4563 19.137 20.4684 17.621C21.4805 16.1049 22.0202 14.3228 22.0194 12.5C22.0171 10.0569 21.0453 7.71471 19.3174 5.98765C17.5895 4.26058 15.2469 3.28989 12.8038 3.28875Z" fill="black"/>
<path d="M12.8038 12.931C12.6895 12.931 12.5799 12.8856 12.499 12.8048C12.4182 12.7239 12.3728 12.6143 12.3728 12.5V6.39222C12.3728 6.2779 12.4182 6.16826 12.499 6.08743C12.5799 6.00659 12.6895 5.96118 12.8038 5.96118C12.9182 5.96118 13.0278 6.00659 13.1086 6.08743C13.1895 6.16826 13.2349 6.2779 13.2349 6.39222V12.5C13.2349 12.6143 13.1895 12.7239 13.1086 12.8048C13.0278 12.8856 12.9182 12.931 12.8038 12.931Z" fill="black"/>
<path d="M8.4935 17.2416C8.37981 17.2399 8.27136 17.1935 8.19178 17.1122C8.1115 17.0315 8.06644 16.9222 8.06644 16.8084C8.06644 16.6945 8.1115 16.5853 8.19178 16.5045L12.5021 12.1941C12.5833 12.113 12.6934 12.0674 12.8082 12.0674C12.9229 12.0674 13.033 12.113 13.1142 12.1941C13.1954 12.2753 13.241 12.3854 13.241 12.5002C13.241 12.615 13.1954 12.725 13.1142 12.8062L8.80385 17.1166C8.76306 17.157 8.71459 17.1889 8.6613 17.2104C8.608 17.2319 8.55095 17.2425 8.4935 17.2416Z" fill="black"/>
</svg>
