<svg width="26" height="26" viewBox="0 0 26 26" fill="none" xmlns="http://www.w3.org/2000/svg">
<path d="M5.80316 10.3526C5.86918 10.3577 5.93519 10.373 5.99613 10.4034C6.08754 10.4542 6.19926 10.439 6.27543 10.3628L8.76879 7.86943C8.8805 7.75772 8.8805 7.5749 8.76879 7.46318C8.63168 7.32607 8.63168 7.10264 8.76879 6.96553L9.44925 6.28506C9.58636 6.14795 9.8098 6.14795 9.94691 6.28506L10.15 6.48818L11.775 4.86318C12.1661 4.47217 12.1661 3.84248 11.775 3.45654L9.61176 1.29326C9.22074 0.902246 8.59105 0.902246 8.20511 1.29326L6.58011 2.91826L6.74769 3.08584C6.92543 3.26357 6.92543 3.55811 6.74769 3.73584L6.22465 4.25889C6.04691 4.43662 5.75238 4.43662 5.57465 4.25889C5.48324 4.16748 5.33597 4.16748 5.24457 4.25889L2.71566 6.78779C2.62426 6.8792 2.62426 7.03154 2.71566 7.12295C2.80707 7.21436 2.8223 7.36162 2.74613 7.47334C-0.519104 12.2976 1.79652 14.6589 1.79652 14.6589C2.08597 12.5464 3.8684 10.5862 5.61527 10.3526C5.67113 10.3476 5.74222 10.3476 5.80316 10.3526Z" stroke="white" stroke-width="0.8" stroke-miterlimit="10" stroke-linecap="round" stroke-linejoin="round"/>
<path d="M22.7387 20.839L9.64222 8.73273L7.26566 11.1093L19.3668 24.2058C20.0321 24.9167 21.1543 24.937 21.845 24.2464L22.7793 23.312C23.47 22.6265 23.4496 21.5042 22.7387 20.839Z" stroke="white" stroke-width="0.8" stroke-miterlimit="10" stroke-linecap="round" stroke-linejoin="round"/>
<path d="M5.29536 21.5905C4.56919 22.3167 4.56919 23.4897 5.29536 24.2159C6.02153 24.9421 7.19458 24.9421 7.92075 24.2159L13.1309 19.0058L10.6071 16.2788L5.29536 21.5905Z" stroke="white" stroke-width="0.8" stroke-miterlimit="10" stroke-linecap="round" stroke-linejoin="round"/>
<path d="M25.2422 7.56983L22.4036 10.4085C22.1852 10.6269 21.8551 10.6979 21.5657 10.5913L19.9762 9.99717C19.7629 9.91592 19.5903 9.74834 19.5141 9.53506L18.92 7.94561C18.8133 7.65616 18.8844 7.32608 19.1028 7.10772L21.9415 4.26905C20.4485 3.90343 18.8083 4.3046 17.6504 5.47764C16.3758 6.76748 16.0407 8.64639 16.6399 10.246L14.8067 12.0792L17.5337 14.603L19.2602 12.8765C20.87 13.4858 22.759 13.1405 24.054 11.8456C25.2118 10.6827 25.6079 9.05264 25.2422 7.56983Z" stroke="white" stroke-width="0.8" stroke-miterlimit="10" stroke-linecap="round" stroke-linejoin="round"/>
</svg>
