<svg width="15" height="15" viewBox="0 0 15 15" fill="none" xmlns="http://www.w3.org/2000/svg">
<path d="M7.5 0C3.35826 0 0 3.35826 0 7.5C0 11.6417 3.35826 15 7.5 15C11.6417 15 15 11.6417 15 7.5C15 3.35826 11.6417 0 7.5 0ZM7.5 13.7277C4.06138 13.7277 1.27232 10.9386 1.27232 7.5C1.27232 4.06138 4.06138 1.27232 7.5 1.27232C10.9386 1.27232 13.7277 4.06138 13.7277 7.5C13.7277 10.9386 10.9386 13.7277 7.5 13.7277Z" fill="#FFAA6B"/>
<path d="M6.83022 11.1828C6.83022 11.3604 6.90077 11.5307 7.02635 11.6563C7.15193 11.7818 7.32226 11.8524 7.49986 11.8524C7.67746 11.8524 7.84779 11.7818 7.97337 11.6563C8.09895 11.5307 8.1695 11.3604 8.1695 11.1828C8.1695 11.0052 8.09895 10.8348 7.97337 10.7092C7.84779 10.5837 7.67746 10.5131 7.49986 10.5131C7.32226 10.5131 7.15193 10.5837 7.02635 10.7092C6.90077 10.8348 6.83022 11.0052 6.83022 11.1828ZM9.36816 4.23019C8.86593 3.79157 8.20299 3.54883 7.49986 3.54883C6.79674 3.54883 6.13379 3.7899 5.63156 4.23019C5.10924 4.68722 4.82129 5.30162 4.82129 5.95954V6.08677C4.82129 6.16044 4.88156 6.2207 4.95522 6.2207H5.75879C5.83245 6.2207 5.89272 6.16044 5.89272 6.08677V5.95954C5.89272 5.22126 6.61426 4.62026 7.49986 4.62026C8.38546 4.62026 9.107 5.22126 9.107 5.95954C9.107 6.48019 8.7387 6.95731 8.1695 7.17662C7.81459 7.31222 7.51325 7.54994 7.29729 7.86133C7.07631 8.17941 6.96415 8.56111 6.96415 8.94782V9.30776C6.96415 9.38142 7.02441 9.44169 7.09807 9.44169H7.90165C7.97531 9.44169 8.03557 9.38142 8.03557 9.30776V8.92773C8.03644 8.76521 8.08626 8.60673 8.17854 8.47294C8.27081 8.33916 8.40126 8.23628 8.55287 8.17773C9.5406 7.79771 10.1784 6.92718 10.1784 5.95954C10.1784 5.30162 9.89048 4.68722 9.36816 4.23019Z" fill="#FFAA6B"/>
</svg>
