<svg width="51" height="50" viewBox="0 0 51 50" fill="none" xmlns="http://www.w3.org/2000/svg">
<path d="M35.1154 28.8462C34.6054 28.8462 34.1162 29.0488 33.7556 29.4094C33.3949 29.7701 33.1923 30.2592 33.1923 30.7692C33.1923 31.2793 33.3949 31.7684 33.7556 32.1291C34.1162 32.4897 34.6054 32.6923 35.1154 32.6923H40.8846C41.3946 32.6923 41.8838 32.4897 42.2444 32.1291C42.6051 31.7684 42.8077 31.2793 42.8077 30.7692C42.8077 30.2592 42.6051 29.7701 42.2444 29.4094C41.8838 29.0488 41.3946 28.8462 40.8846 28.8462H35.1154ZM0.500004 5.76923C0.500004 4.23914 1.10783 2.77171 2.18977 1.68977C3.27171 0.607828 4.73914 0 6.26923 0H38.4808C40.1384 0 41.7281 0.65848 42.9002 1.83058C44.0723 3.00268 44.7308 4.5924 44.7308 6.25V8.18462C48.0923 9.37308 50.5 12.5788 50.5 16.3462V41.3461C50.5 43.6413 49.5883 45.8424 47.9653 47.4653C46.3424 49.0883 44.1413 50 41.8462 50H9.15385C6.85871 50 4.65757 49.0883 3.03466 47.4653C1.41175 45.8424 0.500004 43.6413 0.500004 41.3461V6.25H0.519235C0.50623 6.09008 0.499814 5.92968 0.500004 5.76923ZM41.8462 11.5385H4.34616V41.3461C4.34616 42.6212 4.85268 43.8441 5.7543 44.7457C6.65592 45.6473 7.87877 46.1538 9.15385 46.1538H41.8462C43.1212 46.1538 44.3441 45.6473 45.2457 44.7457C46.1473 43.8441 46.6538 42.6212 46.6538 41.3461V16.3462C46.6538 15.0711 46.1473 13.8482 45.2457 12.9466C44.3441 12.045 43.1212 11.5385 41.8462 11.5385ZM40.8846 6.25C40.8846 4.92308 39.8077 3.84615 38.4808 3.84615H6.26923C5.7592 3.84615 5.27006 4.04876 4.90941 4.40941C4.54877 4.77006 4.34616 5.2592 4.34616 5.76923C4.34616 6.27926 4.54877 6.7684 4.90941 7.12905C5.27006 7.4897 5.7592 7.69231 6.26923 7.69231H40.8846V6.25Z" fill="white"/>
</svg>
