<svg width="24" height="27" viewBox="0 0 24 27" fill="none" xmlns="http://www.w3.org/2000/svg">
<path d="M3.07159 6.38293L4.21451 25.3235" stroke="white" stroke-width="0.8" stroke-miterlimit="2.6131" stroke-linecap="round" stroke-linejoin="round"/>
<path d="M4.21448 25.3234C4.21448 25.9938 4.72716 26.5385 5.35745 26.5385" stroke="white" stroke-width="0.8" stroke-miterlimit="2.6131" stroke-linecap="round" stroke-linejoin="round"/>
<path d="M5.35742 26.5385H18.6435" stroke="white" stroke-width="0.8" stroke-miterlimit="2.6131" stroke-linecap="round" stroke-linejoin="round"/>
<path d="M18.6434 26.5385C19.2737 26.5385 19.7856 25.9938 19.7856 25.3234" stroke="white" stroke-width="0.8" stroke-miterlimit="2.6131" stroke-linecap="round" stroke-linejoin="round"/>
<path d="M19.7857 25.3235L20.9303 6.38293H3.07159" stroke="white" stroke-width="0.8" stroke-miterlimit="2.6131" stroke-linecap="round" stroke-linejoin="round"/>
<path d="M23 5.21225C23 5.85447 22.5099 6.3752 21.9054 6.3752" stroke="white" stroke-width="0.8" stroke-miterlimit="2.6131" stroke-linecap="round" stroke-linejoin="round"/>
<path d="M21.9056 6.37515H2.09467" stroke="white" stroke-width="0.8" stroke-miterlimit="2.6131" stroke-linecap="round" stroke-linejoin="round"/>
<path d="M2.09459 6.37519C1.49169 6.37519 1 5.85446 1 5.21223" stroke="white" stroke-width="0.8" stroke-miterlimit="2.6131" stroke-linecap="round" stroke-linejoin="round"/>
<path d="M1 5.21229C1 4.57262 1.49169 4.05107 2.09459 4.05107" stroke="white" stroke-width="0.8" stroke-miterlimit="2.6131" stroke-linecap="round" stroke-linejoin="round"/>
<path d="M2.09467 4.05099H21.9056" stroke="white" stroke-width="0.8" stroke-miterlimit="2.6131" stroke-linecap="round" stroke-linejoin="round"/>
<path d="M21.9054 4.05099C22.5099 4.05099 23 4.57261 23 5.21221" stroke="white" stroke-width="0.8" stroke-miterlimit="2.6131" stroke-linecap="round" stroke-linejoin="round"/>
<path d="M15.4523 4.03221V2.21249" stroke="white" stroke-width="0.8" stroke-miterlimit="2.6131" stroke-linecap="round" stroke-linejoin="round"/>
<path d="M15.4523 2.21249C15.4523 1.54377 14.9404 1 14.3109 1" stroke="white" stroke-width="0.8" stroke-miterlimit="2.6131" stroke-linecap="round" stroke-linejoin="round"/>
<path d="M14.311 1H9.6908" stroke="white" stroke-width="0.8" stroke-miterlimit="2.6131" stroke-linecap="round" stroke-linejoin="round"/>
<path d="M9.69072 1C9.05959 1 8.54852 1.54383 8.54852 2.21249" stroke="white" stroke-width="0.8" stroke-miterlimit="2.6131" stroke-linecap="round" stroke-linejoin="round"/>
<path d="M8.54852 2.21249V4.03221H15.4523" stroke="white" stroke-width="0.8" stroke-miterlimit="2.6131" stroke-linecap="round" stroke-linejoin="round"/>
<path d="M6.96466 8.80704V23.7329" stroke="white" stroke-width="0.8" stroke-miterlimit="2.6131" stroke-linecap="round" stroke-linejoin="round"/>
<path d="M10.321 8.80704V23.7329" stroke="white" stroke-width="0.8" stroke-miterlimit="2.6131" stroke-linecap="round" stroke-linejoin="round"/>
<path d="M13.6807 8.80704V23.7329" stroke="white" stroke-width="0.8" stroke-miterlimit="2.6131" stroke-linecap="round" stroke-linejoin="round"/>
<path d="M17.0353 8.80704V23.7329" stroke="white" stroke-width="0.8" stroke-miterlimit="2.6131" stroke-linecap="round" stroke-linejoin="round"/>
</svg>
