<svg width="103" height="95" viewBox="0 0 103 95" fill="none" xmlns="http://www.w3.org/2000/svg">
<path d="M88.4893 6.19235V2.06032C88.4893 0.927163 87.5621 0 86.429 0H50.2667C49.1337 0 48.2065 0.927163 48.2065 2.06032V6.19215L88.4893 6.19235Z" fill="#3EAF91"/>
<path opacity="0.1" d="M53.8757 6.19215V2.06032C53.8757 0.927163 54.8029 0 55.936 0H50.2667C49.1337 0 48.2065 0.927163 48.2065 2.06032V6.19215H53.8757Z" fill="#231F20"/>
<path d="M99.3999 13.5044L99.4001 7.17722C99.4001 6.04406 98.4728 5.1169 97.3396 5.1169L39.356 5.1167C38.2228 5.1167 37.2957 6.04386 37.2957 7.17702V13.5044H99.3999Z" fill="#FFBB4A"/>
<path opacity="0.1" d="M44.8573 5.1167H39.356C38.2228 5.1167 37.2957 6.04386 37.2957 7.17702V13.5042H42.7978V7.17662C42.7978 6.04366 43.7246 5.1169 44.8573 5.1167Z" fill="#231F20"/>
<path d="M75.986 82.9714C75.986 76.7694 81.0138 71.7421 87.2158 71.7421C89.0877 71.7421 90.8512 72.2026 92.4032 73.0128L97.7813 19.9463C97.8383 19.3826 97.4216 18.9214 96.855 18.9214H38.7693C38.2028 18.9214 37.772 19.3838 37.8122 19.9489L42.9286 92.0746C42.9688 92.6398 43.4651 93.1024 44.0317 93.1024H82.3672C78.5927 91.2927 75.986 87.4366 75.986 82.9714Z" fill="#FFBB4A"/>
<path opacity="0.1" d="M49.0835 92.0746L43.9671 19.9489C43.9271 19.3838 44.3579 18.9214 44.9245 18.9214H38.7693C38.2028 18.9214 37.772 19.3838 37.8122 19.9489L42.9286 92.0746C42.9688 92.6398 43.4651 93.1024 44.0317 93.1024H50.1869C49.6199 93.1024 49.1237 92.6398 49.0835 92.0746Z" fill="#231F20"/>
<path d="M102.395 19.896C102.395 20.4625 101.932 20.9261 101.365 20.9261H34.2567C33.6901 20.9261 33.2266 20.4625 33.2266 19.896V13.4354C33.2266 12.8689 33.6901 12.4053 34.2567 12.4053H101.365C101.932 12.4053 102.395 12.8689 102.395 13.4354V19.896Z" fill="#FF9F3D"/>
<path opacity="0.1" d="M39.3045 19.896V13.4354C39.3045 12.8689 39.7681 12.4053 40.3347 12.4053H34.2567C33.6901 12.4053 33.2266 12.8689 33.2266 13.4354V19.896C33.2266 20.4625 33.6901 20.9261 34.2567 20.9261H40.3347C39.7681 20.9261 39.3045 20.4625 39.3045 19.896Z" fill="#231F20"/>
<path d="M99.2444 82.9707C99.2444 89.614 93.8584 94.9998 87.2155 94.9998C80.5716 94.9998 75.1858 89.6138 75.1858 82.9707C75.1858 76.327 80.5718 70.9414 87.2155 70.9414C93.8584 70.9414 99.2444 76.3272 99.2444 82.9707Z" fill="#3EAF91"/>
<path d="M87.2127 87.4845C89.704 87.4845 91.7235 85.465 91.7235 82.9737C91.7235 80.4825 89.704 78.4629 87.2127 78.4629C84.7215 78.4629 82.7019 80.4825 82.7019 82.9737C82.7019 85.465 84.7215 87.4845 87.2127 87.4845Z" fill="#86D5B5"/>
<path d="M33.533 30.3037H17.0657C16.4991 30.3037 16.2673 30.7051 16.5505 31.1957L22.5263 41.5459H28.0721L34.048 31.1957C34.3314 30.7051 34.0996 30.3037 33.533 30.3037Z" fill="#86D5B5"/>
<path d="M24.8078 41.5459L23.7554 31.3283C23.6972 30.7649 23.1862 30.3037 22.6197 30.3037H17.0689C16.5023 30.3037 16.2705 30.7051 16.5537 31.1957L22.5295 41.5459H24.8078Z" fill="#3EAF91"/>
<path d="M4.40282 93.107C3.41946 93.107 2.5279 92.5258 2.13191 91.625C0.717571 88.4078 0 84.9837 0 81.4484V73.5106C0 59.5591 11.3503 48.209 25.301 48.209C39.2526 48.209 50.603 59.5591 50.603 73.5106V81.4484C50.603 84.9839 49.8854 88.4078 48.4702 91.625C48.0749 92.5258 47.1833 93.107 46.2001 93.107H4.40282Z" fill="#3EAF91"/>
<path opacity="0.1" d="M7.79748 91.6197C6.38354 88.4024 5.66577 84.9785 5.66577 81.4431V73.5052C5.66577 60.5115 15.5118 49.7762 28.1341 48.3632C27.2037 48.2588 26.2587 48.2036 25.301 48.2036C11.3503 48.204 0 59.5542 0 73.5056V81.4435C0 84.9789 0.717571 88.4028 2.13171 91.6201C2.5277 92.5208 3.41946 93.102 4.40262 93.102H10.0684C9.08523 93.1018 8.19367 92.5204 7.79748 91.6197Z" fill="#231F20"/>
<path d="M31.9128 44.5017V41.4562C31.9128 40.8896 31.4492 40.4263 30.8826 40.4263H19.7211C19.1545 40.4263 18.6909 40.8896 18.6909 41.4562V44.5017H31.9128Z" fill="#3EAF91"/>
<path d="M35.2269 49.4127C35.3727 49.9601 35.0283 50.4079 34.4617 50.4079H16.139C15.5725 50.4079 15.2335 49.9615 15.3859 49.4157L16.5238 45.3403C16.6762 44.7945 17.2644 44.3481 17.831 44.3481H32.8486C33.4151 44.3481 33.9979 44.7961 34.1437 45.3437L35.2269 49.4127Z" fill="#86D5B5"/>
<path opacity="0.1" d="M21.021 49.4157L22.1588 45.3403C22.3112 44.7945 22.8994 44.3481 23.4659 44.3481H17.831C17.2644 44.3481 16.6762 44.7945 16.5238 45.3403L15.3859 49.4157C15.2335 49.9615 15.5725 50.4079 16.139 50.4079H21.7742C21.2076 50.4079 20.8686 49.9615 21.021 49.4157Z" fill="#231F20"/>
<path d="M79.6938 52.3741C78.969 51.9733 78.056 52.2359 77.6552 52.9609C75.7407 56.4229 72.0961 58.5736 68.1438 58.5736C62.6842 58.5736 58.1542 54.524 57.3957 49.2712L57.5583 49.434C57.8512 49.7268 58.2352 49.8734 58.619 49.8734C59.0028 49.8734 59.3868 49.727 59.6798 49.434C60.2655 48.8482 60.2655 47.8985 59.6798 47.3129L56.8985 44.5316C56.3125 43.9458 55.3629 43.9458 54.777 44.5316L51.9959 47.3129C51.4099 47.8987 51.4099 48.8484 51.9959 49.434C52.5815 50.0198 53.5312 50.0198 54.117 49.434L54.3618 49.1894C55.1018 56.1403 60.9995 61.5735 68.1438 61.5735C73.1872 61.5735 77.8378 58.8296 80.2803 54.4126C80.6813 53.6876 80.4187 52.7751 79.6938 52.3741Z" fill="#CB7C52"/>
<path d="M84.1577 45.2588C83.5721 44.673 82.6224 44.6732 82.0366 45.2588L81.8234 45.4722C80.7498 38.8896 75.0263 33.8486 68.1449 33.8486C63.2485 33.8486 58.8113 36.3527 56.2754 40.5474C55.8468 41.2563 56.074 42.1783 56.783 42.6069C57.4916 43.0355 58.4139 42.8083 58.8425 42.0993C60.8302 38.8114 64.3079 36.8485 68.1449 36.8485C73.3509 36.8485 77.7112 40.5308 78.7631 45.427L78.5951 45.259C78.0093 44.6732 77.0596 44.6728 76.4738 45.2588C75.8878 45.8445 75.8878 46.7943 76.4736 47.3799L79.2549 50.1616C79.5361 50.443 79.9177 50.601 80.3156 50.601C80.7136 50.601 81.095 50.4428 81.3764 50.1616L84.1579 47.3799C84.7435 46.7943 84.7435 45.8445 84.1577 45.2588Z" fill="#CB7C52"/>
</svg>
