<svg width="37" height="39" viewBox="0 0 37 39" fill="none" xmlns="http://www.w3.org/2000/svg">
<path d="M18.2361 27.1144H18.2037C17.8856 27.1144 17.6279 26.8564 17.6279 26.5386C17.6279 26.2206 17.8856 25.9629 18.2037 25.9629H18.2361C18.5539 25.9629 18.8116 26.2206 18.8116 26.5386C18.8116 26.8567 18.5539 27.1144 18.2361 27.1144Z" fill="black"/>
<path d="M18.2037 33.0163H18.1691C17.8511 33.0163 17.5934 32.7586 17.5934 32.4405C17.5934 32.1227 17.8511 31.8647 18.1691 31.8647H18.2037C18.5214 31.8647 18.7791 32.1227 18.7791 32.4405C18.7791 32.7586 18.5214 33.0163 18.2037 33.0163Z" fill="black"/>
<path d="M8.83987 29.552V37.8351C6.59786 37.8307 4.3615 37.8271 2.44411 37.8271C2.28373 37.8271 2.13496 37.8283 1.99719 37.8295C1.6809 37.8324 1.33039 37.8354 1.15127 37.8101C1.1721 37.5045 1.39674 36.7613 1.52409 36.3396L4.63018 26.0957C5.17201 24.4333 6.41873 24.0772 8.14361 23.5844C8.36974 23.5199 8.60332 23.4526 8.83987 23.3812V29.552ZM28.053 13.2798C28.053 13.6029 27.8644 13.9823 27.5484 14.2941C27.4074 14.4334 27.2503 14.5503 27.0887 14.6402C27.0976 14.5096 27.1027 14.3798 27.1027 14.2507L27.1247 12.1804H27.7861C27.9307 12.1804 28.0527 12.3032 28.0527 12.4487V13.2798H28.053ZM16.4285 1.15121H19.8363C20.2639 1.15121 20.6168 1.47524 20.6635 1.89031C20.6638 1.89388 20.6644 1.89775 20.6647 1.90162C20.6673 1.9284 20.6688 1.95548 20.6688 1.98315V4.41827C20.6688 4.87679 20.2954 5.24991 19.8363 5.24991H16.4285C15.9694 5.24991 15.5957 4.87679 15.5957 4.41827V1.98315C15.5957 1.95815 15.5974 1.93375 15.5995 1.90936C15.601 1.89388 15.6037 1.87663 15.6058 1.85996C15.6659 1.45947 16.0113 1.15121 16.4285 1.15121ZM14.4445 2.64102V4.41827C14.4445 5.51175 15.3344 6.40141 16.4282 6.40141H19.8363C20.9301 6.40141 21.82 5.51175 21.82 4.41827V2.65441C23.9564 3.78479 25.454 5.82179 25.8923 8.20961H10.3487C10.7897 5.81019 12.2962 3.76813 14.4445 2.64102ZM8.8479 14.2941C8.53191 13.982 8.34326 13.6029 8.34326 13.2798V12.4487C8.34326 12.3032 8.46645 12.1801 8.61224 12.1801H9.27161L9.29363 14.2447C9.29363 14.3757 9.29869 14.5078 9.30791 14.6408C9.14634 14.5506 8.98924 14.4337 8.8479 14.2941ZM10.5871 15.4064C10.5859 15.3311 10.5698 15.2594 10.5424 15.1939C10.4796 14.8702 10.4448 14.5503 10.4448 14.2385L10.4228 12.1807L17.0069 12.1845H17.0072C17.325 12.1845 17.5827 11.9269 17.5827 11.6091C17.583 11.2913 17.3253 11.0333 17.0075 11.0333L9.84319 11.0289C9.8426 11.0289 9.842 11.0289 9.84141 11.0289H9.6855C9.47424 11.0289 9.30226 10.8572 9.30226 10.6459V9.74375C9.30226 9.53607 9.47781 9.36081 9.6855 9.36081H26.6138C26.8215 9.36081 26.997 9.53636 26.997 9.74375V10.6459C26.997 10.8572 26.8251 11.0289 26.6138 11.0289H19.6462C19.3284 11.0289 19.0707 11.2865 19.0707 11.6046C19.0707 11.9224 19.3284 12.1801 19.6462 12.1801H25.9735L25.9515 14.2447C25.9515 14.5527 25.9175 14.869 25.856 15.1892C25.8268 15.257 25.8101 15.3314 25.8089 15.4096V15.4108C25.2112 17.9789 22.7924 20.75 20.0844 21.7593C19.6542 21.9197 19.2626 22.0303 18.8862 22.0916C18.8594 22.0934 18.8327 22.0973 18.8062 22.1029C18.3974 22.1622 18.0037 22.1622 17.5952 22.1035C17.5681 22.0976 17.5407 22.0937 17.5136 22.0916C17.1396 22.0309 16.751 21.922 16.3241 21.7634C13.6098 20.7551 11.1857 17.9819 10.5871 15.4064ZM15.4335 37.8467C13.7821 37.8446 12.0272 37.8411 10.3089 37.8378C10.2032 37.8375 10.0973 37.8375 9.99107 37.8372V34.6802H15.4335V37.8467ZM15.4335 33.529H9.99107V30.1278H15.4335V33.529ZM15.4335 28.9763H9.99107V23.0319L10.6397 22.8349L13.304 26.3876C13.7235 26.9354 14.2686 27.2279 14.8592 27.2279C14.9396 27.2279 15.0208 27.2225 15.1023 27.2115C15.2154 27.1963 15.3258 27.1699 15.4338 27.1356V28.9763H15.4335ZM15.6382 25.6509C15.5873 25.7446 15.2826 26.0416 14.9181 26.0737C14.8244 26.0823 14.5394 26.1073 14.2216 25.6922L11.8115 22.4787L13.9571 21.8268C13.9749 21.8387 13.9937 21.85 14.0121 21.8616C14.62 22.2633 15.2621 22.5972 15.9233 22.8426C16.1845 22.9396 16.4359 23.0194 16.6814 23.0854L15.6382 25.6509ZM19.8137 29.552V37.8479C19.2588 37.8485 18.7193 37.8488 18.2037 37.8488C17.6853 37.8488 17.1429 37.8485 16.585 37.8479V26.3037C16.6335 26.2317 16.674 26.16 16.7025 26.0904L17.8433 23.2851C17.962 23.2931 18.0805 23.2985 18.1986 23.2985C18.3173 23.2985 18.4363 23.2928 18.5554 23.2848L19.6964 26.0916C19.725 26.1606 19.7652 26.2323 19.8137 26.304V29.552ZM20.7602 25.6509L19.717 23.0851C19.9663 23.0182 20.2213 22.937 20.4867 22.8382C21.1634 22.5859 21.8203 22.241 22.441 21.8253L24.5866 22.4767L22.178 25.6881C21.8578 26.107 21.5737 26.0817 21.4802 26.074C21.116 26.0419 20.8111 25.7449 20.7602 25.6509ZM26.4052 37.8372C26.3029 37.8375 26.2002 37.8375 26.0982 37.8378C24.3769 37.8411 22.6189 37.8446 20.9649 37.8467V34.6802H26.4052V37.8372ZM26.4052 33.529H20.9649V30.1278H26.4052V33.529ZM26.4052 28.9763H20.9649V27.1356C21.0729 27.1699 21.1836 27.1966 21.2967 27.2115C21.3782 27.2225 21.4588 27.2279 21.5389 27.2279C22.1292 27.2279 22.6743 26.9348 23.0959 26.3831L25.759 22.8325L26.4052 23.0289V28.9763ZM35.9821 36.0037L34.2176 30.2551C34.1245 29.9513 33.8025 29.7805 33.4984 29.874C33.1943 29.9671 33.0236 30.289 33.117 30.5931L34.8814 36.3417C35.0106 36.7625 35.2385 37.5039 35.259 37.8089C35.0787 37.8351 34.7228 37.8321 34.4021 37.8295C34.2664 37.8283 34.1203 37.8271 33.9632 37.8271C32.0425 37.8271 29.8023 37.831 27.5564 37.8351V23.3779C27.7971 23.4508 28.0349 23.5193 28.2646 23.585C29.9889 24.0778 31.235 24.4339 31.7748 26.0954L32.4424 28.3005C32.5347 28.6049 32.856 28.7766 33.1604 28.6847C33.4645 28.5924 33.6365 28.2711 33.5443 27.967L32.8748 25.7562C32.8739 25.7529 32.8727 25.7494 32.8715 25.7461C32.144 23.4967 30.4135 23.0018 28.5812 22.4778C28.3399 22.4088 28.0905 22.3377 27.8412 22.2618L23.5631 20.9627C25.1478 19.5786 26.3674 17.7492 26.862 15.9425C27.391 15.8322 27.9251 15.5403 28.3574 15.1133C28.8957 14.5819 29.2042 13.9136 29.2042 13.2798V12.4487C29.2042 11.77 28.7258 11.2017 28.0893 11.0622C28.1268 10.9298 28.1483 10.7905 28.1483 10.6459V9.74375C28.1483 9.05642 27.6936 8.47323 27.0694 8.27864C26.8396 6.77513 26.2359 5.35167 25.307 4.13857C24.3626 2.90554 23.1224 1.93733 21.7073 1.32468C21.435 0.554032 20.6995 0 19.8363 0H16.4285C15.5701 0 14.8375 0.547783 14.5617 1.31188C13.1397 1.92156 11.8933 2.89007 10.9432 4.12697C10.0048 5.34899 9.39628 6.78436 9.16776 8.30125C8.57594 8.51429 8.15105 9.07963 8.15105 9.74375V10.6459C8.15105 10.7992 8.17426 10.9467 8.21591 11.086C7.62528 11.2583 7.19206 11.8034 7.19206 12.4487V13.2798C7.19206 13.9133 7.50061 14.5819 8.03858 15.1133C8.47151 15.5406 9.0062 15.8324 9.53523 15.9428C10.0309 17.7513 11.2509 19.5806 12.8362 20.9642L8.56553 22.2618C8.31708 22.3374 8.06833 22.4085 7.82761 22.4776C5.99473 23.0009 4.2636 23.4958 3.53342 25.7455C3.53223 25.7491 3.53134 25.7526 3.53015 25.7562L0.421981 36.0061C0.0113666 37.365 -0.169542 38.0404 0.201796 38.5355C0.54457 38.9932 1.12657 38.9884 2.00701 38.9807C2.1418 38.9795 2.2873 38.9783 2.44381 38.9783C4.49093 38.9783 6.90165 38.9825 9.29541 38.9872C9.33409 38.9953 9.37426 39 9.41562 39H16.0093C16.0179 39 16.0262 38.9991 16.0348 38.9985C16.7879 38.9994 17.516 39 18.2037 39C18.8886 39 19.6137 38.9994 20.3641 38.9985C20.3725 38.9988 20.3808 39 20.3894 39H26.9807C27.022 39 27.0622 38.9955 27.1009 38.9872C29.4982 38.9825 31.9131 38.9783 33.9632 38.9783C34.117 38.9783 34.2599 38.9795 34.3926 38.9807C35.2796 38.9881 35.8657 38.9929 36.2094 38.5317C36.5819 38.0321 36.3983 37.3587 35.9821 36.0037Z" fill="black"/>
</svg>
